%TF.GenerationSoftware,KiCad,Pcbnew,7.0.2*%
%TF.CreationDate,2023-10-10T18:20:49-06:00*%
%TF.ProjectId,igloo30,69676c6f-6f33-4302-9e6b-696361645f70,rev?*%
%TF.SameCoordinates,Original*%
%TF.FileFunction,Legend,Bot*%
%TF.FilePolarity,Positive*%
%FSLAX46Y46*%
G04 Gerber Fmt 4.6, Leading zero omitted, Abs format (unit mm)*
G04 Created by KiCad (PCBNEW 7.0.2) date 2023-10-10 18:20:49*
%MOMM*%
%LPD*%
G01*
G04 APERTURE LIST*
%ADD10C,0.225000*%
%ADD11C,0.200000*%
%ADD12C,0.150000*%
%ADD13C,1.450000*%
%ADD14C,1.500000*%
%ADD15C,1.420000*%
%ADD16C,3.680000*%
%ADD17C,2.080000*%
G04 APERTURE END LIST*
D10*
X8682842Y47243571D02*
X9182842Y47957857D01*
X9539985Y47243571D02*
X9539985Y48743571D01*
X9539985Y48743571D02*
X8968556Y48743571D01*
X8968556Y48743571D02*
X8825699Y48672142D01*
X8825699Y48672142D02*
X8754270Y48600714D01*
X8754270Y48600714D02*
X8682842Y48457857D01*
X8682842Y48457857D02*
X8682842Y48243571D01*
X8682842Y48243571D02*
X8754270Y48100714D01*
X8754270Y48100714D02*
X8825699Y48029285D01*
X8825699Y48029285D02*
X8968556Y47957857D01*
X8968556Y47957857D02*
X9539985Y47957857D01*
X8182842Y48243571D02*
X7825699Y47243571D01*
X7468556Y48243571D02*
X7825699Y47243571D01*
X7825699Y47243571D02*
X7968556Y46886428D01*
X7968556Y46886428D02*
X8039985Y46815000D01*
X8039985Y46815000D02*
X8182842Y46743571D01*
X6254271Y47243571D02*
X6254271Y48029285D01*
X6254271Y48029285D02*
X6325699Y48172142D01*
X6325699Y48172142D02*
X6468556Y48243571D01*
X6468556Y48243571D02*
X6754271Y48243571D01*
X6754271Y48243571D02*
X6897128Y48172142D01*
X6254271Y47315000D02*
X6397128Y47243571D01*
X6397128Y47243571D02*
X6754271Y47243571D01*
X6754271Y47243571D02*
X6897128Y47315000D01*
X6897128Y47315000D02*
X6968556Y47457857D01*
X6968556Y47457857D02*
X6968556Y47600714D01*
X6968556Y47600714D02*
X6897128Y47743571D01*
X6897128Y47743571D02*
X6754271Y47815000D01*
X6754271Y47815000D02*
X6397128Y47815000D01*
X6397128Y47815000D02*
X6254271Y47886428D01*
X5539985Y48243571D02*
X5539985Y47243571D01*
X5539985Y48100714D02*
X5468556Y48172142D01*
X5468556Y48172142D02*
X5325699Y48243571D01*
X5325699Y48243571D02*
X5111413Y48243571D01*
X5111413Y48243571D02*
X4968556Y48172142D01*
X4968556Y48172142D02*
X4897128Y48029285D01*
X4897128Y48029285D02*
X4897128Y47243571D01*
X3039985Y47243571D02*
X3039985Y48743571D01*
X3039985Y48743571D02*
X2539985Y47672142D01*
X2539985Y47672142D02*
X2039985Y48743571D01*
X2039985Y48743571D02*
X2039985Y47243571D01*
X1111413Y47243571D02*
X1254270Y47315000D01*
X1254270Y47315000D02*
X1325699Y47386428D01*
X1325699Y47386428D02*
X1397127Y47529285D01*
X1397127Y47529285D02*
X1397127Y47957857D01*
X1397127Y47957857D02*
X1325699Y48100714D01*
X1325699Y48100714D02*
X1254270Y48172142D01*
X1254270Y48172142D02*
X1111413Y48243571D01*
X1111413Y48243571D02*
X897127Y48243571D01*
X897127Y48243571D02*
X754270Y48172142D01*
X754270Y48172142D02*
X682842Y48100714D01*
X682842Y48100714D02*
X611413Y47957857D01*
X611413Y47957857D02*
X611413Y47529285D01*
X611413Y47529285D02*
X682842Y47386428D01*
X682842Y47386428D02*
X754270Y47315000D01*
X754270Y47315000D02*
X897127Y47243571D01*
X897127Y47243571D02*
X1111413Y47243571D01*
X-31443Y47243571D02*
X-31443Y48243571D01*
X-31443Y47957857D02*
X-102872Y48100714D01*
X-102872Y48100714D02*
X-174301Y48172142D01*
X-174301Y48172142D02*
X-317158Y48243571D01*
X-317158Y48243571D02*
X-460015Y48243571D01*
X-1602872Y48243571D02*
X-1602872Y47029285D01*
X-1602872Y47029285D02*
X-1531443Y46886428D01*
X-1531443Y46886428D02*
X-1460014Y46815000D01*
X-1460014Y46815000D02*
X-1317157Y46743571D01*
X-1317157Y46743571D02*
X-1102872Y46743571D01*
X-1102872Y46743571D02*
X-960014Y46815000D01*
X-1602872Y47315000D02*
X-1460014Y47243571D01*
X-1460014Y47243571D02*
X-1174300Y47243571D01*
X-1174300Y47243571D02*
X-1031443Y47315000D01*
X-1031443Y47315000D02*
X-960014Y47386428D01*
X-960014Y47386428D02*
X-888586Y47529285D01*
X-888586Y47529285D02*
X-888586Y47957857D01*
X-888586Y47957857D02*
X-960014Y48100714D01*
X-960014Y48100714D02*
X-1031443Y48172142D01*
X-1031443Y48172142D02*
X-1174300Y48243571D01*
X-1174300Y48243571D02*
X-1460014Y48243571D01*
X-1460014Y48243571D02*
X-1602872Y48172142D01*
X-2888586Y47315000D02*
X-2745729Y47243571D01*
X-2745729Y47243571D02*
X-2460015Y47243571D01*
X-2460015Y47243571D02*
X-2317157Y47315000D01*
X-2317157Y47315000D02*
X-2245729Y47457857D01*
X-2245729Y47457857D02*
X-2245729Y48029285D01*
X-2245729Y48029285D02*
X-2317157Y48172142D01*
X-2317157Y48172142D02*
X-2460015Y48243571D01*
X-2460015Y48243571D02*
X-2745729Y48243571D01*
X-2745729Y48243571D02*
X-2888586Y48172142D01*
X-2888586Y48172142D02*
X-2960015Y48029285D01*
X-2960015Y48029285D02*
X-2960015Y47886428D01*
X-2960015Y47886428D02*
X-2245729Y47743571D01*
X-3602871Y48243571D02*
X-3602871Y47243571D01*
X-3602871Y48100714D02*
X-3674300Y48172142D01*
X-3674300Y48172142D02*
X-3817157Y48243571D01*
X-3817157Y48243571D02*
X-4031443Y48243571D01*
X-4031443Y48243571D02*
X-4174300Y48172142D01*
X-4174300Y48172142D02*
X-4245729Y48029285D01*
X-4245729Y48029285D02*
X-4245729Y47243571D01*
X-4888586Y47315000D02*
X-5031443Y47243571D01*
X-5031443Y47243571D02*
X-5317157Y47243571D01*
X-5317157Y47243571D02*
X-5460014Y47315000D01*
X-5460014Y47315000D02*
X-5531443Y47457857D01*
X-5531443Y47457857D02*
X-5531443Y47529285D01*
X-5531443Y47529285D02*
X-5460014Y47672142D01*
X-5460014Y47672142D02*
X-5317157Y47743571D01*
X-5317157Y47743571D02*
X-5102872Y47743571D01*
X-5102872Y47743571D02*
X-4960014Y47815000D01*
X-4960014Y47815000D02*
X-4888586Y47957857D01*
X-4888586Y47957857D02*
X-4888586Y48029285D01*
X-4888586Y48029285D02*
X-4960014Y48172142D01*
X-4960014Y48172142D02*
X-5102872Y48243571D01*
X-5102872Y48243571D02*
X-5317157Y48243571D01*
X-5317157Y48243571D02*
X-5460014Y48172142D01*
X-5960015Y48243571D02*
X-6531443Y48243571D01*
X-6174300Y48743571D02*
X-6174300Y47457857D01*
X-6174300Y47457857D02*
X-6245729Y47315000D01*
X-6245729Y47315000D02*
X-6388586Y47243571D01*
X-6388586Y47243571D02*
X-6531443Y47243571D01*
X-7602872Y47315000D02*
X-7460015Y47243571D01*
X-7460015Y47243571D02*
X-7174301Y47243571D01*
X-7174301Y47243571D02*
X-7031443Y47315000D01*
X-7031443Y47315000D02*
X-6960015Y47457857D01*
X-6960015Y47457857D02*
X-6960015Y48029285D01*
X-6960015Y48029285D02*
X-7031443Y48172142D01*
X-7031443Y48172142D02*
X-7174301Y48243571D01*
X-7174301Y48243571D02*
X-7460015Y48243571D01*
X-7460015Y48243571D02*
X-7602872Y48172142D01*
X-7602872Y48172142D02*
X-7674301Y48029285D01*
X-7674301Y48029285D02*
X-7674301Y47886428D01*
X-7674301Y47886428D02*
X-6960015Y47743571D01*
X-8317157Y47243571D02*
X-8317157Y48243571D01*
X-8317157Y47957857D02*
X-8388586Y48100714D01*
X-8388586Y48100714D02*
X-8460015Y48172142D01*
X-8460015Y48172142D02*
X-8602872Y48243571D01*
X-8602872Y48243571D02*
X-8745729Y48243571D01*
X-9245728Y48243571D02*
X-9245728Y47243571D01*
X-9245728Y48100714D02*
X-9317157Y48172142D01*
X-9317157Y48172142D02*
X-9460014Y48243571D01*
X-9460014Y48243571D02*
X-9674300Y48243571D01*
X-9674300Y48243571D02*
X-9817157Y48172142D01*
X-9817157Y48172142D02*
X-9888586Y48029285D01*
X-9888586Y48029285D02*
X-9888586Y47243571D01*
X3682842Y44813571D02*
X3682842Y46313571D01*
X2325699Y45813571D02*
X2325699Y44599285D01*
X2325699Y44599285D02*
X2397127Y44456428D01*
X2397127Y44456428D02*
X2468556Y44385000D01*
X2468556Y44385000D02*
X2611413Y44313571D01*
X2611413Y44313571D02*
X2825699Y44313571D01*
X2825699Y44313571D02*
X2968556Y44385000D01*
X2325699Y44885000D02*
X2468556Y44813571D01*
X2468556Y44813571D02*
X2754270Y44813571D01*
X2754270Y44813571D02*
X2897127Y44885000D01*
X2897127Y44885000D02*
X2968556Y44956428D01*
X2968556Y44956428D02*
X3039984Y45099285D01*
X3039984Y45099285D02*
X3039984Y45527857D01*
X3039984Y45527857D02*
X2968556Y45670714D01*
X2968556Y45670714D02*
X2897127Y45742142D01*
X2897127Y45742142D02*
X2754270Y45813571D01*
X2754270Y45813571D02*
X2468556Y45813571D01*
X2468556Y45813571D02*
X2325699Y45742142D01*
X1397127Y44813571D02*
X1539984Y44885000D01*
X1539984Y44885000D02*
X1611413Y45027857D01*
X1611413Y45027857D02*
X1611413Y46313571D01*
X611413Y44813571D02*
X754270Y44885000D01*
X754270Y44885000D02*
X825699Y44956428D01*
X825699Y44956428D02*
X897127Y45099285D01*
X897127Y45099285D02*
X897127Y45527857D01*
X897127Y45527857D02*
X825699Y45670714D01*
X825699Y45670714D02*
X754270Y45742142D01*
X754270Y45742142D02*
X611413Y45813571D01*
X611413Y45813571D02*
X397127Y45813571D01*
X397127Y45813571D02*
X254270Y45742142D01*
X254270Y45742142D02*
X182842Y45670714D01*
X182842Y45670714D02*
X111413Y45527857D01*
X111413Y45527857D02*
X111413Y45099285D01*
X111413Y45099285D02*
X182842Y44956428D01*
X182842Y44956428D02*
X254270Y44885000D01*
X254270Y44885000D02*
X397127Y44813571D01*
X397127Y44813571D02*
X611413Y44813571D01*
X-745729Y44813571D02*
X-602872Y44885000D01*
X-602872Y44885000D02*
X-531443Y44956428D01*
X-531443Y44956428D02*
X-460015Y45099285D01*
X-460015Y45099285D02*
X-460015Y45527857D01*
X-460015Y45527857D02*
X-531443Y45670714D01*
X-531443Y45670714D02*
X-602872Y45742142D01*
X-602872Y45742142D02*
X-745729Y45813571D01*
X-745729Y45813571D02*
X-960015Y45813571D01*
X-960015Y45813571D02*
X-1102872Y45742142D01*
X-1102872Y45742142D02*
X-1174301Y45670714D01*
X-1174301Y45670714D02*
X-1245729Y45527857D01*
X-1245729Y45527857D02*
X-1245729Y45099285D01*
X-1245729Y45099285D02*
X-1174301Y44956428D01*
X-1174301Y44956428D02*
X-1102872Y44885000D01*
X-1102872Y44885000D02*
X-960015Y44813571D01*
X-960015Y44813571D02*
X-745729Y44813571D01*
X-1745729Y46313571D02*
X-2674301Y46313571D01*
X-2674301Y46313571D02*
X-2174301Y45742142D01*
X-2174301Y45742142D02*
X-2388586Y45742142D01*
X-2388586Y45742142D02*
X-2531444Y45670714D01*
X-2531444Y45670714D02*
X-2602872Y45599285D01*
X-2602872Y45599285D02*
X-2674301Y45456428D01*
X-2674301Y45456428D02*
X-2674301Y45099285D01*
X-2674301Y45099285D02*
X-2602872Y44956428D01*
X-2602872Y44956428D02*
X-2531444Y44885000D01*
X-2531444Y44885000D02*
X-2388586Y44813571D01*
X-2388586Y44813571D02*
X-1960015Y44813571D01*
X-1960015Y44813571D02*
X-1817158Y44885000D01*
X-1817158Y44885000D02*
X-1745729Y44956428D01*
X-3602872Y46313571D02*
X-3745729Y46313571D01*
X-3745729Y46313571D02*
X-3888586Y46242142D01*
X-3888586Y46242142D02*
X-3960015Y46170714D01*
X-3960015Y46170714D02*
X-4031443Y46027857D01*
X-4031443Y46027857D02*
X-4102872Y45742142D01*
X-4102872Y45742142D02*
X-4102872Y45385000D01*
X-4102872Y45385000D02*
X-4031443Y45099285D01*
X-4031443Y45099285D02*
X-3960015Y44956428D01*
X-3960015Y44956428D02*
X-3888586Y44885000D01*
X-3888586Y44885000D02*
X-3745729Y44813571D01*
X-3745729Y44813571D02*
X-3602872Y44813571D01*
X-3602872Y44813571D02*
X-3460015Y44885000D01*
X-3460015Y44885000D02*
X-3388586Y44956428D01*
X-3388586Y44956428D02*
X-3317157Y45099285D01*
X-3317157Y45099285D02*
X-3245729Y45385000D01*
X-3245729Y45385000D02*
X-3245729Y45742142D01*
X-3245729Y45742142D02*
X-3317157Y46027857D01*
X-3317157Y46027857D02*
X-3388586Y46170714D01*
X-3388586Y46170714D02*
X-3460015Y46242142D01*
X-3460015Y46242142D02*
X-3602872Y46313571D01*
X4468555Y43883571D02*
X4182841Y43883571D01*
X4182841Y43883571D02*
X4039984Y43812142D01*
X4039984Y43812142D02*
X3897127Y43669285D01*
X3897127Y43669285D02*
X3825698Y43383571D01*
X3825698Y43383571D02*
X3825698Y42883571D01*
X3825698Y42883571D02*
X3897127Y42597857D01*
X3897127Y42597857D02*
X4039984Y42455000D01*
X4039984Y42455000D02*
X4182841Y42383571D01*
X4182841Y42383571D02*
X4468555Y42383571D01*
X4468555Y42383571D02*
X4611413Y42455000D01*
X4611413Y42455000D02*
X4754270Y42597857D01*
X4754270Y42597857D02*
X4825698Y42883571D01*
X4825698Y42883571D02*
X4825698Y43383571D01*
X4825698Y43383571D02*
X4754270Y43669285D01*
X4754270Y43669285D02*
X4611413Y43812142D01*
X4611413Y43812142D02*
X4468555Y43883571D01*
X2539984Y42455000D02*
X2682841Y42383571D01*
X2682841Y42383571D02*
X2968555Y42383571D01*
X2968555Y42383571D02*
X3111412Y42455000D01*
X3111412Y42455000D02*
X3182841Y42526428D01*
X3182841Y42526428D02*
X3254269Y42669285D01*
X3254269Y42669285D02*
X3254269Y43097857D01*
X3254269Y43097857D02*
X3182841Y43240714D01*
X3182841Y43240714D02*
X3111412Y43312142D01*
X3111412Y43312142D02*
X2968555Y43383571D01*
X2968555Y43383571D02*
X2682841Y43383571D01*
X2682841Y43383571D02*
X2539984Y43312142D01*
X2111412Y43383571D02*
X1539984Y43383571D01*
X1897127Y43883571D02*
X1897127Y42597857D01*
X1897127Y42597857D02*
X1825698Y42455000D01*
X1825698Y42455000D02*
X1682841Y42383571D01*
X1682841Y42383571D02*
X1539984Y42383571D01*
X-31444Y43740714D02*
X-102872Y43812142D01*
X-102872Y43812142D02*
X-245730Y43883571D01*
X-245730Y43883571D02*
X-602872Y43883571D01*
X-602872Y43883571D02*
X-745730Y43812142D01*
X-745730Y43812142D02*
X-817158Y43740714D01*
X-817158Y43740714D02*
X-888587Y43597857D01*
X-888587Y43597857D02*
X-888587Y43455000D01*
X-888587Y43455000D02*
X-817158Y43240714D01*
X-817158Y43240714D02*
X39984Y42383571D01*
X39984Y42383571D02*
X-888587Y42383571D01*
X-1817158Y43883571D02*
X-1960015Y43883571D01*
X-1960015Y43883571D02*
X-2102872Y43812142D01*
X-2102872Y43812142D02*
X-2174301Y43740714D01*
X-2174301Y43740714D02*
X-2245729Y43597857D01*
X-2245729Y43597857D02*
X-2317158Y43312142D01*
X-2317158Y43312142D02*
X-2317158Y42955000D01*
X-2317158Y42955000D02*
X-2245729Y42669285D01*
X-2245729Y42669285D02*
X-2174301Y42526428D01*
X-2174301Y42526428D02*
X-2102872Y42455000D01*
X-2102872Y42455000D02*
X-1960015Y42383571D01*
X-1960015Y42383571D02*
X-1817158Y42383571D01*
X-1817158Y42383571D02*
X-1674301Y42455000D01*
X-1674301Y42455000D02*
X-1602872Y42526428D01*
X-1602872Y42526428D02*
X-1531443Y42669285D01*
X-1531443Y42669285D02*
X-1460015Y42955000D01*
X-1460015Y42955000D02*
X-1460015Y43312142D01*
X-1460015Y43312142D02*
X-1531443Y43597857D01*
X-1531443Y43597857D02*
X-1602872Y43740714D01*
X-1602872Y43740714D02*
X-1674301Y43812142D01*
X-1674301Y43812142D02*
X-1817158Y43883571D01*
X-2888586Y43740714D02*
X-2960014Y43812142D01*
X-2960014Y43812142D02*
X-3102872Y43883571D01*
X-3102872Y43883571D02*
X-3460014Y43883571D01*
X-3460014Y43883571D02*
X-3602872Y43812142D01*
X-3602872Y43812142D02*
X-3674300Y43740714D01*
X-3674300Y43740714D02*
X-3745729Y43597857D01*
X-3745729Y43597857D02*
X-3745729Y43455000D01*
X-3745729Y43455000D02*
X-3674300Y43240714D01*
X-3674300Y43240714D02*
X-2817157Y42383571D01*
X-2817157Y42383571D02*
X-3745729Y42383571D01*
X-4245728Y43883571D02*
X-5174300Y43883571D01*
X-5174300Y43883571D02*
X-4674300Y43312142D01*
X-4674300Y43312142D02*
X-4888585Y43312142D01*
X-4888585Y43312142D02*
X-5031443Y43240714D01*
X-5031443Y43240714D02*
X-5102871Y43169285D01*
X-5102871Y43169285D02*
X-5174300Y43026428D01*
X-5174300Y43026428D02*
X-5174300Y42669285D01*
X-5174300Y42669285D02*
X-5102871Y42526428D01*
X-5102871Y42526428D02*
X-5031443Y42455000D01*
X-5031443Y42455000D02*
X-4888585Y42383571D01*
X-4888585Y42383571D02*
X-4460014Y42383571D01*
X-4460014Y42383571D02*
X-4317157Y42455000D01*
X-4317157Y42455000D02*
X-4245728Y42526428D01*
%LPC*%
D11*
X32770000Y19820000D02*
X23610000Y19880000D01*
X22540000Y18770000D01*
X18780000Y18670000D01*
X18250000Y18530000D01*
X17830000Y18300000D01*
X16730000Y18300000D01*
X16250000Y18820000D01*
X14230000Y20770000D01*
X14400000Y30200000D01*
X32940000Y30200000D01*
X32770000Y19820000D01*
G36*
X32770000Y19820000D02*
G01*
X23610000Y19880000D01*
X22540000Y18770000D01*
X18780000Y18670000D01*
X18250000Y18530000D01*
X17830000Y18300000D01*
X16730000Y18300000D01*
X16250000Y18820000D01*
X14230000Y20770000D01*
X14400000Y30200000D01*
X32940000Y30200000D01*
X32770000Y19820000D01*
G37*
D12*
X18500000Y55000000D02*
X41000000Y55000000D01*
X41000000Y37500000D01*
X18500000Y37500000D01*
X18500000Y55000000D01*
G36*
X18500000Y55000000D02*
G01*
X41000000Y55000000D01*
X41000000Y37500000D01*
X18500000Y37500000D01*
X18500000Y55000000D01*
G37*
X-39000000Y55000000D02*
X-18500000Y55000000D01*
X-18500000Y37500000D01*
X-39000000Y37500000D01*
X-39000000Y55000000D01*
G36*
X-39000000Y55000000D02*
G01*
X-18500000Y55000000D01*
X-18500000Y37500000D01*
X-39000000Y37500000D01*
X-39000000Y55000000D01*
G37*
D11*
X-16720000Y-18450000D02*
X-14700000Y-20400000D01*
X-14870000Y-29830000D01*
X-33410000Y-29830000D01*
X-33240000Y-19450000D01*
X-24080000Y-19510000D01*
X-23000000Y-18300000D01*
X-19250000Y-18300000D01*
X-18720000Y-18160000D01*
X-18300000Y-17930000D01*
X-17200000Y-17930000D01*
X-16720000Y-18450000D01*
G36*
X-16720000Y-18450000D02*
G01*
X-14700000Y-20400000D01*
X-14870000Y-29830000D01*
X-33410000Y-29830000D01*
X-33240000Y-19450000D01*
X-24080000Y-19510000D01*
X-23000000Y-18300000D01*
X-19250000Y-18300000D01*
X-18720000Y-18160000D01*
X-18300000Y-17930000D01*
X-17200000Y-17930000D01*
X-16720000Y-18450000D01*
G37*
D12*
X-39000000Y-37500000D02*
X-18500000Y-37500000D01*
X-18500000Y-55000000D01*
X-39000000Y-55000000D01*
X-39000000Y-37500000D01*
G36*
X-39000000Y-37500000D02*
G01*
X-18500000Y-37500000D01*
X-18500000Y-55000000D01*
X-39000000Y-55000000D01*
X-39000000Y-37500000D01*
G37*
X29960341Y-16879984D02*
X41037890Y-30430593D01*
X13900000Y-30430593D01*
X13900000Y-19880593D01*
X17000000Y-16800000D01*
X29960341Y-16879984D01*
G36*
X29960341Y-16879984D02*
G01*
X41037890Y-30430593D01*
X13900000Y-30430593D01*
X13900000Y-19880593D01*
X17000000Y-16800000D01*
X29960341Y-16879984D01*
G37*
X18500000Y-37500000D02*
X41000000Y-37500000D01*
X41000000Y-55000000D01*
X18500000Y-55000000D01*
X18500000Y-37500000D01*
G36*
X18500000Y-37500000D02*
G01*
X41000000Y-37500000D01*
X41000000Y-55000000D01*
X18500000Y-55000000D01*
X18500000Y-37500000D01*
G37*
X-12300000Y30964771D02*
X-12300000Y20414771D01*
X-15400000Y17334178D01*
X-30900000Y17300000D01*
X-39294355Y31032901D01*
X-12300000Y30964771D01*
G36*
X-12300000Y30964771D02*
G01*
X-12300000Y20414771D01*
X-15400000Y17334178D01*
X-30900000Y17300000D01*
X-39294355Y31032901D01*
X-12300000Y30964771D01*
G37*
D13*
%TO.C,J12*%
X38550000Y-20000000D03*
X38550000Y-8000000D03*
D14*
X36550000Y-21475000D03*
X36550000Y-6525000D03*
%TD*%
D13*
%TO.C,J11*%
X-38550000Y20000000D03*
X-38550000Y8000000D03*
D14*
X-36550000Y21475000D03*
X-36550000Y6525000D03*
%TD*%
D13*
%TO.C,J7*%
X38550000Y8000000D03*
X38550000Y20000000D03*
D14*
X36550000Y6525000D03*
X36550000Y21475000D03*
%TD*%
D15*
%TO.C,J3*%
X-15400000Y38000000D03*
D16*
X-8000000Y38000000D03*
X8000000Y38000000D03*
D17*
X15400000Y38000000D03*
%TD*%
D13*
%TO.C,J9*%
X-38550000Y-8000000D03*
X-38550000Y-20000000D03*
D14*
X-36550000Y-6525000D03*
X-36550000Y-21475000D03*
%TD*%
D15*
%TO.C,J4*%
X15400000Y-38000000D03*
D16*
X8000000Y-38000000D03*
X-8000000Y-38000000D03*
D17*
X-15400000Y-38000000D03*
%TD*%
%LPD*%
M02*
