M48
; DRILL file {KiCad 7.0.2} date Tue Oct 10 18:20:49 2023
; FORMAT={-:-/ absolute / inch / decimal}
; #@! TF.CreationDate,2023-10-10T18:20:49-06:00
; #@! TF.GenerationSoftware,Kicad,Pcbnew,7.0.2
; #@! TF.FileFunction,Plated,1,4,PTH
FMAT,2
INCH
; #@! TA.AperFunction,Plated,PTH,ViaDrill
T1C0.0118
; #@! TA.AperFunction,Plated,PTH,ViaDrill
T2C0.0157
; #@! TA.AperFunction,Plated,PTH,ComponentDrill
T3C0.0394
; #@! TA.AperFunction,Plated,PTH,ViaDrill
T4C0.1181
%
G90
G05
T1
X-1.1029Y1.4107
X-1.1029Y1.2869
X-1.1029Y1.1631
X-1.1029Y1.0393
X-1.1029Y0.9155
X-1.1029Y0.7916
X-1.1029Y0.6678
X-1.1029Y0.544
X-1.1029Y0.4202
X-1.1029Y0.2964
X-1.1029Y-0.3099
X-1.1029Y-0.4332
X-1.1029Y-0.5564
X-1.1029Y-0.6796
X-1.1029Y-0.8029
X-1.1029Y-0.9261
X-1.1029Y-1.0493
X-1.1029Y-1.1725
X-1.1029Y-1.2958
X-1.1029Y-1.419
X-1.0937Y1.5568
X-1.0937Y-1.5645
X-1.0492Y0.3186
X-1.0492Y-0.3322
X-1.0399Y1.5345
X-1.0399Y1.4107
X-1.0399Y1.2869
X-1.0399Y1.1631
X-1.0399Y1.0393
X-1.0399Y0.9155
X-1.0399Y0.7916
X-1.0399Y0.6678
X-1.0399Y0.544
X-1.0399Y0.4202
X-1.0399Y-0.4332
X-1.0399Y-0.5564
X-1.0399Y-0.6796
X-1.0399Y-0.8029
X-1.0399Y-0.9261
X-1.0399Y-1.0493
X-1.0399Y-1.1725
X-1.0399Y-1.2958
X-1.0399Y-1.419
X-1.0399Y-1.5422
X-1.0242Y1.351
X-1.0242Y1.2266
X-1.0242Y1.1021
X-1.0242Y0.9777
X-1.0242Y0.8532
X-1.0242Y0.7288
X-1.0242Y0.6043
X-1.0242Y0.4799
X-1.0242Y0.3554
X-1.0242Y-0.4753
X-1.0242Y-0.6013
X-1.0242Y-0.7273
X-1.0242Y-0.8532
X-1.0242Y-0.9792
X-1.0242Y-1.1052
X-1.0242Y-1.2312
X-1.0242Y-1.3572
X-1.015Y1.4978
X-1.015Y-0.327
X-1.015Y-1.5054
X-1.0024Y1.6481
X-0.9887Y-1.6695
X-0.9883Y0.1686
X-0.9776Y-0.1715
X-0.9644Y1.5971
X-0.9612Y1.4755
X-0.9612Y1.351
X-0.9612Y1.2266
X-0.9612Y1.1021
X-0.9612Y0.9777
X-0.9612Y0.8532
X-0.9612Y0.7288
X-0.9612Y0.6043
X-0.9612Y0.4799
X-0.9612Y0.3554
X-0.9612Y-0.3493
X-0.9612Y-0.4753
X-0.9612Y-0.6013
X-0.9612Y-0.7273
X-0.9612Y-0.8532
X-0.9612Y-0.9792
X-0.9612Y-1.1052
X-0.9612Y-1.2312
X-0.9612Y-1.3572
X-0.9612Y-1.4832
X-0.9454Y1.317
X-0.9454Y1.1881
X-0.9454Y1.0592
X-0.9454Y0.9302
X-0.9454Y0.8013
X-0.9454Y0.6723
X-0.9454Y0.5434
X-0.9454Y0.4145
X-0.9454Y-0.4005
X-0.9454Y-0.5309
X-0.9454Y-0.6613
X-0.9454Y-0.7917
X-0.9454Y-0.9221
X-0.9454Y-1.0526
X-0.9454Y-1.183
X-0.9454Y-1.3134
X-0.9454Y-1.4438
X-0.9442Y-1.6249
X-0.9437Y0.2132
X-0.939Y1.4453
X-0.933Y-0.2161
X-0.9256Y1.5871
X-0.9165Y-1.6039
X-0.8917Y0.4367
X-0.8917Y-1.4215
X-0.8837Y-1.7745
X-0.8828Y0.0632
X-0.8825Y1.446
X-0.8825Y1.317
X-0.8825Y1.1881
X-0.8825Y1.0592
X-0.8825Y0.9302
X-0.8825Y0.8013
X-0.8825Y0.6723
X-0.8825Y0.5434
X-0.8825Y-0.4005
X-0.8825Y-0.5309
X-0.8825Y-0.7917
X-0.8825Y-0.9221
X-0.8825Y-1.0526
X-0.8825Y-1.183
X-0.8825Y-1.3134
X-0.8819Y1.5354
X-0.8819Y-0.685
X-0.8796Y1.6819
X-0.8783Y-0.1904
X-0.872Y-1.5593
X-0.8649Y0.1831
X-0.8614Y-0.0554
X-0.861Y0.317
X-0.8588Y1.2734
X-0.8588Y1.1481
X-0.8588Y1.0228
X-0.8588Y0.8974
X-0.8588Y0.7721
X-0.8588Y0.6468
X-0.8588Y-0.6412
X-0.8588Y-0.7665
X-0.8588Y-0.8917
X-0.8588Y-1.0169
X-0.8588Y-1.1422
X-0.8588Y-1.2674
X-0.8496Y1.421
X-0.8496Y0.4937
X-0.8496Y-1.4149
X-0.8392Y-1.7299
X-0.8363Y1.6765
X-0.836Y1.5684
X-0.8248Y-1.5661
X-0.8199Y1.8306
X-0.8181Y-1.7023
X-0.8081Y1.5072
X-0.8075Y0.4516
X-0.8051Y1.3764
X-0.7958Y1.2734
X-0.7958Y1.1481
X-0.7958Y1.0228
X-0.7958Y0.8974
X-0.7958Y0.7721
X-0.7958Y0.6468
X-0.7958Y-0.6412
X-0.7958Y-0.7665
X-0.7958Y-0.8917
X-0.7958Y-1.0169
X-0.7958Y-1.1422
X-0.7958Y-1.2674
X-0.7958Y-1.3926
X-0.7948Y1.7667
X-0.7854Y-1.5224
X-0.7824Y-0.4395
X-0.7787Y-1.8795
X-0.7736Y-1.6577
X-0.7629Y0.4961
X-0.7601Y-0.4933
X-0.7574Y1.6662
X-0.7565Y-1.8257
X-0.7469Y1.7658
X-0.7335Y1.5371
X-0.7308Y-1.669
X-0.7305Y-1.534
X-0.7246Y1.5908
X-0.7241Y1.9144
X-0.7185Y1.6811
X-0.71Y1.8515
X-0.6974Y-1.8099
X-0.6889Y1.4926
X-0.6862Y-1.6244
X-0.686Y-1.4894
X-0.6803Y-1.722
X-0.6751Y-1.7562
X-0.658Y-1.6682
X-0.6509Y1.7727
X-0.6482Y1.8357
X-0.6411Y1.6743
X-0.6213Y1.7373
X-0.6173Y1.6533
X-0.6114Y-1.6531
X-0.6055Y-1.8257
X-0.6055Y-1.8887
X-0.5951Y1.5995
X-0.5951Y1.9145
X-0.5891Y-1.5993
X-0.5879Y1.8515
X-0.5406Y-1.7469
X-0.5406Y-1.8099
X-0.5218Y1.8357
X-0.5035Y1.1283
X-0.5031Y0.9742
X-0.5031Y0.748
X-0.5028Y0.8661
X-0.5006Y-0.7717
X-0.5006Y-0.9834
X-0.5006Y-1.1312
X-0.4947Y1.2603
X-0.4913Y-1.2567
X-0.4849Y-1.6774
X-0.4816Y1.6743
X-0.4796Y1.7373
X-0.466Y1.9145
X-0.4658Y1.8515
X-0.4626Y-1.7312
X-0.4546Y-1.8257
X-0.4546Y-1.8887
X-0.4502Y1.3048
X-0.4406Y1.1285
X-0.4402Y0.9743
X-0.4402Y0.7482
X-0.4398Y0.8661
X-0.4376Y-0.7717
X-0.4376Y-0.9834
X-0.4376Y-1.1312
X-0.4376Y-1.279
X-0.4152Y1.7727
X-0.3955Y1.835
X-0.3839Y-1.7469
X-0.369Y1.3051
X-0.369Y1.1843
X-0.369Y1.0636
X-0.369Y0.9428
X-0.3673Y0.7481
X-0.3656Y-0.7712
X-0.3656Y-0.9912
X-0.3656Y-1.1464
X-0.3616Y-1.8007
X-0.3564Y-1.2792
X-0.3438Y1.8515
X-0.3369Y1.9145
X-0.306Y1.3051
X-0.306Y1.1843
X-0.306Y1.0636
X-0.306Y0.9428
X-0.3043Y0.7481
X-0.3037Y-1.8257
X-0.3033Y1.7499
X-0.3026Y-0.7764
X-0.3026Y-0.9912
X-0.3026Y-1.1464
X-0.3026Y-1.3015
X-0.2814Y-1.8795
X-0.239Y1.8358
X-0.2358Y0.7458
X-0.234Y1.3145
X-0.234Y1.1911
X-0.234Y1.0678
X-0.234Y0.9444
X-0.2306Y-0.7638
X-0.2306Y-0.9572
X-0.2306Y-1.0795
X-0.2306Y-1.2017
X-0.2224Y1.7301
X-0.2214Y-1.3017
X-0.2135Y-1.7224
X-0.1728Y0.7458
X-0.171Y1.2552
X-0.171Y1.1104
X-0.171Y0.9657
X-0.169Y-1.767
X-0.1676Y-0.7638
X-0.1676Y-0.9572
X-0.1676Y-1.0795
X-0.1676Y-1.2017
X-0.1676Y-1.324
X-0.1477Y1.7446
X-0.0994Y0.7483
X-0.099Y1.2078
X-0.099Y1.0786
X-0.099Y0.9494
X-0.0988Y0.8661
X-0.0956Y-0.7627
X-0.0956Y-0.962
X-0.0956Y-1.0902
X-0.0956Y-1.2183
X-0.0364Y0.7483
X-0.036Y1.248
X-0.036Y1.1054
X-0.036Y0.9628
X-0.0358Y0.8661
X-0.0326Y-0.7627
X-0.0326Y-0.962
X-0.0326Y-1.0902
X-0.0326Y-1.2183
X-0.0326Y-1.3465
X0.0356Y0.7495
X0.036Y1.2483
X0.036Y1.2483
X0.036Y1.106
X0.036Y1.106
X0.036Y0.9637
X0.036Y0.9637
X0.036Y0.8675
X0.0394Y-0.7631
X0.0394Y-0.964
X0.0394Y-1.0937
X0.0394Y-1.2235
X0.0986Y0.7495
X0.099Y1.2081
X0.099Y1.2081
X0.099Y1.0792
X0.099Y1.0792
X0.099Y0.9503
X0.099Y0.9503
X0.099Y0.8675
X0.1024Y-0.7631
X0.1024Y-0.964
X0.1024Y-1.0937
X0.1024Y-1.2235
X0.1406Y1.7374
X0.1697Y-1.7663
X0.171Y1.2554
X0.171Y1.1109
X0.171Y0.9664
X0.1724Y0.7481
X0.1744Y-0.7647
X0.1744Y-0.9596
X0.1744Y-1.0833
X0.1744Y-1.207
X0.1836Y-1.353
X0.2125Y1.7203
X0.2142Y-1.7218
X0.2248Y1.8216
X0.2336Y0.75
X0.234Y1.3145
X0.234Y1.1914
X0.234Y1.0682
X0.234Y0.9451
X0.2373Y-0.7647
X0.2373Y-0.9596
X0.2373Y-1.0833
X0.2373Y-1.207
X0.2977Y1.737
X0.3042Y0.746
X0.3051Y-1.8887
X0.306Y1.3051
X0.306Y1.184
X0.306Y1.0629
X0.306Y0.9419
X0.3093Y-0.7632
X0.3093Y-0.9528
X0.3093Y-1.0713
X0.3093Y-1.1898
X0.3093Y-1.3083
X0.3148Y1.8948
X0.3241Y1.8318
X0.3274Y-1.8349
X0.3597Y1.2828
X0.3631Y-1.286
X0.3672Y0.746
X0.369Y1.184
X0.369Y1.0629
X0.369Y0.9419
X0.3723Y-0.7632
X0.3723Y-0.9528
X0.3723Y-1.0713
X0.3723Y-1.1898
X0.3839Y-1.8099
X0.3848Y1.8156
X0.4028Y1.7531
X0.4061Y-1.7562
X0.4338Y1.8948
X0.4391Y0.7475
X0.4409Y1.1795
X0.4409Y1.0599
X0.4409Y0.9404
X0.4434Y-1.8257
X0.4434Y-1.8887
X0.4443Y-0.7625
X0.4443Y-0.9844
X0.4443Y-1.1351
X0.4443Y-1.2858
X0.4451Y1.2983
X0.4543Y1.8318
X0.4626Y-1.7312
X0.4759Y1.7373
X0.4815Y1.6743
X0.4849Y-1.6774
X0.4981Y-1.2635
X0.5021Y0.7475
X0.5032Y1.816
X0.5039Y1.2695
X0.5039Y1.12
X0.5039Y0.9704
X0.5073Y-0.7625
X0.5073Y-0.9844
X0.5073Y-1.1351
X0.5322Y-1.7469
X0.5322Y-1.8099
X0.5371Y1.7531
X0.5528Y1.8948
X0.5791Y1.5925
X0.5816Y-1.8257
X0.5816Y-1.8887
X0.5827Y-1.6774
X0.5845Y1.8318
X0.5919Y-1.5993
X0.5957Y1.662
X0.6139Y1.7373
X0.6142Y-1.6531
X0.6215Y-1.7312
X0.6216Y1.816
X0.6281Y1.6743
X0.6714Y1.7531
X0.6719Y1.8948
X0.6795Y1.4933
X0.6805Y-1.7469
X0.6829Y-1.4953
X0.6911Y-1.5856
X0.6976Y-1.8349
X0.7028Y-1.8007
X0.7144Y1.5512
X0.7147Y1.8318
X0.7199Y-1.8887
X0.7242Y1.6673
X0.7274Y-1.5399
X0.7286Y1.785
X0.7356Y-1.6301
X0.7358Y1.428
X0.7515Y1.551
X0.7563Y0.5025
X0.7567Y-1.6577
X0.7619Y-0.4961
X0.7624Y1.6621
X0.774Y0.3046
X0.7772Y1.8584
X0.7829Y-1.4937
X0.7842Y-0.4424
X0.7862Y-1.7463
X0.7868Y-0.6361
X0.7868Y-0.7641
X0.7868Y-0.8922
X0.7868Y-1.0202
X0.7868Y-1.1483
X0.7868Y-1.2764
X0.7868Y-1.4044
X0.7874Y1.3602
X0.7885Y1.2661
X0.7885Y1.1442
X0.7885Y1.0223
X0.7885Y0.9004
X0.7885Y0.7785
X0.7885Y0.6566
X0.8012Y-1.7023
X0.8027Y1.7563
X0.8068Y0.1701
X0.8113Y-0.0374
X0.8123Y1.7012
X0.8129Y-0.3074
X0.8218Y1.5697
X0.8275Y-1.5382
X0.8308Y-1.7909
X0.8406Y-1.4267
X0.8425Y-1.116
X0.8425Y-1.2441
X0.8498Y-0.6361
X0.8498Y-0.7641
X0.8498Y-0.8922
X0.8498Y-1.0202
X0.8515Y1.3868
X0.8515Y1.2652
X0.8515Y1.1437
X0.8515Y1.0221
X0.8515Y0.9005
X0.8515Y0.779
X0.8515Y0.6574
X0.8522Y0.1912
X0.8534Y1.5711
X0.8551Y-1.5593
X0.8613Y1.7743
X0.8656Y1.3215
X0.8656Y1.193
X0.8656Y1.0646
X0.8656Y0.9362
X0.8656Y0.8077
X0.8656Y0.5509
X0.8656Y0.4225
X0.8656Y-0.423
X0.8656Y-0.5481
X0.8656Y-0.6733
X0.8656Y-0.7984
X0.8656Y-0.9236
X0.8656Y-1.0487
X0.8656Y-1.1738
X0.8656Y-1.299
X0.8669Y0.7004
X0.8748Y1.4276
X0.8748Y-1.4018
X0.8748Y-1.6577
X0.8812Y0.349
X0.8819Y0.0787
X0.8832Y-0.1854
X0.8961Y1.6175
X0.8997Y-1.6039
X0.9055Y1.6535
X0.9152Y0.2055
X0.9193Y-0.4007
X0.9193Y-1.7023
X0.9278Y-0.1408
X0.9286Y1.4499
X0.9286Y1.3256
X0.9286Y1.2012
X0.9286Y1.0769
X0.9286Y0.9525
X0.9286Y0.8282
X0.9286Y0.7038
X0.9286Y0.5795
X0.9286Y0.4551
X0.9286Y-0.5481
X0.9286Y-0.6733
X0.9286Y-0.7984
X0.9286Y-0.9236
X0.9286Y-1.0487
X0.9286Y-1.1738
X0.9286Y-1.299
X0.9286Y-1.4241
X0.9391Y0.1403
X0.9443Y1.4802
X0.9443Y1.3556
X0.9443Y1.2311
X0.9443Y1.1066
X0.9443Y0.982
X0.9443Y0.8575
X0.9443Y0.733
X0.9443Y0.6084
X0.9443Y0.4839
X0.9443Y-0.3532
X0.9443Y-0.4788
X0.9443Y-0.6043
X0.9443Y-0.7299
X0.9443Y-0.8554
X0.9443Y-0.981
X0.9443Y-1.1065
X0.9443Y-1.2321
X0.9443Y-1.3576
X0.9455Y1.6901
X0.9535Y0.3816
X0.9535Y-1.4609
X0.9634Y-1.5692
X0.9676Y-0.2698
X0.9798Y1.5337
X0.9981Y-0.331
X1.0039Y0.5945
X1.0073Y1.4253
X1.0073Y1.3069
X1.0073Y1.1884
X1.0073Y1.07
X1.0073Y0.9516
X1.0073Y0.8331
X1.0073Y0.4778
X1.0073Y0.3594
X1.0073Y-0.4788
X1.0073Y-0.6043
X1.0073Y-0.7299
X1.0073Y-0.8554
X1.0073Y-0.981
X1.0073Y-1.1065
X1.0073Y-1.2321
X1.0073Y-1.3576
X1.0073Y-1.4832
X1.0079Y0.7413
X1.0079Y-1.6137
X1.0121Y-0.2252
X1.0231Y1.5235
X1.0231Y1.1604
X1.0231Y1.0394
X1.0231Y0.9184
X1.0231Y0.7974
X1.0231Y0.6764
X1.0231Y0.5554
X1.0231Y0.4344
X1.0231Y0.3133
X1.0233Y0.2245
X1.0236Y1.3809
X1.0236Y1.2598
X1.0296Y1.606
X1.0427Y-0.462
X1.0427Y-0.5921
X1.0427Y-0.7222
X1.0427Y-0.8523
X1.0427Y-0.9824
X1.0427Y-1.1125
X1.0427Y-1.2426
X1.0427Y-1.3727
X1.052Y-0.3541
X1.052Y-1.4806
X1.0861Y1.509
X1.0861Y1.39
X1.0861Y1.271
X1.0861Y1.152
X1.0861Y1.0329
X1.0861Y0.9139
X1.0861Y0.7949
X1.0861Y0.6759
X1.0861Y0.5569
X1.0861Y0.4379
X1.0861Y0.3189
X1.1057Y-0.3319
X1.1057Y-0.462
X1.1057Y-0.5921
X1.1057Y-0.7222
X1.1057Y-0.8523
X1.1057Y-0.9824
X1.1057Y-1.1125
X1.1057Y-1.2426
X1.1057Y-1.3727
X1.1057Y-1.5029
T2
X-1.3189Y0.6978
X-1.3189Y0.6585
X-1.3189Y0.6191
X-1.3189Y0.5797
X-1.3189Y0.5404
X-1.3189Y0.501
X-1.3189Y0.4616
X-1.3189Y0.4222
X-1.3189Y0.3829
X-1.3189Y-0.4045
X-1.3189Y-0.4439
X-1.3189Y-0.4833
X-1.3189Y-0.5226
X-1.3189Y-0.562
X-1.3189Y-0.6014
X-1.3189Y-0.6407
X-1.3189Y-0.6801
X-1.3189Y-0.7195
X-1.3184Y0.7377
X-1.3184Y-0.3647
X-0.8276Y0.5213
X-0.8276Y0.2024
X-0.8276Y-0.2035
X-0.8276Y-0.3386
X-0.8276Y-0.5118
X-0.8272Y0.3402
X-0.8272Y0.0685
X-0.8272Y-0.0693
X-0.6939Y0.5394
X-0.6939Y0.4043
X-0.6939Y0.2693
X-0.6939Y0.1343
X-0.6939Y0.0268
X-0.6939Y-0.0268
X-0.6939Y-0.1343
X-0.6939Y-0.2697
X-0.6939Y-0.4039
X-0.6939Y-0.5394
X-0.655Y0.4738
X-0.655Y0.3389
X-0.655Y0.2039
X-0.655Y0.0689
X-0.655Y-0.0661
X-0.655Y-0.2011
X-0.655Y-0.3361
X-0.655Y-0.471
X-0.5512Y1.6309
X-0.5512Y1.3612
X-0.5512Y-1.3612
X-0.5512Y-1.6309
X-0.5394Y0.6939
X-0.5394Y-0.6949
X-0.4738Y0.6547
X-0.4713Y0.8201
X-0.471Y-0.655
X-0.4669Y-0.8335
X-0.4043Y0.6939
X-0.4043Y-0.6949
X-0.3937Y1.6309
X-0.3937Y1.3612
X-0.3937Y-1.3612
X-0.3937Y-1.6309
X-0.3389Y0.6547
X-0.3361Y-0.655
X-0.3354Y0.8201
X-0.3315Y-0.8335
X-0.2693Y0.6939
X-0.2693Y-0.6949
X-0.2362Y1.6309
X-0.2362Y1.3612
X-0.2362Y-1.3612
X-0.2362Y-1.6309
X-0.2039Y0.6547
X-0.2016Y0.8201
X-0.2011Y-0.655
X-0.1976Y-0.8335
X-0.1343Y0.6939
X-0.1343Y-0.6949
X-0.0787Y1.6309
X-0.0787Y1.3612
X-0.0787Y-1.3612
X-0.0787Y-1.6309
X-0.0689Y0.6547
X-0.0673Y0.8201
X-0.0661Y-0.655
X-0.0638Y-0.8335
X-0.0268Y0.6939
X-0.0264Y-0.6949
X0.0268Y0.6939
X0.0272Y-0.6929
X0.0661Y0.6547
X0.0661Y0.8201
X0.0689Y-0.655
X0.0701Y-0.8335
X0.0787Y1.6309
X0.0787Y1.3612
X0.0787Y-1.3612
X0.0787Y-1.6309
X0.1339Y-0.6949
X0.1343Y0.6939
X0.2011Y0.6547
X0.2039Y-0.655
X0.2043Y0.8201
X0.2083Y-0.8335
X0.2362Y1.6309
X0.2362Y1.3612
X0.2362Y-1.3612
X0.2362Y-1.6309
X0.2693Y0.6939
X0.2697Y-0.6949
X0.3361Y0.6547
X0.3382Y0.8201
X0.3389Y-0.655
X0.3417Y-0.8335
X0.3937Y1.6309
X0.3937Y1.3612
X0.3937Y-1.3612
X0.3937Y-1.6309
X0.4043Y0.6939
X0.4047Y-0.6949
X0.471Y0.6547
X0.4717Y0.8201
X0.4738Y-0.655
X0.4756Y-0.8335
X0.5394Y0.6939
X0.5394Y-0.6949
X0.5512Y1.6309
X0.5512Y1.3612
X0.5512Y-1.3612
X0.5512Y-1.6309
X0.6496Y0.471
X0.6496Y0.3361
X0.6496Y0.2011
X0.6496Y0.0661
X0.6496Y-0.0689
X0.6496Y-0.2039
X0.6496Y-0.3389
X0.6496Y-0.4738
X0.6941Y0.5394
X0.6941Y0.4045
X0.6941Y0.2697
X0.6941Y0.1343
X0.6941Y0.0268
X0.6941Y-0.0272
X0.6941Y-0.1343
X0.6941Y-0.2693
X0.6941Y-0.4043
X0.6941Y-0.5394
X0.82Y0.5236
X0.82Y0.3386
X0.8201Y0.2047
X0.8201Y0.0669
X0.8201Y-0.0787
X0.8201Y-0.2008
X0.8201Y-0.3465
X0.8201Y-0.5079
X1.3184Y-0.7377
X1.3189Y0.3652
X1.3189Y-0.3829
X1.3189Y-0.4222
X1.3189Y-0.4616
X1.3189Y-0.501
X1.3189Y-0.5404
X1.3189Y-0.5797
X1.3189Y-0.6191
X1.3189Y-0.6585
X1.3189Y-0.6978
X1.3194Y0.72
X1.3194Y0.6806
X1.3194Y0.6412
X1.3194Y0.6019
X1.3194Y0.5625
X1.3194Y0.5231
X1.3194Y0.4838
X1.3194Y0.4444
X1.3194Y0.405
T3
X-1.439Y0.8455
X-1.439Y0.2569
X-1.439Y-0.2569
X-1.439Y-0.8455
X1.439Y0.8455
X1.439Y0.2569
X1.439Y-0.2569
X1.439Y-0.8455
T4
X-0.9843Y1.7717
X-0.9843Y-1.7717
X-0.689Y0.9843
X-0.689Y0.7874
X-0.689Y-0.7874
X-0.689Y-0.9843
X0.689Y0.9843
X0.689Y0.7874
X0.689Y-0.7874
X0.689Y-0.9843
X0.9843Y1.7717
X0.9843Y-1.7717
T0
M30
