%TF.GenerationSoftware,KiCad,Pcbnew,7.0.2*%
%TF.CreationDate,2023-10-10T18:20:49-06:00*%
%TF.ProjectId,igloo30,69676c6f-6f33-4302-9e6b-696361645f70,rev?*%
%TF.SameCoordinates,Original*%
%TF.FileFunction,Soldermask,Bot*%
%TF.FilePolarity,Negative*%
%FSLAX46Y46*%
G04 Gerber Fmt 4.6, Leading zero omitted, Abs format (unit mm)*
G04 Created by KiCad (PCBNEW 7.0.2) date 2023-10-10 18:20:49*
%MOMM*%
%LPD*%
G01*
G04 APERTURE LIST*
%ADD10C,0.200000*%
%ADD11C,0.150000*%
%ADD12C,1.450000*%
%ADD13C,1.500000*%
%ADD14C,1.420000*%
%ADD15C,3.680000*%
%ADD16C,2.080000*%
G04 APERTURE END LIST*
D10*
X32770000Y19820000D02*
X23610000Y19880000D01*
X22540000Y18770000D01*
X18780000Y18670000D01*
X18250000Y18530000D01*
X17830000Y18300000D01*
X16730000Y18300000D01*
X16250000Y18820000D01*
X14230000Y20770000D01*
X14400000Y30200000D01*
X32940000Y30200000D01*
X32770000Y19820000D01*
G36*
X32770000Y19820000D02*
G01*
X23610000Y19880000D01*
X22540000Y18770000D01*
X18780000Y18670000D01*
X18250000Y18530000D01*
X17830000Y18300000D01*
X16730000Y18300000D01*
X16250000Y18820000D01*
X14230000Y20770000D01*
X14400000Y30200000D01*
X32940000Y30200000D01*
X32770000Y19820000D01*
G37*
D11*
X18500000Y55000000D02*
X41000000Y55000000D01*
X41000000Y37500000D01*
X18500000Y37500000D01*
X18500000Y55000000D01*
G36*
X18500000Y55000000D02*
G01*
X41000000Y55000000D01*
X41000000Y37500000D01*
X18500000Y37500000D01*
X18500000Y55000000D01*
G37*
X-39000000Y55000000D02*
X-18500000Y55000000D01*
X-18500000Y37500000D01*
X-39000000Y37500000D01*
X-39000000Y55000000D01*
G36*
X-39000000Y55000000D02*
G01*
X-18500000Y55000000D01*
X-18500000Y37500000D01*
X-39000000Y37500000D01*
X-39000000Y55000000D01*
G37*
D10*
X-16720000Y-18450000D02*
X-14700000Y-20400000D01*
X-14870000Y-29830000D01*
X-33410000Y-29830000D01*
X-33240000Y-19450000D01*
X-24080000Y-19510000D01*
X-23000000Y-18300000D01*
X-19250000Y-18300000D01*
X-18720000Y-18160000D01*
X-18300000Y-17930000D01*
X-17200000Y-17930000D01*
X-16720000Y-18450000D01*
G36*
X-16720000Y-18450000D02*
G01*
X-14700000Y-20400000D01*
X-14870000Y-29830000D01*
X-33410000Y-29830000D01*
X-33240000Y-19450000D01*
X-24080000Y-19510000D01*
X-23000000Y-18300000D01*
X-19250000Y-18300000D01*
X-18720000Y-18160000D01*
X-18300000Y-17930000D01*
X-17200000Y-17930000D01*
X-16720000Y-18450000D01*
G37*
D11*
X-39000000Y-37500000D02*
X-18500000Y-37500000D01*
X-18500000Y-55000000D01*
X-39000000Y-55000000D01*
X-39000000Y-37500000D01*
G36*
X-39000000Y-37500000D02*
G01*
X-18500000Y-37500000D01*
X-18500000Y-55000000D01*
X-39000000Y-55000000D01*
X-39000000Y-37500000D01*
G37*
X29960341Y-16879984D02*
X41037890Y-30430593D01*
X13900000Y-30430593D01*
X13900000Y-19880593D01*
X17000000Y-16800000D01*
X29960341Y-16879984D01*
G36*
X29960341Y-16879984D02*
G01*
X41037890Y-30430593D01*
X13900000Y-30430593D01*
X13900000Y-19880593D01*
X17000000Y-16800000D01*
X29960341Y-16879984D01*
G37*
X18500000Y-37500000D02*
X41000000Y-37500000D01*
X41000000Y-55000000D01*
X18500000Y-55000000D01*
X18500000Y-37500000D01*
G36*
X18500000Y-37500000D02*
G01*
X41000000Y-37500000D01*
X41000000Y-55000000D01*
X18500000Y-55000000D01*
X18500000Y-37500000D01*
G37*
X-12300000Y30964771D02*
X-12300000Y20414771D01*
X-15400000Y17334178D01*
X-30900000Y17300000D01*
X-39294355Y31032901D01*
X-12300000Y30964771D01*
G36*
X-12300000Y30964771D02*
G01*
X-12300000Y20414771D01*
X-15400000Y17334178D01*
X-30900000Y17300000D01*
X-39294355Y31032901D01*
X-12300000Y30964771D01*
G37*
D12*
%TO.C,J12*%
X38550000Y-20000000D03*
X38550000Y-8000000D03*
D13*
X36550000Y-21475000D03*
X36550000Y-6525000D03*
%TD*%
D12*
%TO.C,J11*%
X-38550000Y20000000D03*
X-38550000Y8000000D03*
D13*
X-36550000Y21475000D03*
X-36550000Y6525000D03*
%TD*%
D12*
%TO.C,J7*%
X38550000Y8000000D03*
X38550000Y20000000D03*
D13*
X36550000Y6525000D03*
X36550000Y21475000D03*
%TD*%
D14*
%TO.C,J3*%
X-15400000Y38000000D03*
D15*
X-8000000Y38000000D03*
X8000000Y38000000D03*
D16*
X15400000Y38000000D03*
%TD*%
D12*
%TO.C,J9*%
X-38550000Y-8000000D03*
X-38550000Y-20000000D03*
D13*
X-36550000Y-6525000D03*
X-36550000Y-21475000D03*
%TD*%
D14*
%TO.C,J4*%
X15400000Y-38000000D03*
D15*
X8000000Y-38000000D03*
X-8000000Y-38000000D03*
D16*
X-15400000Y-38000000D03*
%TD*%
M02*
