M48
; DRILL file {KiCad 7.0.9} date Thu Aug 22 14:34:19 2024
; FORMAT={-:-/ absolute / inch / decimal}
; #@! TF.CreationDate,2024-08-22T14:34:19-06:00
; #@! TF.GenerationSoftware,Kicad,Pcbnew,7.0.9
; #@! TF.FileFunction,NonPlated,1,4,NPTH
FMAT,2
INCH
; #@! TA.AperFunction,NonPlated,NPTH,ComponentDrill
T1C0.0559
; #@! TA.AperFunction,NonPlated,NPTH,ComponentDrill
T2C0.0571
; #@! TA.AperFunction,NonPlated,NPTH,ComponentDrill
T3C0.0819
; #@! TA.AperFunction,NonPlated,NPTH,ComponentDrill
T4C0.1449
%
G90
G05
T1
X-0.6063Y1.4961
X0.6063Y-1.4961
T2
X-1.5177Y1.6457
X-1.5177Y1.1732
X-1.5177Y0.7874
X-1.5177Y0.315
X-1.5177Y-0.315
X-1.5177Y-0.7874
X1.5177Y0.7874
X1.5177Y0.315
X1.5177Y-0.315
X1.5177Y-0.7874
X1.5177Y-1.185
X1.5177Y-1.6575
T3
X-0.6063Y-1.4961
X0.6063Y1.4961
T4
X-0.315Y1.4961
X-0.315Y-1.4961
X0.315Y1.4961
X0.315Y-1.4961
T0
M30
