%TF.GenerationSoftware,KiCad,Pcbnew,7.0.9*%
%TF.CreationDate,2024-08-22T14:26:55-06:00*%
%TF.ProjectId,igloo34,69676c6f-6f33-4342-9e6b-696361645f70,rev?*%
%TF.SameCoordinates,Original*%
%TF.FileFunction,Paste,Top*%
%TF.FilePolarity,Positive*%
%FSLAX46Y46*%
G04 Gerber Fmt 4.6, Leading zero omitted, Abs format (unit mm)*
G04 Created by KiCad (PCBNEW 7.0.9) date 2024-08-22 14:26:55*
%MOMM*%
%LPD*%
G01*
G04 APERTURE LIST*
%ADD10C,1.000000*%
%ADD11C,0.560000*%
%ADD12R,1.500000X0.300000*%
%ADD13R,0.750000X0.500000*%
%ADD14R,0.500000X0.750000*%
G04 APERTURE END LIST*
D10*
%TO.C,J20*%
X37050000Y-43575000D02*
G75*
G03*
X37050000Y-43575000I-500000J0D01*
G01*
X37050000Y-28625000D02*
G75*
G03*
X37050000Y-28625000I-500000J0D01*
G01*
%TO.C,J8*%
X37050000Y6525000D02*
G75*
G03*
X37050000Y6525000I-500000J0D01*
G01*
X37050000Y21475000D02*
G75*
G03*
X37050000Y21475000I-500000J0D01*
G01*
%TO.C,J12*%
X-36050000Y21475000D02*
G75*
G03*
X-36050000Y21475000I-500000J0D01*
G01*
X-36050000Y6525000D02*
G75*
G03*
X-36050000Y6525000I-500000J0D01*
G01*
%TO.C,J15*%
X-36050000Y43275000D02*
G75*
G03*
X-36050000Y43275000I-500000J0D01*
G01*
X-36050000Y28325000D02*
G75*
G03*
X-36050000Y28325000I-500000J0D01*
G01*
%TO.C,J7*%
X-36050000Y-6525000D02*
G75*
G03*
X-36050000Y-6525000I-500000J0D01*
G01*
X-36050000Y-21475000D02*
G75*
G03*
X-36050000Y-21475000I-500000J0D01*
G01*
%TO.C,J11*%
X37050000Y-21475000D02*
G75*
G03*
X37050000Y-21475000I-500000J0D01*
G01*
X37050000Y-6525000D02*
G75*
G03*
X37050000Y-6525000I-500000J0D01*
G01*
%TD*%
D11*
%TO.C,J3*%
X14000000Y34575000D03*
X10000000Y34575000D03*
X6000000Y34575000D03*
X2000000Y34575000D03*
X-2000000Y34575000D03*
X-6000000Y34575000D03*
X-10000000Y34575000D03*
X-14000000Y34575000D03*
X14000000Y41425000D03*
X10000000Y41425000D03*
X6000000Y41425000D03*
X2000000Y41425000D03*
X-2000000Y41425000D03*
X-6000000Y41425000D03*
X-10000000Y41425000D03*
X-14000000Y41425000D03*
%TD*%
D12*
%TO.C,J20*%
X39550000Y-31350000D03*
X35850000Y-31350000D03*
X39550000Y-31850000D03*
X35850000Y-31850000D03*
X39550000Y-32350000D03*
X35850000Y-32350000D03*
X39550000Y-32850000D03*
X35850000Y-32850000D03*
X39550000Y-33350000D03*
X35850000Y-33350000D03*
X39550000Y-33850000D03*
X35850000Y-33850000D03*
X39550000Y-34350000D03*
X35850000Y-34350000D03*
X39550000Y-34850000D03*
X35850000Y-34850000D03*
X39550000Y-35350000D03*
X35850000Y-35350000D03*
X39550000Y-35850000D03*
X35850000Y-35850000D03*
X39550000Y-36350000D03*
X35850000Y-36350000D03*
X39550000Y-36850000D03*
X35850000Y-36850000D03*
X39550000Y-37350000D03*
X35850000Y-37350000D03*
X39550000Y-37850000D03*
X35850000Y-37850000D03*
X39550000Y-38350000D03*
X35850000Y-38350000D03*
X39550000Y-38850000D03*
X35850000Y-38850000D03*
X39550000Y-39350000D03*
X35850000Y-39350000D03*
X39550000Y-39850000D03*
X35850000Y-39850000D03*
X39550000Y-40350000D03*
X35850000Y-40350000D03*
X39550000Y-40850000D03*
X35850000Y-40850000D03*
%TD*%
D13*
%TO.C,J21*%
X9250000Y-5430000D03*
X9250000Y-6068000D03*
%TD*%
D14*
%TO.C,J17*%
X-6060000Y9250000D03*
X-5422000Y9250000D03*
%TD*%
%TO.C,J6*%
X6702500Y-8750000D03*
X4787500Y-8750000D03*
X2872500Y-8750000D03*
X957500Y-8750000D03*
X-957500Y-8750000D03*
X-2872500Y-8750000D03*
X-4787500Y-8750000D03*
X-6702500Y-8750000D03*
%TD*%
D13*
%TO.C,J24*%
X-9250000Y-6070000D03*
X-9250000Y-5432000D03*
%TD*%
D12*
%TO.C,J8*%
X39550000Y18750000D03*
X35850000Y18750000D03*
X39550000Y18250000D03*
X35850000Y18250000D03*
X39550000Y17750000D03*
X35850000Y17750000D03*
X39550000Y17250000D03*
X35850000Y17250000D03*
X39550000Y16750000D03*
X35850000Y16750000D03*
X39550000Y16250000D03*
X35850000Y16250000D03*
X39550000Y15750000D03*
X35850000Y15750000D03*
X39550000Y15250000D03*
X35850000Y15250000D03*
X39550000Y14750000D03*
X35850000Y14750000D03*
X39550000Y14250000D03*
X35850000Y14250000D03*
X39550000Y13750000D03*
X35850000Y13750000D03*
X39550000Y13250000D03*
X35850000Y13250000D03*
X39550000Y12750000D03*
X35850000Y12750000D03*
X39550000Y12250000D03*
X35850000Y12250000D03*
X39550000Y11750000D03*
X35850000Y11750000D03*
X39550000Y11250000D03*
X35850000Y11250000D03*
X39550000Y10750000D03*
X35850000Y10750000D03*
X39550000Y10250000D03*
X35850000Y10250000D03*
X39550000Y9750000D03*
X35850000Y9750000D03*
X39550000Y9250000D03*
X35850000Y9250000D03*
%TD*%
D14*
%TO.C,J18*%
X5420000Y9250000D03*
X6058000Y9250000D03*
%TD*%
D13*
%TO.C,J19*%
X9250000Y6060000D03*
X9250000Y5422000D03*
%TD*%
D12*
%TO.C,J12*%
X-39550000Y9250000D03*
X-35850000Y9250000D03*
X-39550000Y9750000D03*
X-35850000Y9750000D03*
X-39550000Y10250000D03*
X-35850000Y10250000D03*
X-39550000Y10750000D03*
X-35850000Y10750000D03*
X-39550000Y11250000D03*
X-35850000Y11250000D03*
X-39550000Y11750000D03*
X-35850000Y11750000D03*
X-39550000Y12250000D03*
X-35850000Y12250000D03*
X-39550000Y12750000D03*
X-35850000Y12750000D03*
X-39550000Y13250000D03*
X-35850000Y13250000D03*
X-39550000Y13750000D03*
X-35850000Y13750000D03*
X-39550000Y14250000D03*
X-35850000Y14250000D03*
X-39550000Y14750000D03*
X-35850000Y14750000D03*
X-39550000Y15250000D03*
X-35850000Y15250000D03*
X-39550000Y15750000D03*
X-35850000Y15750000D03*
X-39550000Y16250000D03*
X-35850000Y16250000D03*
X-39550000Y16750000D03*
X-35850000Y16750000D03*
X-39550000Y17250000D03*
X-35850000Y17250000D03*
X-39550000Y17750000D03*
X-35850000Y17750000D03*
X-39550000Y18250000D03*
X-35850000Y18250000D03*
X-39550000Y18750000D03*
X-35850000Y18750000D03*
%TD*%
%TO.C,J15*%
X-39550000Y31050000D03*
X-35850000Y31050000D03*
X-39550000Y31550000D03*
X-35850000Y31550000D03*
X-39550000Y32050000D03*
X-35850000Y32050000D03*
X-39550000Y32550000D03*
X-35850000Y32550000D03*
X-39550000Y33050000D03*
X-35850000Y33050000D03*
X-39550000Y33550000D03*
X-35850000Y33550000D03*
X-39550000Y34050000D03*
X-35850000Y34050000D03*
X-39550000Y34550000D03*
X-35850000Y34550000D03*
X-39550000Y35050000D03*
X-35850000Y35050000D03*
X-39550000Y35550000D03*
X-35850000Y35550000D03*
X-39550000Y36050000D03*
X-35850000Y36050000D03*
X-39550000Y36550000D03*
X-35850000Y36550000D03*
X-39550000Y37050000D03*
X-35850000Y37050000D03*
X-39550000Y37550000D03*
X-35850000Y37550000D03*
X-39550000Y38050000D03*
X-35850000Y38050000D03*
X-39550000Y38550000D03*
X-35850000Y38550000D03*
X-39550000Y39050000D03*
X-35850000Y39050000D03*
X-39550000Y39550000D03*
X-35850000Y39550000D03*
X-39550000Y40050000D03*
X-35850000Y40050000D03*
X-39550000Y40550000D03*
X-35850000Y40550000D03*
%TD*%
D13*
%TO.C,J2*%
X8750000Y-6702500D03*
X8750000Y-4787500D03*
X8750000Y-2872500D03*
X8750000Y-957500D03*
X8750000Y957500D03*
X8750000Y2872500D03*
X8750000Y4787500D03*
X8750000Y6702500D03*
%TD*%
D14*
%TO.C,J23*%
X-5430000Y-9250000D03*
X-6068000Y-9250000D03*
%TD*%
%TO.C,J22*%
X6060000Y-9250000D03*
X5422000Y-9250000D03*
%TD*%
%TO.C,J5*%
X-6702500Y8750000D03*
X-4787500Y8750000D03*
X-2872500Y8750000D03*
X-957500Y8750000D03*
X957500Y8750000D03*
X2872500Y8750000D03*
X4787500Y8750000D03*
X6702500Y8750000D03*
%TD*%
D13*
%TO.C,J16*%
X-9250000Y5430000D03*
X-9250000Y6068000D03*
%TD*%
D12*
%TO.C,J7*%
X-39550000Y-18750000D03*
X-35850000Y-18750000D03*
X-39550000Y-18250000D03*
X-35850000Y-18250000D03*
X-39550000Y-17750000D03*
X-35850000Y-17750000D03*
X-39550000Y-17250000D03*
X-35850000Y-17250000D03*
X-39550000Y-16750000D03*
X-35850000Y-16750000D03*
X-39550000Y-16250000D03*
X-35850000Y-16250000D03*
X-39550000Y-15750000D03*
X-35850000Y-15750000D03*
X-39550000Y-15250000D03*
X-35850000Y-15250000D03*
X-39550000Y-14750000D03*
X-35850000Y-14750000D03*
X-39550000Y-14250000D03*
X-35850000Y-14250000D03*
X-39550000Y-13750000D03*
X-35850000Y-13750000D03*
X-39550000Y-13250000D03*
X-35850000Y-13250000D03*
X-39550000Y-12750000D03*
X-35850000Y-12750000D03*
X-39550000Y-12250000D03*
X-35850000Y-12250000D03*
X-39550000Y-11750000D03*
X-35850000Y-11750000D03*
X-39550000Y-11250000D03*
X-35850000Y-11250000D03*
X-39550000Y-10750000D03*
X-35850000Y-10750000D03*
X-39550000Y-10250000D03*
X-35850000Y-10250000D03*
X-39550000Y-9750000D03*
X-35850000Y-9750000D03*
X-39550000Y-9250000D03*
X-35850000Y-9250000D03*
%TD*%
%TO.C,J11*%
X39550000Y-9250000D03*
X35850000Y-9250000D03*
X39550000Y-9750000D03*
X35850000Y-9750000D03*
X39550000Y-10250000D03*
X35850000Y-10250000D03*
X39550000Y-10750000D03*
X35850000Y-10750000D03*
X39550000Y-11250000D03*
X35850000Y-11250000D03*
X39550000Y-11750000D03*
X35850000Y-11750000D03*
X39550000Y-12250000D03*
X35850000Y-12250000D03*
X39550000Y-12750000D03*
X35850000Y-12750000D03*
X39550000Y-13250000D03*
X35850000Y-13250000D03*
X39550000Y-13750000D03*
X35850000Y-13750000D03*
X39550000Y-14250000D03*
X35850000Y-14250000D03*
X39550000Y-14750000D03*
X35850000Y-14750000D03*
X39550000Y-15250000D03*
X35850000Y-15250000D03*
X39550000Y-15750000D03*
X35850000Y-15750000D03*
X39550000Y-16250000D03*
X35850000Y-16250000D03*
X39550000Y-16750000D03*
X35850000Y-16750000D03*
X39550000Y-17250000D03*
X35850000Y-17250000D03*
X39550000Y-17750000D03*
X35850000Y-17750000D03*
X39550000Y-18250000D03*
X35850000Y-18250000D03*
X39550000Y-18750000D03*
X35850000Y-18750000D03*
%TD*%
D14*
%TO.C,J10*%
X-4147000Y9250000D03*
X-3509000Y9250000D03*
X-2233000Y9250000D03*
X-1595000Y9250000D03*
X-319000Y9250000D03*
X319000Y9250000D03*
X1595000Y9250000D03*
X2233000Y9250000D03*
X3509000Y9250000D03*
X4147000Y9250000D03*
%TD*%
D13*
%TO.C,J14*%
X-9250000Y-4147000D03*
X-9250000Y-3509000D03*
X-9250000Y-2233000D03*
X-9250000Y-1595000D03*
X-9250000Y-319000D03*
X-9250000Y319000D03*
X-9250000Y1595000D03*
X-9250000Y2233000D03*
X-9250000Y3509000D03*
X-9250000Y4147000D03*
%TD*%
D14*
%TO.C,J9*%
X4147000Y-9250000D03*
X3509000Y-9250000D03*
X2233000Y-9250000D03*
X1595000Y-9250000D03*
X319000Y-9250000D03*
X-319000Y-9250000D03*
X-1595000Y-9250000D03*
X-2233000Y-9250000D03*
X-3509000Y-9250000D03*
X-4147000Y-9250000D03*
%TD*%
D11*
%TO.C,J4*%
X14000000Y-41425000D03*
X10000000Y-41425000D03*
X6000000Y-41425000D03*
X2000000Y-41425000D03*
X-2000000Y-41425000D03*
X-6000000Y-41425000D03*
X-10000000Y-41425000D03*
X-14000000Y-41425000D03*
X14000000Y-34575000D03*
X10000000Y-34575000D03*
X6000000Y-34575000D03*
X2000000Y-34575000D03*
X-2000000Y-34575000D03*
X-6000000Y-34575000D03*
X-10000000Y-34575000D03*
X-14000000Y-34575000D03*
%TD*%
D13*
%TO.C,J1*%
X-8750000Y6702500D03*
X-8750000Y4787500D03*
X-8750000Y2872500D03*
X-8750000Y957500D03*
X-8750000Y-957500D03*
X-8750000Y-2872500D03*
X-8750000Y-4787500D03*
X-8750000Y-6702500D03*
%TD*%
%TO.C,J13*%
X9250000Y4147000D03*
X9250000Y3509000D03*
X9250000Y2233000D03*
X9250000Y1595000D03*
X9250000Y319000D03*
X9250000Y-319000D03*
X9250000Y-1595000D03*
X9250000Y-2233000D03*
X9250000Y-3509000D03*
X9250000Y-4147000D03*
%TD*%
M02*
