M48
; DRILL file {KiCad 7.0.9} date Thu Aug 22 14:34:19 2024
; FORMAT={-:-/ absolute / inch / decimal}
; #@! TF.CreationDate,2024-08-22T14:34:19-06:00
; #@! TF.GenerationSoftware,Kicad,Pcbnew,7.0.9
; #@! TF.FileFunction,Plated,1,4,PTH
FMAT,2
INCH
; #@! TA.AperFunction,Plated,PTH,ViaDrill
T1C0.0079
; #@! TA.AperFunction,Plated,PTH,ViaDrill
T2C0.0157
; #@! TA.AperFunction,Plated,PTH,ComponentDrill
T3C0.0197
; #@! TA.AperFunction,Plated,PTH,ComponentDrill
T4C0.0394
; #@! TA.AperFunction,Plated,PTH,ViaDrill
T5C0.1181
%
G90
G05
T1
X-1.4803Y0.1122
X-1.4547Y1.0
X-1.3524Y1.498
X-1.3524Y1.4587
X-1.3524Y1.4193
X-1.3524Y1.3799
X-1.3524Y1.3406
X-1.3524Y1.3012
X-1.3524Y1.2618
X-1.3524Y1.2224
X-1.3492Y-0.3835
X-1.3492Y-0.4228
X-1.3492Y-0.4622
X-1.3492Y-0.5016
X-1.3492Y-0.5409
X-1.3492Y-0.5803
X-1.3492Y-0.6197
X-1.3492Y-0.6591
X-1.3492Y-0.6984
X-1.3492Y-0.7378
X-1.3484Y0.7185
X-1.3484Y0.6791
X-1.3484Y0.6398
X-1.3484Y0.6004
X-1.3484Y0.561
X-1.3484Y0.5217
X-1.3484Y0.4823
X-1.3484Y0.4429
X-1.3484Y0.4035
X-1.3484Y0.3642
X-1.3091Y-1.2953
X-1.1299Y1.6181
X-0.7657Y-1.3012
X-0.7461Y1.3858
X-0.6319Y0.2264
X-0.5509Y0.3824
X-0.5397Y0.3985
X-0.5258Y0.4125
X-0.5133Y0.4276
X-0.5007Y0.4427
X-0.4881Y0.4578
X-0.4757Y0.4731
X-0.4646Y0.3228
X-0.4626Y-0.311
X-0.4618Y0.487
X-0.4272Y-0.7972
X-0.4193Y0.872
X-0.3787Y0.2389
X-0.3787Y0.1635
X-0.3787Y0.0882
X-0.3787Y0.0128
X-0.3787Y-0.0625
X-0.3787Y-0.1379
X-0.3787Y-0.2132
X-0.378Y0.2138
X-0.378Y0.1384
X-0.378Y0.0631
X-0.378Y-0.0123
X-0.378Y-0.0876
X-0.378Y-0.163
X-0.378Y-0.2383
X-0.372Y0.3465
X-0.3583Y0.2639
X-0.3583Y0.1885
X-0.3583Y0.1131
X-0.3583Y0.0377
X-0.3583Y-0.0377
X-0.3583Y-0.1131
X-0.3583Y-0.1885
X-0.3583Y-0.2639
X-0.3169Y-0.3602
X-0.2639Y0.3583
X-0.2639Y-0.3583
X-0.2389Y-0.378
X-0.2386Y0.378
X-0.2138Y-0.378
X-0.2135Y0.378
X-0.2126Y0.4075
X-0.1885Y0.3583
X-0.1885Y-0.3583
X-0.1635Y-0.378
X-0.1632Y0.378
X-0.1384Y-0.378
X-0.1381Y0.378
X-0.1131Y0.3583
X-0.1131Y-0.3583
X-0.0882Y-0.378
X-0.0879Y0.378
X-0.0631Y-0.378
X-0.0628Y0.378
X-0.0377Y0.3583
X-0.0377Y-0.3583
X-0.0128Y-0.378
X-0.0125Y0.378
X0.0123Y-0.378
X0.0126Y0.378
X0.0377Y0.3583
X0.0377Y-0.3583
X0.0625Y-0.378
X0.0628Y0.378
X0.0876Y-0.378
X0.088Y0.378
X0.1063Y-1.9035
X0.1131Y0.3583
X0.1131Y-0.3583
X0.1379Y-0.378
X0.1382Y0.378
X0.1555Y1.8504
X0.163Y-0.378
X0.1633Y0.378
X0.1885Y0.3583
X0.1885Y-0.3583
X0.2132Y-0.378
X0.2135Y0.378
X0.2383Y-0.378
X0.2387Y0.378
X0.2639Y0.3583
X0.2639Y-0.3583
X0.313Y0.3701
X0.3287Y-0.4646
X0.3346Y-0.4272
X0.3583Y0.2639
X0.3583Y0.1885
X0.3583Y0.1131
X0.3583Y0.0377
X0.3583Y-0.0377
X0.3583Y-0.1131
X0.3583Y-0.1885
X0.3583Y-0.2639
X0.378Y0.3622
X0.378Y0.2386
X0.378Y0.2135
X0.378Y0.1632
X0.378Y0.1381
X0.378Y0.0879
X0.378Y0.0628
X0.378Y0.0125
X0.378Y-0.0126
X0.378Y-0.0628
X0.378Y-0.088
X0.378Y-0.1382
X0.378Y-0.1633
X0.378Y-0.2135
X0.378Y-0.2387
X0.3858Y-0.3248
X0.4291Y-0.8228
X0.437Y0.9232
X0.4902Y-0.5236
X0.5035Y-0.5091
X0.5157Y-0.2933
X0.5166Y-0.4945
X0.5296Y-0.4798
X0.5438Y-0.4662
X0.5576Y-0.4521
X0.5689Y-0.4361
X0.581Y-0.4206
X0.75Y-1.4055
X0.7539Y1.3445
X1.25Y-1.063
X1.3287Y1.5492
X1.3524Y0.7382
X1.3524Y0.6988
X1.3524Y0.6594
X1.3524Y0.6201
X1.3524Y0.5807
X1.3524Y0.5413
X1.3524Y0.502
X1.3524Y0.4626
X1.3524Y0.4232
X1.3524Y0.3839
X1.3524Y-0.3642
X1.3524Y-0.4035
X1.3524Y-0.4429
X1.3524Y-0.4823
X1.3524Y-0.5217
X1.3524Y-0.561
X1.3524Y-0.6004
X1.3524Y-0.6398
X1.3524Y-0.6791
X1.3524Y-0.7185
X1.3524Y-1.2343
X1.3524Y-1.2736
X1.3524Y-1.313
X1.3524Y-1.3524
X1.3524Y-1.3917
X1.3524Y-1.4311
X1.3524Y-1.4705
X1.3524Y-1.5098
X1.4803Y0.1417
T2
X-0.5512Y1.6309
X-0.5512Y1.3612
X-0.5512Y-1.3612
X-0.5512Y-1.6309
X-0.3937Y1.6309
X-0.3937Y1.3612
X-0.3937Y-1.3612
X-0.3937Y-1.6309
X-0.2362Y1.6309
X-0.2362Y1.3612
X-0.2362Y-1.3612
X-0.2362Y-1.6309
X-0.0787Y1.6309
X-0.0787Y1.3612
X-0.0787Y-1.3612
X-0.0787Y-1.6309
X0.0787Y1.6309
X0.0787Y1.3612
X0.0787Y-1.3612
X0.0787Y-1.6309
X0.2362Y1.6309
X0.2362Y1.3612
X0.2362Y-1.3612
X0.2362Y-1.6309
X0.3937Y1.6309
X0.3937Y1.3612
X0.3937Y-1.3612
X0.3937Y-1.6309
X0.5512Y1.6309
X0.5512Y1.3612
X0.5512Y-1.3612
X0.5512Y-1.6309
T3
X-0.7776Y0.2638
X-0.7776Y0.1886
X-0.7776Y0.113
X-0.7776Y0.0378
X-0.7776Y-0.113
X-0.7776Y-0.1886
X-0.7776Y-0.2638
X-0.7774Y-0.0378
X-0.2638Y0.8071
X-0.2638Y-0.8071
X-0.1882Y0.8071
X-0.1882Y-0.8071
X-0.113Y0.8071
X-0.113Y-0.8071
X-0.0378Y0.8071
X-0.0378Y-0.8071
X0.0378Y0.8071
X0.0378Y-0.8071
X0.1134Y0.8071
X0.1134Y-0.8071
X0.1886Y0.8071
X0.1886Y-0.8071
X0.2638Y0.8071
X0.2638Y-0.8071
X0.7776Y0.2638
X0.7776Y0.1886
X0.7776Y0.113
X0.7776Y0.0378
X0.7776Y-0.0378
X0.7776Y-0.113
X0.7776Y-0.1886
X0.7776Y-0.2638
T4
X-1.439Y1.7037
X-1.439Y1.1152
X-1.439Y0.8455
X-1.439Y0.2569
X-1.439Y-0.2569
X-1.439Y-0.8455
X1.439Y0.8455
X1.439Y0.2569
X1.439Y-0.2569
X1.439Y-0.8455
X1.439Y-1.127
X1.439Y-1.7156
T5
X-0.9843Y1.7717
X-0.9843Y-1.7717
X-0.689Y0.9843
X-0.689Y0.7874
X-0.689Y-0.7874
X-0.689Y-0.9843
X0.689Y0.9843
X0.689Y0.7874
X0.689Y-0.7874
X0.689Y-0.9843
X0.9843Y1.7717
X0.9843Y-1.7717
T0
M30
