%TF.GenerationSoftware,KiCad,Pcbnew,7.0.9*%
%TF.CreationDate,2024-08-22T14:34:19-06:00*%
%TF.ProjectId,igloo34,69676c6f-6f33-4342-9e6b-696361645f70,rev?*%
%TF.SameCoordinates,Original*%
%TF.FileFunction,Copper,L3,Inr*%
%TF.FilePolarity,Positive*%
%FSLAX46Y46*%
G04 Gerber Fmt 4.6, Leading zero omitted, Abs format (unit mm)*
G04 Created by KiCad (PCBNEW 7.0.9) date 2024-08-22 14:34:19*
%MOMM*%
%LPD*%
G01*
G04 APERTURE LIST*
%TA.AperFunction,ComponentPad*%
%ADD10C,1.000000*%
%TD*%
%TA.AperFunction,ComponentPad*%
%ADD11C,1.500000*%
%TD*%
%TA.AperFunction,ViaPad*%
%ADD12C,0.300000*%
%TD*%
%TA.AperFunction,ViaPad*%
%ADD13C,3.500000*%
%TD*%
%TA.AperFunction,ViaPad*%
%ADD14C,0.600000*%
%TD*%
%TA.AperFunction,Conductor*%
%ADD15C,0.250000*%
%TD*%
G04 APERTURE END LIST*
D10*
%TO.N,Net-(J1-Pin_1)*%
%TO.C,TP32*%
X-19750000Y6700000D03*
%TD*%
%TO.N,Net-(J1-Pin_2)*%
%TO.C,TP31*%
X-19750000Y4790000D03*
%TD*%
%TO.N,Net-(J1-Pin_3)*%
%TO.C,TP30*%
X-19750000Y2870000D03*
%TD*%
%TO.N,Net-(J1-Pin_4)*%
%TO.C,TP29*%
X-19750000Y960000D03*
%TD*%
%TO.N,Net-(J2-Pin_5)*%
%TO.C,TP28*%
X19750000Y960000D03*
%TD*%
%TO.N,Net-(J2-Pin_6)*%
%TO.C,TP27*%
X19750000Y2870000D03*
%TD*%
%TO.N,Net-(J2-Pin_7)*%
%TO.C,TP26*%
X19750000Y4790000D03*
%TD*%
%TO.N,Net-(J2-Pin_8)*%
%TO.C,TP25*%
X19750000Y6700000D03*
%TD*%
%TO.N,Net-(J2-Pin_1)*%
%TO.C,TP24*%
X19750000Y-6700000D03*
%TD*%
%TO.N,Net-(J2-Pin_2)*%
%TO.C,TP23*%
X19750000Y-4790000D03*
%TD*%
%TO.N,Net-(J2-Pin_3)*%
%TO.C,TP22*%
X19750000Y-2870000D03*
%TD*%
%TO.N,Net-(J2-Pin_4)*%
%TO.C,TP21*%
X19750000Y-960000D03*
%TD*%
%TO.N,Net-(J1-Pin_5)*%
%TO.C,TP20*%
X-19745000Y-960000D03*
%TD*%
%TO.N,Net-(J1-Pin_6)*%
%TO.C,TP19*%
X-19750000Y-2870000D03*
%TD*%
%TO.N,Net-(J1-Pin_7)*%
%TO.C,TP18*%
X-19750000Y-4790000D03*
%TD*%
%TO.N,Net-(J1-Pin_8)*%
%TO.C,TP17*%
X-19750000Y-6700000D03*
%TD*%
%TO.N,Net-(J5-Pin_8)*%
%TO.C,TP16*%
X6700000Y20500000D03*
%TD*%
%TO.N,Net-(J5-Pin_7)*%
%TO.C,TP15*%
X4790000Y20500000D03*
%TD*%
%TO.N,Net-(J5-Pin_6)*%
%TO.C,TP14*%
X2880000Y20500000D03*
%TD*%
%TO.N,Net-(J5-Pin_5)*%
%TO.C,TP13*%
X960000Y20500000D03*
%TD*%
%TO.N,Net-(J5-Pin_4)*%
%TO.C,TP12*%
X-960000Y20500000D03*
%TD*%
%TO.N,Net-(J5-Pin_3)*%
%TO.C,TP11*%
X-2870000Y20500000D03*
%TD*%
%TO.N,Net-(J5-Pin_2)*%
%TO.C,TP10*%
X-4780000Y20500000D03*
%TD*%
%TO.N,Net-(J5-Pin_1)*%
%TO.C,TP9*%
X-6700000Y20500000D03*
%TD*%
%TO.N,Net-(J6-Pin_8)*%
%TO.C,TP8*%
X-6700000Y-20500000D03*
%TD*%
%TO.N,Net-(J6-Pin_7)*%
%TO.C,TP7*%
X-4780000Y-20500000D03*
%TD*%
%TO.N,Net-(J6-Pin_6)*%
%TO.C,TP6*%
X-2870000Y-20500000D03*
%TD*%
%TO.N,Net-(J6-Pin_5)*%
%TO.C,TP5*%
X-960000Y-20500000D03*
%TD*%
%TO.N,Net-(J6-Pin_4)*%
%TO.C,TP4*%
X960000Y-20500000D03*
%TD*%
%TO.N,Net-(J6-Pin_3)*%
%TO.C,TP3*%
X2880000Y-20500000D03*
%TD*%
%TO.N,Net-(J6-Pin_1)*%
%TO.C,TP2*%
X6700000Y-20500000D03*
%TD*%
%TO.N,Net-(J6-Pin_2)*%
%TO.C,TP1*%
X4790000Y-20500000D03*
%TD*%
D11*
%TO.N,GND*%
%TO.C,J20*%
X36550000Y-43575000D03*
X36550000Y-28625000D03*
%TD*%
%TO.N,GND*%
%TO.C,J8*%
X36550000Y6525000D03*
X36550000Y21475000D03*
%TD*%
%TO.N,GND*%
%TO.C,J12*%
X-36550000Y21475000D03*
X-36550000Y6525000D03*
%TD*%
%TO.N,GND*%
%TO.C,J15*%
X-36550000Y43275000D03*
X-36550000Y28325000D03*
%TD*%
%TO.N,GND*%
%TO.C,J7*%
X-36550000Y-6525000D03*
X-36550000Y-21475000D03*
%TD*%
%TO.N,GND*%
%TO.C,J11*%
X36550000Y-21475000D03*
X36550000Y-6525000D03*
%TD*%
D12*
%TO.N,GND*%
X-5400000Y10350000D03*
X8350000Y-11800000D03*
X8500000Y-10850000D03*
X-11800000Y8200000D03*
X9600000Y9200000D03*
X11100000Y23450000D03*
X-10650000Y22150000D03*
X19150000Y34150000D03*
X-18950000Y35200000D03*
X-19450000Y-33050000D03*
X19050000Y-35700000D03*
X-36950000Y25400000D03*
X-16050000Y5750000D03*
X13100000Y-7450000D03*
X-37600000Y2850000D03*
X3950000Y47000000D03*
X2700000Y-48350000D03*
X-10850000Y-20250000D03*
X10900000Y-20900000D03*
X37600000Y3600000D03*
X33750000Y39350000D03*
X-28700000Y41100000D03*
X31750000Y-27000000D03*
X-33250000Y-32900000D03*
X-11750000Y-7900000D03*
X-8050000Y-9150000D03*
X9800000Y-8250000D03*
X7950000Y9400000D03*
X-9450000Y8800000D03*
D13*
X17500000Y-20000000D03*
X-17500000Y-20000000D03*
X17500000Y20000000D03*
X-17500000Y20000000D03*
X-17500000Y25000000D03*
X17500000Y25000000D03*
X-17500000Y-25000000D03*
X17500000Y-25000000D03*
X25000000Y-45000000D03*
X-25000000Y-45000000D03*
X25000000Y45000000D03*
X-25000000Y45000000D03*
D12*
%TO.N,Net-(J21-Pin_1)*%
X14758557Y-10682374D03*
%TO.N,Net-(J21-Pin_2)*%
X14450765Y-11075778D03*
%TO.N,Net-(J22-Pin_1)*%
X14162382Y-11483623D03*
%TO.N,Net-(J22-Pin_2)*%
X13813498Y-11841090D03*
%TO.N,Net-(J23-Pin_1)*%
X13452383Y-12186197D03*
%TO.N,Net-(J23-Pin_2)*%
X13122767Y-12561505D03*
%TO.N,Net-(J24-Pin_1)*%
X12788192Y-12932400D03*
%TO.N,Net-(J24-Pin_2)*%
X12450000Y-13300000D03*
%TO.N,Net-(J16-Pin_1)*%
X-13993331Y9712231D03*
%TO.N,Net-(J16-Pin_2)*%
X-13707502Y10121870D03*
%TO.N,Net-(J17-Pin_1)*%
X-13355565Y10476332D03*
%TO.N,Net-(J17-Pin_2)*%
X-13037604Y10861564D03*
%TO.N,Net-(J18-Pin_1)*%
X-12717308Y11244857D03*
%TO.N,Net-(J18-Pin_2)*%
X-12398206Y11629144D03*
%TO.N,Net-(J19-Pin_1)*%
X-12083202Y12016798D03*
%TO.N,Net-(J19-Pin_2)*%
X-11730000Y12370000D03*
%TO.N,Net-(J1-Pin_1)*%
X-9100000Y6702500D03*
D14*
X-14000000Y41425000D03*
%TO.N,Net-(J1-Pin_2)*%
X-10000000Y41425000D03*
D12*
X-9100000Y4787500D03*
D14*
%TO.N,Net-(J1-Pin_3)*%
X-6000000Y41425000D03*
D12*
X-9100000Y2872500D03*
%TO.N,Net-(J1-Pin_4)*%
X-9100000Y957500D03*
D14*
X-2000000Y41425000D03*
%TO.N,Net-(J1-Pin_5)*%
X-2000000Y-41425000D03*
D12*
X-9100000Y-957500D03*
%TO.N,Net-(J1-Pin_6)*%
X-9100000Y-2872500D03*
D14*
X-6000000Y-41425000D03*
%TO.N,Net-(J1-Pin_7)*%
X-10000000Y-41425000D03*
D12*
X-9100000Y-4787500D03*
%TO.N,Net-(J1-Pin_8)*%
X-9100000Y-6702500D03*
D14*
X-14000000Y-41425000D03*
D12*
%TO.N,Net-(J2-Pin_1)*%
X9100000Y-6702500D03*
D14*
X14000000Y-41425000D03*
%TO.N,Net-(J2-Pin_2)*%
X10000000Y-41425000D03*
D12*
X9100000Y-4787500D03*
%TO.N,Net-(J2-Pin_3)*%
X9100000Y-2872500D03*
D14*
X6000000Y-41425000D03*
D12*
%TO.N,Net-(J2-Pin_4)*%
X9100000Y-957500D03*
D14*
X2000000Y-41425000D03*
D12*
%TO.N,Net-(J2-Pin_5)*%
X9100000Y957500D03*
D14*
X2000000Y41425000D03*
D12*
%TO.N,Net-(J2-Pin_6)*%
X9100000Y2872500D03*
D14*
X6000000Y41425000D03*
%TO.N,Net-(J2-Pin_7)*%
X10000000Y41425000D03*
D12*
X9100000Y4787500D03*
D14*
%TO.N,Net-(J2-Pin_8)*%
X14000000Y41425000D03*
D12*
X9100000Y6702500D03*
D14*
%TO.N,Net-(J5-Pin_1)*%
X-14000000Y34575000D03*
D12*
X-6702500Y9100000D03*
D14*
%TO.N,Net-(J5-Pin_2)*%
X-10000000Y34575000D03*
D12*
X-4787500Y9100000D03*
D14*
%TO.N,Net-(J5-Pin_3)*%
X-6000000Y34575000D03*
D12*
X-2872500Y9100000D03*
%TO.N,Net-(J5-Pin_4)*%
X-957500Y9100000D03*
D14*
X-2000000Y34575000D03*
D12*
%TO.N,Net-(J5-Pin_5)*%
X957500Y9100000D03*
D14*
X2000000Y34575000D03*
D12*
%TO.N,Net-(J5-Pin_6)*%
X2872500Y9100000D03*
D14*
X6000000Y34575000D03*
D12*
%TO.N,Net-(J5-Pin_7)*%
X4787500Y9100000D03*
D14*
X10000000Y34575000D03*
%TO.N,Net-(J5-Pin_8)*%
X14000000Y34575000D03*
D12*
X6702500Y9100000D03*
%TO.N,Net-(J6-Pin_1)*%
X6702500Y-9100000D03*
D14*
X14000000Y-34575000D03*
D12*
%TO.N,Net-(J6-Pin_2)*%
X4787500Y-9100000D03*
D14*
X10000000Y-34575000D03*
%TO.N,Net-(J6-Pin_3)*%
X6000000Y-34575000D03*
D12*
X2872500Y-9100000D03*
%TO.N,Net-(J6-Pin_4)*%
X957500Y-9100000D03*
D14*
X2000000Y-34575000D03*
D12*
%TO.N,Net-(J6-Pin_5)*%
X-957500Y-9100000D03*
D14*
X-2000000Y-34575000D03*
D12*
%TO.N,Net-(J6-Pin_6)*%
X-2872500Y-9100000D03*
D14*
X-6000000Y-34575000D03*
D12*
%TO.N,Net-(J6-Pin_7)*%
X-4787500Y-9100000D03*
D14*
X-10000000Y-34575000D03*
%TO.N,Net-(J6-Pin_8)*%
X-14000000Y-34575000D03*
D12*
X-6702500Y-9100000D03*
%TO.N,Net-(J9-Pin_1)*%
X-34270000Y-18740000D03*
X4140000Y-9600000D03*
%TO.N,Net-(J9-Pin_2)*%
X3502000Y-9600000D03*
X-34270000Y-17740000D03*
%TO.N,Net-(J9-Pin_3)*%
X2226000Y-9600000D03*
X-34270000Y-16740000D03*
%TO.N,Net-(J9-Pin_4)*%
X-34270000Y-15740000D03*
X1588000Y-9600000D03*
%TO.N,Net-(J9-Pin_5)*%
X-34270000Y-14740000D03*
X312000Y-9600000D03*
%TO.N,Net-(J9-Pin_6)*%
X-34270000Y-13740000D03*
X-326000Y-9600000D03*
%TO.N,Net-(J9-Pin_7)*%
X-1602000Y-9600000D03*
X-34270000Y-12740000D03*
%TO.N,Net-(J9-Pin_8)*%
X-34270000Y-11740000D03*
X-2240000Y-9600000D03*
%TO.N,Net-(J9-Pin_9)*%
X-3516000Y-9600000D03*
X-34270000Y-10740000D03*
%TO.N,Net-(J9-Pin_10)*%
X-4154000Y-9600000D03*
X-34270000Y-9740000D03*
%TO.N,Net-(J10-Pin_1)*%
X34350000Y18750000D03*
X-4146000Y9600000D03*
%TO.N,Net-(J10-Pin_2)*%
X34350000Y17750000D03*
X-3508000Y9600000D03*
%TO.N,Net-(J10-Pin_3)*%
X34350000Y16750000D03*
X-2232000Y9600000D03*
%TO.N,Net-(J10-Pin_4)*%
X-1594000Y9600000D03*
X34350000Y15750000D03*
%TO.N,Net-(J10-Pin_5)*%
X34350000Y14750000D03*
X-318000Y9600000D03*
%TO.N,Net-(J10-Pin_6)*%
X34350000Y13750000D03*
X320000Y9600000D03*
%TO.N,Net-(J10-Pin_7)*%
X1596000Y9600000D03*
X34350000Y12750000D03*
%TO.N,Net-(J10-Pin_8)*%
X2234000Y9600000D03*
X34350000Y11750000D03*
%TO.N,Net-(J10-Pin_9)*%
X3510000Y9600000D03*
X34350000Y10750000D03*
%TO.N,Net-(J10-Pin_10)*%
X34350000Y9750000D03*
X4148000Y9600000D03*
%TO.N,Net-(J13-Pin_1)*%
X34350000Y-9250000D03*
X9600000Y4146000D03*
%TO.N,Net-(J13-Pin_2)*%
X9600000Y3508000D03*
X34350000Y-10250000D03*
%TO.N,Net-(J13-Pin_3)*%
X34350000Y-11250000D03*
X9600000Y2232000D03*
%TO.N,Net-(J13-Pin_4)*%
X34350000Y-12250000D03*
X9600000Y1594000D03*
%TO.N,Net-(J13-Pin_5)*%
X9600000Y318000D03*
X34350000Y-13250000D03*
%TO.N,Net-(J13-Pin_6)*%
X34350000Y-14250000D03*
X9600000Y-320000D03*
%TO.N,Net-(J13-Pin_7)*%
X9600000Y-1596000D03*
X34350000Y-15250000D03*
%TO.N,Net-(J13-Pin_8)*%
X34350000Y-16250000D03*
X9600000Y-2234000D03*
%TO.N,Net-(J13-Pin_9)*%
X9600000Y-3510000D03*
X34350000Y-17250000D03*
%TO.N,Net-(J13-Pin_10)*%
X34350000Y-18250000D03*
X9600000Y-4148000D03*
%TO.N,Net-(J14-Pin_1)*%
X-34250000Y9250000D03*
X-9600000Y-4140000D03*
%TO.N,Net-(J14-Pin_2)*%
X-9620000Y-3502000D03*
X-34250000Y10250000D03*
%TO.N,Net-(J14-Pin_3)*%
X-9600000Y-2226000D03*
X-34250000Y11250000D03*
%TO.N,Net-(J14-Pin_4)*%
X-9620000Y-1588000D03*
X-34250000Y12250000D03*
%TO.N,Net-(J14-Pin_5)*%
X-9600000Y-312000D03*
X-34250000Y13250000D03*
%TO.N,Net-(J14-Pin_6)*%
X-9620000Y326000D03*
X-34250000Y14250000D03*
%TO.N,Net-(J14-Pin_7)*%
X-9600000Y1602000D03*
X-34250000Y15250000D03*
%TO.N,Net-(J14-Pin_8)*%
X-9620000Y2240000D03*
X-34250000Y16250000D03*
%TO.N,Net-(J14-Pin_9)*%
X-34250000Y17250000D03*
X-9600000Y3516000D03*
%TO.N,Net-(J14-Pin_10)*%
X-9620000Y4154000D03*
X-34250000Y18250000D03*
%TO.N,Net-(J16-Pin_1)*%
X-34350000Y31050000D03*
X-9600000Y5430000D03*
%TO.N,Net-(J16-Pin_2)*%
X-34350000Y32050000D03*
X-9620000Y6068000D03*
%TO.N,Net-(J17-Pin_1)*%
X-34350000Y33050000D03*
X-6060000Y9600000D03*
%TO.N,Net-(J17-Pin_2)*%
X-5422000Y9600000D03*
X-34350000Y34050000D03*
%TO.N,Net-(J18-Pin_1)*%
X5424000Y9600000D03*
X-34350000Y35050000D03*
%TO.N,Net-(J18-Pin_2)*%
X6062000Y9600000D03*
X-34350000Y36050000D03*
%TO.N,Net-(J19-Pin_1)*%
X9600000Y6060000D03*
X-34350000Y37050000D03*
%TO.N,Net-(J19-Pin_2)*%
X-34350000Y38050000D03*
X9600000Y5422000D03*
%TO.N,Net-(J21-Pin_1)*%
X9600000Y-5424000D03*
X34350000Y-31350000D03*
%TO.N,Net-(J21-Pin_2)*%
X34350000Y-32350000D03*
X9600000Y-6062000D03*
%TO.N,Net-(J22-Pin_1)*%
X34350000Y-33350000D03*
X6054000Y-9600000D03*
%TO.N,Net-(J22-Pin_2)*%
X5416000Y-9600000D03*
X34350000Y-34350000D03*
%TO.N,Net-(J23-Pin_1)*%
X-5430000Y-9600000D03*
X34350000Y-35350000D03*
%TO.N,Net-(J23-Pin_2)*%
X-6068000Y-9600000D03*
X34350000Y-36350000D03*
%TO.N,Net-(J24-Pin_1)*%
X34350000Y-37350000D03*
X-9600000Y-6054000D03*
%TO.N,Net-(J24-Pin_2)*%
X34350000Y-38350000D03*
X-9620000Y-5416000D03*
%TD*%
D15*
%TO.N,Net-(J1-Pin_5)*%
X-2000000Y-42692500D02*
X-7310000Y-48002500D01*
X-2000000Y-41427500D02*
X-2000000Y-42692500D01*
%TD*%
%TA.AperFunction,Conductor*%
%TO.N,GND*%
G36*
X40985148Y49985148D02*
G01*
X40999500Y49950500D01*
X40999500Y-49950500D01*
X40985148Y-49985148D01*
X40950500Y-49999500D01*
X-40950500Y-49999500D01*
X-40985148Y-49985148D01*
X-40999500Y-49950500D01*
X-40999500Y-48002500D01*
X-7567448Y-48002500D01*
X-7547850Y-48101020D01*
X-7492043Y-48184543D01*
X-7408520Y-48240350D01*
X-7359260Y-48250149D01*
X-7310002Y-48259948D01*
X-7310000Y-48259948D01*
X-7309998Y-48259948D01*
X-7244320Y-48246882D01*
X-7211480Y-48240350D01*
X-7149041Y-48198630D01*
X-1842457Y-42892046D01*
X-1835031Y-42885951D01*
X-1817956Y-42874542D01*
X-1797540Y-42843986D01*
X-1762150Y-42791021D01*
X-1759073Y-42775553D01*
X-1744081Y-42700189D01*
X-1742552Y-42692501D01*
X-1742552Y-42692498D01*
X-1746558Y-42672361D01*
X-1747500Y-42662801D01*
X-1747500Y-42149661D01*
X37570728Y-42149661D01*
X37600769Y-42345768D01*
X37600770Y-42345775D01*
X37635870Y-42440546D01*
X37669675Y-42531820D01*
X37774620Y-42700189D01*
X37860961Y-42791020D01*
X37911309Y-42843986D01*
X37911314Y-42843990D01*
X38074141Y-42957321D01*
X38074146Y-42957324D01*
X38256465Y-43035563D01*
X38450801Y-43075500D01*
X38450802Y-43075500D01*
X38599467Y-43075500D01*
X38599473Y-43075500D01*
X38747379Y-43060459D01*
X38936678Y-43001067D01*
X39110146Y-42904784D01*
X39260682Y-42775553D01*
X39382122Y-42618666D01*
X39469495Y-42440544D01*
X39519224Y-42248480D01*
X39529272Y-42050337D01*
X39499230Y-41854227D01*
X39430325Y-41668180D01*
X39325380Y-41499811D01*
X39188691Y-41356014D01*
X39188690Y-41356013D01*
X39188685Y-41356009D01*
X39025858Y-41242678D01*
X39025853Y-41242675D01*
X38843534Y-41164436D01*
X38689135Y-41132707D01*
X38649199Y-41124500D01*
X38500527Y-41124500D01*
X38401923Y-41134527D01*
X38352618Y-41139541D01*
X38163322Y-41198933D01*
X37989855Y-41295214D01*
X37989848Y-41295220D01*
X37839323Y-41424442D01*
X37839313Y-41424452D01*
X37717880Y-41581330D01*
X37717874Y-41581340D01*
X37630505Y-41759453D01*
X37580776Y-41951517D01*
X37580776Y-41951520D01*
X37570728Y-42149659D01*
X37570728Y-42149661D01*
X-1747500Y-42149661D01*
X-1747500Y-41824995D01*
X-1733148Y-41790347D01*
X-1724994Y-41783776D01*
X-1701951Y-41768967D01*
X-1617118Y-41671063D01*
X-1563301Y-41553223D01*
X-1544867Y-41425002D01*
X1544867Y-41425002D01*
X1563301Y-41553223D01*
X1576142Y-41581340D01*
X1617118Y-41671063D01*
X1701951Y-41768967D01*
X1810931Y-41839004D01*
X1862791Y-41854231D01*
X1935223Y-41875499D01*
X1935228Y-41875500D01*
X2064772Y-41875500D01*
X2064776Y-41875499D01*
X2085324Y-41869465D01*
X2189069Y-41839004D01*
X2298049Y-41768967D01*
X2382882Y-41671063D01*
X2436697Y-41553226D01*
X2436697Y-41553224D01*
X2436698Y-41553223D01*
X2455133Y-41425002D01*
X5544867Y-41425002D01*
X5563301Y-41553223D01*
X5576142Y-41581340D01*
X5617118Y-41671063D01*
X5701951Y-41768967D01*
X5810931Y-41839004D01*
X5862791Y-41854231D01*
X5935223Y-41875499D01*
X5935228Y-41875500D01*
X6064772Y-41875500D01*
X6064776Y-41875499D01*
X6085324Y-41869465D01*
X6189069Y-41839004D01*
X6298049Y-41768967D01*
X6382882Y-41671063D01*
X6436697Y-41553226D01*
X6436697Y-41553224D01*
X6436698Y-41553223D01*
X6455133Y-41425002D01*
X9544867Y-41425002D01*
X9563301Y-41553223D01*
X9576142Y-41581340D01*
X9617118Y-41671063D01*
X9701951Y-41768967D01*
X9810931Y-41839004D01*
X9862791Y-41854231D01*
X9935223Y-41875499D01*
X9935228Y-41875500D01*
X10064772Y-41875500D01*
X10064776Y-41875499D01*
X10085324Y-41869465D01*
X10189069Y-41839004D01*
X10298049Y-41768967D01*
X10382882Y-41671063D01*
X10436697Y-41553226D01*
X10436697Y-41553224D01*
X10436698Y-41553223D01*
X10455133Y-41425002D01*
X13544867Y-41425002D01*
X13563301Y-41553223D01*
X13576142Y-41581340D01*
X13617118Y-41671063D01*
X13701951Y-41768967D01*
X13810931Y-41839004D01*
X13862791Y-41854231D01*
X13935223Y-41875499D01*
X13935228Y-41875500D01*
X14064772Y-41875500D01*
X14064776Y-41875499D01*
X14085324Y-41869465D01*
X14189069Y-41839004D01*
X14298049Y-41768967D01*
X14382882Y-41671063D01*
X14436697Y-41553226D01*
X14436697Y-41553224D01*
X14436698Y-41553223D01*
X14455133Y-41425002D01*
X14455133Y-41424997D01*
X14436698Y-41296776D01*
X14411991Y-41242676D01*
X14382882Y-41178937D01*
X14298049Y-41081033D01*
X14189069Y-41010996D01*
X14189066Y-41010995D01*
X14064776Y-40974500D01*
X14064772Y-40974500D01*
X13935228Y-40974500D01*
X13935223Y-40974500D01*
X13810933Y-41010995D01*
X13701950Y-41081033D01*
X13617119Y-41178936D01*
X13617118Y-41178936D01*
X13563301Y-41296776D01*
X13544867Y-41424997D01*
X13544867Y-41425002D01*
X10455133Y-41425002D01*
X10455133Y-41424997D01*
X10436698Y-41296776D01*
X10411991Y-41242676D01*
X10382882Y-41178937D01*
X10298049Y-41081033D01*
X10189069Y-41010996D01*
X10189066Y-41010995D01*
X10064776Y-40974500D01*
X10064772Y-40974500D01*
X9935228Y-40974500D01*
X9935223Y-40974500D01*
X9810933Y-41010995D01*
X9701950Y-41081033D01*
X9617119Y-41178936D01*
X9617118Y-41178936D01*
X9563301Y-41296776D01*
X9544867Y-41424997D01*
X9544867Y-41425002D01*
X6455133Y-41425002D01*
X6455133Y-41424997D01*
X6436698Y-41296776D01*
X6411991Y-41242676D01*
X6382882Y-41178937D01*
X6298049Y-41081033D01*
X6189069Y-41010996D01*
X6189066Y-41010995D01*
X6064776Y-40974500D01*
X6064772Y-40974500D01*
X5935228Y-40974500D01*
X5935223Y-40974500D01*
X5810933Y-41010995D01*
X5701950Y-41081033D01*
X5617119Y-41178936D01*
X5617118Y-41178936D01*
X5563301Y-41296776D01*
X5544867Y-41424997D01*
X5544867Y-41425002D01*
X2455133Y-41425002D01*
X2455133Y-41424997D01*
X2436698Y-41296776D01*
X2411991Y-41242676D01*
X2382882Y-41178937D01*
X2298049Y-41081033D01*
X2189069Y-41010996D01*
X2189066Y-41010995D01*
X2064776Y-40974500D01*
X2064772Y-40974500D01*
X1935228Y-40974500D01*
X1935223Y-40974500D01*
X1810933Y-41010995D01*
X1701950Y-41081033D01*
X1617119Y-41178936D01*
X1617118Y-41178936D01*
X1563301Y-41296776D01*
X1544867Y-41424997D01*
X1544867Y-41425002D01*
X-1544867Y-41425002D01*
X-1544867Y-41424997D01*
X-1563301Y-41296776D01*
X-1617118Y-41178936D01*
X-1701950Y-41081033D01*
X-1810933Y-41010995D01*
X-1935223Y-40974500D01*
X-1935228Y-40974500D01*
X-2064772Y-40974500D01*
X-2064776Y-40974500D01*
X-2189066Y-41010995D01*
X-2189069Y-41010996D01*
X-2298049Y-41081033D01*
X-2382882Y-41178937D01*
X-2411991Y-41242676D01*
X-2436698Y-41296776D01*
X-2455133Y-41424997D01*
X-2455133Y-41425002D01*
X-2436698Y-41553223D01*
X-2436697Y-41553224D01*
X-2436697Y-41553226D01*
X-2382882Y-41671063D01*
X-2298049Y-41768967D01*
X-2275008Y-41783774D01*
X-2253620Y-41814579D01*
X-2252500Y-41824995D01*
X-2252500Y-42567615D01*
X-2266852Y-42602263D01*
X-7506130Y-47841541D01*
X-7547850Y-47903980D01*
X-7567448Y-48002500D01*
X-40999500Y-48002500D01*
X-40999500Y-41425002D01*
X-14455133Y-41425002D01*
X-14436698Y-41553223D01*
X-14436697Y-41553224D01*
X-14436697Y-41553226D01*
X-14382882Y-41671063D01*
X-14298049Y-41768967D01*
X-14189069Y-41839004D01*
X-14085324Y-41869465D01*
X-14064776Y-41875499D01*
X-14064772Y-41875500D01*
X-13935228Y-41875500D01*
X-13935223Y-41875499D01*
X-13862791Y-41854231D01*
X-13810931Y-41839004D01*
X-13701951Y-41768967D01*
X-13617118Y-41671063D01*
X-13563301Y-41553223D01*
X-13544867Y-41425002D01*
X-10455133Y-41425002D01*
X-10436698Y-41553223D01*
X-10436697Y-41553224D01*
X-10436697Y-41553226D01*
X-10382882Y-41671063D01*
X-10298049Y-41768967D01*
X-10189069Y-41839004D01*
X-10085324Y-41869465D01*
X-10064776Y-41875499D01*
X-10064772Y-41875500D01*
X-9935228Y-41875500D01*
X-9935223Y-41875499D01*
X-9862791Y-41854231D01*
X-9810931Y-41839004D01*
X-9701951Y-41768967D01*
X-9617118Y-41671063D01*
X-9563301Y-41553223D01*
X-9544867Y-41425002D01*
X-6455133Y-41425002D01*
X-6436698Y-41553223D01*
X-6436697Y-41553224D01*
X-6436697Y-41553226D01*
X-6382882Y-41671063D01*
X-6298049Y-41768967D01*
X-6189069Y-41839004D01*
X-6085324Y-41869465D01*
X-6064776Y-41875499D01*
X-6064772Y-41875500D01*
X-5935228Y-41875500D01*
X-5935223Y-41875499D01*
X-5862791Y-41854231D01*
X-5810931Y-41839004D01*
X-5701951Y-41768967D01*
X-5617118Y-41671063D01*
X-5563301Y-41553223D01*
X-5544867Y-41425002D01*
X-5544867Y-41424997D01*
X-5563301Y-41296776D01*
X-5617118Y-41178936D01*
X-5701950Y-41081033D01*
X-5810933Y-41010995D01*
X-5935223Y-40974500D01*
X-5935228Y-40974500D01*
X-6064772Y-40974500D01*
X-6064776Y-40974500D01*
X-6189066Y-41010995D01*
X-6189069Y-41010996D01*
X-6298049Y-41081033D01*
X-6382882Y-41178937D01*
X-6411991Y-41242676D01*
X-6436698Y-41296776D01*
X-6455133Y-41424997D01*
X-6455133Y-41425002D01*
X-9544867Y-41425002D01*
X-9544867Y-41424997D01*
X-9563301Y-41296776D01*
X-9617118Y-41178936D01*
X-9701950Y-41081033D01*
X-9810933Y-41010995D01*
X-9935223Y-40974500D01*
X-9935228Y-40974500D01*
X-10064772Y-40974500D01*
X-10064776Y-40974500D01*
X-10189066Y-41010995D01*
X-10189069Y-41010996D01*
X-10298049Y-41081033D01*
X-10382882Y-41178937D01*
X-10411991Y-41242676D01*
X-10436698Y-41296776D01*
X-10455133Y-41424997D01*
X-10455133Y-41425002D01*
X-13544867Y-41425002D01*
X-13544867Y-41424997D01*
X-13563301Y-41296776D01*
X-13617118Y-41178936D01*
X-13701950Y-41081033D01*
X-13810933Y-41010995D01*
X-13935223Y-40974500D01*
X-13935228Y-40974500D01*
X-14064772Y-40974500D01*
X-14064776Y-40974500D01*
X-14189066Y-41010995D01*
X-14189069Y-41010996D01*
X-14298049Y-41081033D01*
X-14382882Y-41178937D01*
X-14411991Y-41242676D01*
X-14436698Y-41296776D01*
X-14455133Y-41424997D01*
X-14455133Y-41425002D01*
X-40999500Y-41425002D01*
X-40999500Y-38000000D01*
X-16695430Y-38000000D01*
X-16675750Y-38224949D01*
X-16675749Y-38224951D01*
X-16675748Y-38224957D01*
X-16646528Y-38334006D01*
X-16617306Y-38443063D01*
X-16563436Y-38558587D01*
X-16521876Y-38647713D01*
X-16521869Y-38647725D01*
X-16420560Y-38792408D01*
X-16392357Y-38832686D01*
X-16232686Y-38992357D01*
X-16232680Y-38992361D01*
X-16047725Y-39121869D01*
X-16047716Y-39121874D01*
X-16047715Y-39121875D01*
X-15843063Y-39217306D01*
X-15734006Y-39246528D01*
X-15624957Y-39275748D01*
X-15624955Y-39275748D01*
X-15624949Y-39275750D01*
X-15485854Y-39287918D01*
X-15456354Y-39290500D01*
X-15456352Y-39290500D01*
X-15343646Y-39290500D01*
X-15311317Y-39287671D01*
X-15175051Y-39275750D01*
X-15175046Y-39275748D01*
X-15175042Y-39275748D01*
X-14956944Y-39217308D01*
X-14956943Y-39217307D01*
X-14956937Y-39217306D01*
X-14826773Y-39156609D01*
X-14752286Y-39121876D01*
X-14752274Y-39121869D01*
X-14567319Y-38992361D01*
X-14567312Y-38992355D01*
X-14407644Y-38832687D01*
X-14407638Y-38832680D01*
X-14278130Y-38647725D01*
X-14278123Y-38647713D01*
X-14182693Y-38443060D01*
X-14182691Y-38443055D01*
X-14124251Y-38224957D01*
X-14124250Y-38224951D01*
X-14104570Y-38000000D01*
X-14110968Y-37926864D01*
X-10094328Y-37926864D01*
X-10084125Y-38219050D01*
X-10033357Y-38506973D01*
X-9943011Y-38785027D01*
X-9814847Y-39047802D01*
X-9651359Y-39290183D01*
X-9455730Y-39507452D01*
X-9231766Y-39695380D01*
X-8983827Y-39850309D01*
X-8716739Y-39969225D01*
X-8435701Y-40049811D01*
X-8146182Y-40090500D01*
X-8146181Y-40090500D01*
X-7926998Y-40090500D01*
X-7926994Y-40090500D01*
X-7708348Y-40075211D01*
X-7422373Y-40014425D01*
X-7147641Y-39914430D01*
X-6889499Y-39777174D01*
X-6889497Y-39777173D01*
X-6889494Y-39777171D01*
X-6652977Y-39605331D01*
X-6652971Y-39605327D01*
X-6442662Y-39402233D01*
X-6262665Y-39171847D01*
X-6262663Y-39171844D01*
X-6262660Y-39171840D01*
X-6116484Y-38918656D01*
X-6065477Y-38792409D01*
X-6006961Y-38647578D01*
X-5936232Y-38363898D01*
X-5923419Y-38241995D01*
X-5905671Y-38073127D01*
X-5910779Y-37926872D01*
X5905672Y-37926872D01*
X5915875Y-38219049D01*
X5915875Y-38219053D01*
X5936374Y-38335307D01*
X5966643Y-38506973D01*
X5966644Y-38506976D01*
X5966645Y-38506981D01*
X6056989Y-38785028D01*
X6185153Y-39047803D01*
X6185154Y-39047805D01*
X6348642Y-39290185D01*
X6544265Y-39507447D01*
X6544270Y-39507452D01*
X6768234Y-39695380D01*
X7016173Y-39850309D01*
X7283261Y-39969225D01*
X7564299Y-40049811D01*
X7853818Y-40090500D01*
X7853819Y-40090500D01*
X8073002Y-40090500D01*
X8073006Y-40090500D01*
X8291652Y-40075211D01*
X8577627Y-40014425D01*
X8852359Y-39914430D01*
X9110501Y-39777174D01*
X9347029Y-39605327D01*
X9557338Y-39402233D01*
X9737335Y-39171847D01*
X9883517Y-38918653D01*
X9993039Y-38647578D01*
X10063768Y-38363898D01*
X10094328Y-38073136D01*
X10093482Y-38048896D01*
X14435785Y-38048896D01*
X14435786Y-38048897D01*
X14435786Y-38048899D01*
X14437932Y-38062905D01*
X14465113Y-38240339D01*
X14465367Y-38241993D01*
X14533212Y-38425180D01*
X14586512Y-38510693D01*
X14636544Y-38590961D01*
X14771123Y-38732539D01*
X14771136Y-38732550D01*
X14931459Y-38844138D01*
X14931464Y-38844141D01*
X15110979Y-38921177D01*
X15302327Y-38960500D01*
X15302328Y-38960500D01*
X15448700Y-38960500D01*
X15448706Y-38960500D01*
X15594344Y-38945690D01*
X15780732Y-38887211D01*
X15951533Y-38792409D01*
X16099753Y-38665165D01*
X16219326Y-38510690D01*
X16298149Y-38350000D01*
X33995131Y-38350000D01*
X34012500Y-38459661D01*
X34036610Y-38506981D01*
X34062905Y-38558587D01*
X34141413Y-38637095D01*
X34240339Y-38687500D01*
X34350000Y-38704869D01*
X34459661Y-38687500D01*
X34558587Y-38637095D01*
X34637095Y-38558587D01*
X34687500Y-38459661D01*
X34704869Y-38350000D01*
X34687500Y-38240339D01*
X34637095Y-38141413D01*
X34558587Y-38062905D01*
X34558584Y-38062903D01*
X34459661Y-38012500D01*
X34350000Y-37995131D01*
X34240338Y-38012500D01*
X34141415Y-38062903D01*
X34141412Y-38062905D01*
X34062905Y-38141412D01*
X34062903Y-38141415D01*
X34012500Y-38240338D01*
X33995131Y-38350000D01*
X16298149Y-38350000D01*
X16305356Y-38335307D01*
X16354320Y-38146196D01*
X16364214Y-37951101D01*
X16334633Y-37758007D01*
X16266788Y-37574820D01*
X16163457Y-37409040D01*
X16153571Y-37398640D01*
X16107336Y-37350000D01*
X33995131Y-37350000D01*
X34012500Y-37459661D01*
X34062067Y-37556944D01*
X34062905Y-37558587D01*
X34141413Y-37637095D01*
X34240339Y-37687500D01*
X34350000Y-37704869D01*
X34459661Y-37687500D01*
X34558587Y-37637095D01*
X34637095Y-37558587D01*
X34687500Y-37459661D01*
X34704869Y-37350000D01*
X34687500Y-37240339D01*
X34637095Y-37141413D01*
X34558587Y-37062905D01*
X34558584Y-37062903D01*
X34459661Y-37012500D01*
X34350000Y-36995131D01*
X34240338Y-37012500D01*
X34141415Y-37062903D01*
X34141412Y-37062905D01*
X34062905Y-37141412D01*
X34062903Y-37141415D01*
X34012500Y-37240338D01*
X33995131Y-37350000D01*
X16107336Y-37350000D01*
X16028876Y-37267460D01*
X16028863Y-37267449D01*
X15868540Y-37155861D01*
X15868535Y-37155858D01*
X15689020Y-37078822D01*
X15536995Y-37047580D01*
X15497673Y-37039500D01*
X15351294Y-37039500D01*
X15263911Y-37048386D01*
X15205652Y-37054310D01*
X15019268Y-37112789D01*
X14848468Y-37207589D01*
X14848466Y-37207591D01*
X14700248Y-37334834D01*
X14700242Y-37334840D01*
X14580676Y-37489306D01*
X14580670Y-37489316D01*
X14494644Y-37664690D01*
X14445680Y-37853801D01*
X14445680Y-37853805D01*
X14435785Y-38048896D01*
X10093482Y-38048896D01*
X10084125Y-37780950D01*
X10033357Y-37493027D01*
X9943011Y-37214973D01*
X9814847Y-36952198D01*
X9814846Y-36952196D01*
X9814845Y-36952194D01*
X9651357Y-36709814D01*
X9455734Y-36492552D01*
X9455732Y-36492550D01*
X9455730Y-36492548D01*
X9285848Y-36350000D01*
X33995131Y-36350000D01*
X34012500Y-36459661D01*
X34062905Y-36558587D01*
X34141413Y-36637095D01*
X34240339Y-36687500D01*
X34350000Y-36704869D01*
X34459661Y-36687500D01*
X34558587Y-36637095D01*
X34637095Y-36558587D01*
X34687500Y-36459661D01*
X34704869Y-36350000D01*
X34687500Y-36240339D01*
X34637095Y-36141413D01*
X34558587Y-36062905D01*
X34558584Y-36062903D01*
X34459661Y-36012500D01*
X34350000Y-35995131D01*
X34240338Y-36012500D01*
X34141415Y-36062903D01*
X34141412Y-36062905D01*
X34062905Y-36141412D01*
X34062903Y-36141415D01*
X34012500Y-36240338D01*
X34012500Y-36240339D01*
X33995131Y-36350000D01*
X9285848Y-36350000D01*
X9231766Y-36304620D01*
X9231764Y-36304618D01*
X9231762Y-36304617D01*
X8983829Y-36149692D01*
X8788904Y-36062905D01*
X8716739Y-36030775D01*
X8435701Y-35950189D01*
X8435694Y-35950188D01*
X8435686Y-35950186D01*
X8185589Y-35915038D01*
X8146182Y-35909500D01*
X7926994Y-35909500D01*
X7817671Y-35917144D01*
X7708344Y-35924789D01*
X7708340Y-35924790D01*
X7422372Y-35985575D01*
X7147648Y-36085567D01*
X7147630Y-36085575D01*
X6889503Y-36222823D01*
X6889494Y-36222828D01*
X6652977Y-36394668D01*
X6652973Y-36394671D01*
X6442662Y-36597766D01*
X6442660Y-36597768D01*
X6262664Y-36828154D01*
X6262660Y-36828159D01*
X6116484Y-37081343D01*
X6041290Y-37267455D01*
X6006961Y-37352422D01*
X5955970Y-37556939D01*
X5936231Y-37636107D01*
X5933227Y-37664690D01*
X5905672Y-37926864D01*
X5905672Y-37926870D01*
X5905672Y-37926872D01*
X-5910779Y-37926872D01*
X-5915875Y-37780950D01*
X-5915875Y-37780946D01*
X-5966645Y-37493018D01*
X-6056989Y-37214971D01*
X-6185153Y-36952196D01*
X-6185154Y-36952194D01*
X-6348642Y-36709814D01*
X-6544265Y-36492552D01*
X-6768237Y-36304617D01*
X-7016170Y-36149692D01*
X-7283258Y-36030776D01*
X-7346994Y-36012500D01*
X-7564299Y-35950189D01*
X-7564303Y-35950188D01*
X-7564313Y-35950186D01*
X-7819131Y-35914374D01*
X-7853818Y-35909500D01*
X-8073006Y-35909500D01*
X-8197946Y-35918236D01*
X-8291655Y-35924789D01*
X-8291659Y-35924790D01*
X-8577627Y-35985575D01*
X-8790082Y-36062903D01*
X-8852359Y-36085570D01*
X-8852365Y-36085573D01*
X-8852369Y-36085575D01*
X-9110496Y-36222823D01*
X-9110505Y-36222828D01*
X-9285542Y-36350000D01*
X-9347029Y-36394673D01*
X-9557338Y-36597767D01*
X-9737335Y-36828153D01*
X-9737337Y-36828156D01*
X-9737339Y-36828159D01*
X-9882059Y-37078822D01*
X-9883517Y-37081347D01*
X-9993039Y-37352422D01*
X-10063768Y-37636102D01*
X-10094328Y-37926864D01*
X-14110968Y-37926864D01*
X-14124250Y-37775048D01*
X-14124251Y-37775042D01*
X-14182691Y-37556944D01*
X-14182693Y-37556939D01*
X-14278123Y-37352286D01*
X-14278130Y-37352274D01*
X-14407638Y-37167319D01*
X-14407644Y-37167312D01*
X-14567312Y-37007644D01*
X-14567319Y-37007638D01*
X-14752274Y-36878130D01*
X-14752286Y-36878123D01*
X-14956939Y-36782693D01*
X-14956944Y-36782691D01*
X-15175042Y-36724251D01*
X-15175048Y-36724250D01*
X-15343646Y-36709500D01*
X-15343648Y-36709500D01*
X-15456352Y-36709500D01*
X-15456354Y-36709500D01*
X-15624951Y-36724250D01*
X-15624957Y-36724251D01*
X-15843055Y-36782691D01*
X-15843060Y-36782693D01*
X-15843063Y-36782694D01*
X-15898738Y-36808655D01*
X-16047713Y-36878123D01*
X-16047725Y-36878130D01*
X-16232680Y-37007638D01*
X-16232687Y-37007644D01*
X-16392355Y-37167312D01*
X-16392361Y-37167319D01*
X-16521869Y-37352274D01*
X-16521876Y-37352286D01*
X-16548340Y-37409040D01*
X-16617306Y-37556937D01*
X-16617307Y-37556943D01*
X-16617308Y-37556944D01*
X-16671182Y-37758004D01*
X-16675750Y-37775051D01*
X-16695430Y-38000000D01*
X-40999500Y-38000000D01*
X-40999500Y-35350000D01*
X33995131Y-35350000D01*
X34012500Y-35459661D01*
X34062905Y-35558587D01*
X34141413Y-35637095D01*
X34240339Y-35687500D01*
X34350000Y-35704869D01*
X34459661Y-35687500D01*
X34558587Y-35637095D01*
X34637095Y-35558587D01*
X34687500Y-35459661D01*
X34704869Y-35350000D01*
X34687500Y-35240339D01*
X34637095Y-35141413D01*
X34558587Y-35062905D01*
X34558584Y-35062903D01*
X34459661Y-35012500D01*
X34350000Y-34995131D01*
X34240338Y-35012500D01*
X34141415Y-35062903D01*
X34141412Y-35062905D01*
X34062905Y-35141412D01*
X34062903Y-35141415D01*
X34012500Y-35240338D01*
X34012500Y-35240339D01*
X33995131Y-35350000D01*
X-40999500Y-35350000D01*
X-40999500Y-34575002D01*
X-14455133Y-34575002D01*
X-14436698Y-34703223D01*
X-14436697Y-34703224D01*
X-14436697Y-34703226D01*
X-14382882Y-34821063D01*
X-14298049Y-34918967D01*
X-14189069Y-34989004D01*
X-14085324Y-35019465D01*
X-14064776Y-35025499D01*
X-14064772Y-35025500D01*
X-13935228Y-35025500D01*
X-13935223Y-35025499D01*
X-13880093Y-35009311D01*
X-13810931Y-34989004D01*
X-13701951Y-34918967D01*
X-13617118Y-34821063D01*
X-13563301Y-34703223D01*
X-13544867Y-34575002D01*
X-10455133Y-34575002D01*
X-10436698Y-34703223D01*
X-10436697Y-34703224D01*
X-10436697Y-34703226D01*
X-10382882Y-34821063D01*
X-10298049Y-34918967D01*
X-10189069Y-34989004D01*
X-10085324Y-35019465D01*
X-10064776Y-35025499D01*
X-10064772Y-35025500D01*
X-9935228Y-35025500D01*
X-9935223Y-35025499D01*
X-9880093Y-35009311D01*
X-9810931Y-34989004D01*
X-9701951Y-34918967D01*
X-9617118Y-34821063D01*
X-9563301Y-34703223D01*
X-9544867Y-34575002D01*
X-6455133Y-34575002D01*
X-6436698Y-34703223D01*
X-6436697Y-34703224D01*
X-6436697Y-34703226D01*
X-6382882Y-34821063D01*
X-6298049Y-34918967D01*
X-6189069Y-34989004D01*
X-6085324Y-35019465D01*
X-6064776Y-35025499D01*
X-6064772Y-35025500D01*
X-5935228Y-35025500D01*
X-5935223Y-35025499D01*
X-5880093Y-35009311D01*
X-5810931Y-34989004D01*
X-5701951Y-34918967D01*
X-5617118Y-34821063D01*
X-5563301Y-34703223D01*
X-5544867Y-34575002D01*
X-2455133Y-34575002D01*
X-2436698Y-34703223D01*
X-2436697Y-34703224D01*
X-2436697Y-34703226D01*
X-2382882Y-34821063D01*
X-2298049Y-34918967D01*
X-2189069Y-34989004D01*
X-2085324Y-35019465D01*
X-2064776Y-35025499D01*
X-2064772Y-35025500D01*
X-1935228Y-35025500D01*
X-1935223Y-35025499D01*
X-1880093Y-35009311D01*
X-1810931Y-34989004D01*
X-1701951Y-34918967D01*
X-1617118Y-34821063D01*
X-1563301Y-34703223D01*
X-1544867Y-34575002D01*
X1544867Y-34575002D01*
X1563301Y-34703223D01*
X1564053Y-34704869D01*
X1617118Y-34821063D01*
X1701951Y-34918967D01*
X1810931Y-34989004D01*
X1880093Y-35009311D01*
X1935223Y-35025499D01*
X1935228Y-35025500D01*
X2064772Y-35025500D01*
X2064776Y-35025499D01*
X2085324Y-35019465D01*
X2189069Y-34989004D01*
X2298049Y-34918967D01*
X2382882Y-34821063D01*
X2436697Y-34703226D01*
X2436697Y-34703224D01*
X2436698Y-34703223D01*
X2455133Y-34575002D01*
X5544867Y-34575002D01*
X5563301Y-34703223D01*
X5564053Y-34704869D01*
X5617118Y-34821063D01*
X5701951Y-34918967D01*
X5810931Y-34989004D01*
X5880093Y-35009311D01*
X5935223Y-35025499D01*
X5935228Y-35025500D01*
X6064772Y-35025500D01*
X6064776Y-35025499D01*
X6085324Y-35019465D01*
X6189069Y-34989004D01*
X6298049Y-34918967D01*
X6382882Y-34821063D01*
X6436697Y-34703226D01*
X6436697Y-34703224D01*
X6436698Y-34703223D01*
X6455133Y-34575002D01*
X9544867Y-34575002D01*
X9563301Y-34703223D01*
X9564053Y-34704869D01*
X9617118Y-34821063D01*
X9701951Y-34918967D01*
X9810931Y-34989004D01*
X9880093Y-35009311D01*
X9935223Y-35025499D01*
X9935228Y-35025500D01*
X10064772Y-35025500D01*
X10064776Y-35025499D01*
X10085324Y-35019465D01*
X10189069Y-34989004D01*
X10298049Y-34918967D01*
X10382882Y-34821063D01*
X10436697Y-34703226D01*
X10436697Y-34703224D01*
X10436698Y-34703223D01*
X10455133Y-34575002D01*
X13544867Y-34575002D01*
X13563301Y-34703223D01*
X13564053Y-34704869D01*
X13617118Y-34821063D01*
X13701951Y-34918967D01*
X13810931Y-34989004D01*
X13880093Y-35009311D01*
X13935223Y-35025499D01*
X13935228Y-35025500D01*
X14064772Y-35025500D01*
X14064776Y-35025499D01*
X14085324Y-35019465D01*
X14189069Y-34989004D01*
X14298049Y-34918967D01*
X14382882Y-34821063D01*
X14436697Y-34703226D01*
X14436697Y-34703224D01*
X14436698Y-34703223D01*
X14455133Y-34575002D01*
X14455133Y-34574997D01*
X14436698Y-34446776D01*
X14392501Y-34350000D01*
X33995131Y-34350000D01*
X34012500Y-34459661D01*
X34062905Y-34558587D01*
X34141413Y-34637095D01*
X34240339Y-34687500D01*
X34350000Y-34704869D01*
X34459661Y-34687500D01*
X34558587Y-34637095D01*
X34637095Y-34558587D01*
X34687500Y-34459661D01*
X34704869Y-34350000D01*
X34687500Y-34240339D01*
X34637095Y-34141413D01*
X34558587Y-34062905D01*
X34558584Y-34062903D01*
X34459661Y-34012500D01*
X34350000Y-33995131D01*
X34240338Y-34012500D01*
X34141415Y-34062903D01*
X34141412Y-34062905D01*
X34062905Y-34141412D01*
X34062903Y-34141415D01*
X34012500Y-34240338D01*
X34012500Y-34240339D01*
X33995131Y-34350000D01*
X14392501Y-34350000D01*
X14382882Y-34328937D01*
X14298049Y-34231033D01*
X14189069Y-34160996D01*
X14189066Y-34160995D01*
X14064776Y-34124500D01*
X14064772Y-34124500D01*
X13935228Y-34124500D01*
X13935223Y-34124500D01*
X13810933Y-34160995D01*
X13701950Y-34231033D01*
X13617119Y-34328936D01*
X13617118Y-34328936D01*
X13563301Y-34446776D01*
X13544867Y-34574997D01*
X13544867Y-34575002D01*
X10455133Y-34575002D01*
X10455133Y-34574997D01*
X10436698Y-34446776D01*
X10392501Y-34350000D01*
X10382882Y-34328937D01*
X10298049Y-34231033D01*
X10189069Y-34160996D01*
X10189066Y-34160995D01*
X10064776Y-34124500D01*
X10064772Y-34124500D01*
X9935228Y-34124500D01*
X9935223Y-34124500D01*
X9810933Y-34160995D01*
X9701950Y-34231033D01*
X9617119Y-34328936D01*
X9617118Y-34328936D01*
X9563301Y-34446776D01*
X9544867Y-34574997D01*
X9544867Y-34575002D01*
X6455133Y-34575002D01*
X6455133Y-34574997D01*
X6436698Y-34446776D01*
X6392501Y-34350000D01*
X6382882Y-34328937D01*
X6298049Y-34231033D01*
X6189069Y-34160996D01*
X6189066Y-34160995D01*
X6064776Y-34124500D01*
X6064772Y-34124500D01*
X5935228Y-34124500D01*
X5935223Y-34124500D01*
X5810933Y-34160995D01*
X5701950Y-34231033D01*
X5617119Y-34328936D01*
X5617118Y-34328936D01*
X5563301Y-34446776D01*
X5544867Y-34574997D01*
X5544867Y-34575002D01*
X2455133Y-34575002D01*
X2455133Y-34574997D01*
X2436698Y-34446776D01*
X2392501Y-34350000D01*
X2382882Y-34328937D01*
X2298049Y-34231033D01*
X2189069Y-34160996D01*
X2189066Y-34160995D01*
X2064776Y-34124500D01*
X2064772Y-34124500D01*
X1935228Y-34124500D01*
X1935223Y-34124500D01*
X1810933Y-34160995D01*
X1701950Y-34231033D01*
X1617119Y-34328936D01*
X1617118Y-34328936D01*
X1563301Y-34446776D01*
X1544867Y-34574997D01*
X1544867Y-34575002D01*
X-1544867Y-34575002D01*
X-1544867Y-34574997D01*
X-1563301Y-34446776D01*
X-1617118Y-34328936D01*
X-1701950Y-34231033D01*
X-1810933Y-34160995D01*
X-1935223Y-34124500D01*
X-1935228Y-34124500D01*
X-2064772Y-34124500D01*
X-2064776Y-34124500D01*
X-2189066Y-34160995D01*
X-2189069Y-34160996D01*
X-2298049Y-34231033D01*
X-2382882Y-34328937D01*
X-2392501Y-34350000D01*
X-2436698Y-34446776D01*
X-2455133Y-34574997D01*
X-2455133Y-34575002D01*
X-5544867Y-34575002D01*
X-5544867Y-34574997D01*
X-5563301Y-34446776D01*
X-5617118Y-34328936D01*
X-5701950Y-34231033D01*
X-5810933Y-34160995D01*
X-5935223Y-34124500D01*
X-5935228Y-34124500D01*
X-6064772Y-34124500D01*
X-6064776Y-34124500D01*
X-6189066Y-34160995D01*
X-6189069Y-34160996D01*
X-6298049Y-34231033D01*
X-6382882Y-34328937D01*
X-6392501Y-34350000D01*
X-6436698Y-34446776D01*
X-6455133Y-34574997D01*
X-6455133Y-34575002D01*
X-9544867Y-34575002D01*
X-9544867Y-34574997D01*
X-9563301Y-34446776D01*
X-9617118Y-34328936D01*
X-9701950Y-34231033D01*
X-9810933Y-34160995D01*
X-9935223Y-34124500D01*
X-9935228Y-34124500D01*
X-10064772Y-34124500D01*
X-10064776Y-34124500D01*
X-10189066Y-34160995D01*
X-10189069Y-34160996D01*
X-10298049Y-34231033D01*
X-10382882Y-34328937D01*
X-10392501Y-34350000D01*
X-10436698Y-34446776D01*
X-10455133Y-34574997D01*
X-10455133Y-34575002D01*
X-13544867Y-34575002D01*
X-13544867Y-34574997D01*
X-13563301Y-34446776D01*
X-13617118Y-34328936D01*
X-13701950Y-34231033D01*
X-13810933Y-34160995D01*
X-13935223Y-34124500D01*
X-13935228Y-34124500D01*
X-14064772Y-34124500D01*
X-14064776Y-34124500D01*
X-14189066Y-34160995D01*
X-14189069Y-34160996D01*
X-14298049Y-34231033D01*
X-14382882Y-34328937D01*
X-14392501Y-34350000D01*
X-14436698Y-34446776D01*
X-14455133Y-34574997D01*
X-14455133Y-34575002D01*
X-40999500Y-34575002D01*
X-40999500Y-33350000D01*
X33995131Y-33350000D01*
X34012500Y-33459661D01*
X34062905Y-33558587D01*
X34141413Y-33637095D01*
X34240339Y-33687500D01*
X34350000Y-33704869D01*
X34459661Y-33687500D01*
X34558587Y-33637095D01*
X34637095Y-33558587D01*
X34687500Y-33459661D01*
X34704869Y-33350000D01*
X34687500Y-33240339D01*
X34637095Y-33141413D01*
X34558587Y-33062905D01*
X34558584Y-33062903D01*
X34459661Y-33012500D01*
X34350000Y-32995131D01*
X34240338Y-33012500D01*
X34141415Y-33062903D01*
X34141412Y-33062905D01*
X34062905Y-33141412D01*
X34062903Y-33141415D01*
X34012500Y-33240338D01*
X34012500Y-33240339D01*
X33995131Y-33350000D01*
X-40999500Y-33350000D01*
X-40999500Y-32350000D01*
X33995131Y-32350000D01*
X34012500Y-32459661D01*
X34062905Y-32558587D01*
X34141413Y-32637095D01*
X34240339Y-32687500D01*
X34350000Y-32704869D01*
X34459661Y-32687500D01*
X34558587Y-32637095D01*
X34637095Y-32558587D01*
X34687500Y-32459661D01*
X34704869Y-32350000D01*
X34687500Y-32240339D01*
X34637095Y-32141413D01*
X34558587Y-32062905D01*
X34558584Y-32062903D01*
X34459661Y-32012500D01*
X34350000Y-31995131D01*
X34240338Y-32012500D01*
X34141415Y-32062903D01*
X34141412Y-32062905D01*
X34062905Y-32141412D01*
X34062903Y-32141415D01*
X34012500Y-32240338D01*
X34012500Y-32240339D01*
X33995131Y-32350000D01*
X-40999500Y-32350000D01*
X-40999500Y-31350000D01*
X33995131Y-31350000D01*
X34012500Y-31459661D01*
X34062905Y-31558587D01*
X34141413Y-31637095D01*
X34240339Y-31687500D01*
X34350000Y-31704869D01*
X34459661Y-31687500D01*
X34558587Y-31637095D01*
X34637095Y-31558587D01*
X34687500Y-31459661D01*
X34704869Y-31350000D01*
X34687500Y-31240339D01*
X34637095Y-31141413D01*
X34558587Y-31062905D01*
X34558584Y-31062903D01*
X34459661Y-31012500D01*
X34350000Y-30995131D01*
X34240338Y-31012500D01*
X34141415Y-31062903D01*
X34141412Y-31062905D01*
X34062905Y-31141412D01*
X34062903Y-31141415D01*
X34012500Y-31240338D01*
X34012500Y-31240339D01*
X33995131Y-31350000D01*
X-40999500Y-31350000D01*
X-40999500Y-30149661D01*
X37570728Y-30149661D01*
X37600769Y-30345768D01*
X37600770Y-30345775D01*
X37635870Y-30440546D01*
X37669675Y-30531820D01*
X37774620Y-30700189D01*
X37911309Y-30843986D01*
X37911314Y-30843990D01*
X38074141Y-30957321D01*
X38074146Y-30957324D01*
X38256465Y-31035563D01*
X38450801Y-31075500D01*
X38450802Y-31075500D01*
X38599467Y-31075500D01*
X38599473Y-31075500D01*
X38747379Y-31060459D01*
X38936678Y-31001067D01*
X39110146Y-30904784D01*
X39260682Y-30775553D01*
X39382122Y-30618666D01*
X39469495Y-30440544D01*
X39519224Y-30248480D01*
X39529272Y-30050337D01*
X39499230Y-29854227D01*
X39430325Y-29668180D01*
X39325380Y-29499811D01*
X39188691Y-29356014D01*
X39188690Y-29356013D01*
X39188685Y-29356009D01*
X39025858Y-29242678D01*
X39025853Y-29242675D01*
X38843534Y-29164436D01*
X38689135Y-29132707D01*
X38649199Y-29124500D01*
X38500527Y-29124500D01*
X38401923Y-29134527D01*
X38352618Y-29139541D01*
X38163322Y-29198933D01*
X37989855Y-29295214D01*
X37989848Y-29295220D01*
X37839323Y-29424442D01*
X37839313Y-29424452D01*
X37717880Y-29581330D01*
X37717874Y-29581340D01*
X37630505Y-29759453D01*
X37580776Y-29951517D01*
X37580776Y-29951520D01*
X37570728Y-30149659D01*
X37570728Y-30149661D01*
X-40999500Y-30149661D01*
X-40999500Y-20049663D01*
X-39529272Y-20049663D01*
X-39499230Y-20245773D01*
X-39430325Y-20431820D01*
X-39325380Y-20600189D01*
X-39188691Y-20743986D01*
X-39025854Y-20857324D01*
X-38843535Y-20935563D01*
X-38649199Y-20975500D01*
X-38649198Y-20975500D01*
X-38500533Y-20975500D01*
X-38500527Y-20975500D01*
X-38352621Y-20960459D01*
X-38163322Y-20901067D01*
X-38043271Y-20834433D01*
X-37989855Y-20804785D01*
X-37989848Y-20804779D01*
X-37839323Y-20675557D01*
X-37839318Y-20675553D01*
X-37820524Y-20651274D01*
X-37717880Y-20518669D01*
X-37717874Y-20518659D01*
X-37708721Y-20500000D01*
X-7332109Y-20500000D01*
X-7313741Y-20651274D01*
X-7259705Y-20793756D01*
X-7173140Y-20919166D01*
X-7059079Y-21020216D01*
X-7059075Y-21020217D01*
X-7059074Y-21020219D01*
X-6999487Y-21051491D01*
X-6924149Y-21091032D01*
X-6776192Y-21127500D01*
X-6623808Y-21127500D01*
X-6475851Y-21091032D01*
X-6475849Y-21091031D01*
X-6340925Y-21020219D01*
X-6340920Y-21020215D01*
X-6290447Y-20975500D01*
X-6226860Y-20919166D01*
X-6226859Y-20919165D01*
X-6226858Y-20919164D01*
X-6140295Y-20793757D01*
X-6086259Y-20651275D01*
X-6067891Y-20500000D01*
X-5412109Y-20500000D01*
X-5393741Y-20651274D01*
X-5339705Y-20793756D01*
X-5253140Y-20919166D01*
X-5139079Y-21020216D01*
X-5139075Y-21020217D01*
X-5139074Y-21020219D01*
X-5079487Y-21051491D01*
X-5004149Y-21091032D01*
X-4856192Y-21127500D01*
X-4703808Y-21127500D01*
X-4555851Y-21091032D01*
X-4555849Y-21091031D01*
X-4420925Y-21020219D01*
X-4420920Y-21020215D01*
X-4370447Y-20975500D01*
X-4306860Y-20919166D01*
X-4306859Y-20919165D01*
X-4306858Y-20919164D01*
X-4220295Y-20793757D01*
X-4166259Y-20651275D01*
X-4147891Y-20500000D01*
X-3502109Y-20500000D01*
X-3483741Y-20651274D01*
X-3429705Y-20793756D01*
X-3343140Y-20919166D01*
X-3229079Y-21020216D01*
X-3229075Y-21020217D01*
X-3229074Y-21020219D01*
X-3169487Y-21051491D01*
X-3094149Y-21091032D01*
X-2946192Y-21127500D01*
X-2793808Y-21127500D01*
X-2645851Y-21091032D01*
X-2645849Y-21091031D01*
X-2510925Y-21020219D01*
X-2510920Y-21020215D01*
X-2460447Y-20975500D01*
X-2396860Y-20919166D01*
X-2396859Y-20919165D01*
X-2396858Y-20919164D01*
X-2310295Y-20793757D01*
X-2256259Y-20651275D01*
X-2237891Y-20500000D01*
X-1592109Y-20500000D01*
X-1573741Y-20651274D01*
X-1519705Y-20793756D01*
X-1433140Y-20919166D01*
X-1319079Y-21020216D01*
X-1319075Y-21020217D01*
X-1319074Y-21020219D01*
X-1259487Y-21051491D01*
X-1184149Y-21091032D01*
X-1036192Y-21127500D01*
X-883808Y-21127500D01*
X-735851Y-21091032D01*
X-735849Y-21091031D01*
X-600925Y-21020219D01*
X-600920Y-21020215D01*
X-550447Y-20975500D01*
X-486860Y-20919166D01*
X-486859Y-20919165D01*
X-486858Y-20919164D01*
X-400295Y-20793757D01*
X-346259Y-20651275D01*
X-327891Y-20500000D01*
X327891Y-20500000D01*
X346259Y-20651275D01*
X400295Y-20793757D01*
X486858Y-20919164D01*
X486859Y-20919165D01*
X486860Y-20919166D01*
X550448Y-20975500D01*
X600920Y-21020215D01*
X600925Y-21020219D01*
X735849Y-21091031D01*
X735851Y-21091032D01*
X883808Y-21127500D01*
X1036192Y-21127500D01*
X1184149Y-21091032D01*
X1259487Y-21051491D01*
X1319074Y-21020219D01*
X1319075Y-21020217D01*
X1319079Y-21020216D01*
X1433140Y-20919166D01*
X1519705Y-20793756D01*
X1573741Y-20651274D01*
X1592109Y-20500000D01*
X2247891Y-20500000D01*
X2266259Y-20651275D01*
X2320295Y-20793757D01*
X2406858Y-20919164D01*
X2406859Y-20919165D01*
X2406860Y-20919166D01*
X2470448Y-20975500D01*
X2520920Y-21020215D01*
X2520925Y-21020219D01*
X2655849Y-21091031D01*
X2655851Y-21091032D01*
X2803808Y-21127500D01*
X2956192Y-21127500D01*
X3104149Y-21091032D01*
X3179487Y-21051491D01*
X3239074Y-21020219D01*
X3239075Y-21020217D01*
X3239079Y-21020216D01*
X3353140Y-20919166D01*
X3439705Y-20793756D01*
X3493741Y-20651274D01*
X3512109Y-20500000D01*
X4157891Y-20500000D01*
X4176259Y-20651275D01*
X4230295Y-20793757D01*
X4316858Y-20919164D01*
X4316859Y-20919165D01*
X4316860Y-20919166D01*
X4380448Y-20975500D01*
X4430920Y-21020215D01*
X4430925Y-21020219D01*
X4565849Y-21091031D01*
X4565851Y-21091032D01*
X4713808Y-21127500D01*
X4866192Y-21127500D01*
X5014149Y-21091032D01*
X5089487Y-21051491D01*
X5149074Y-21020219D01*
X5149075Y-21020217D01*
X5149079Y-21020216D01*
X5263140Y-20919166D01*
X5349705Y-20793756D01*
X5403741Y-20651274D01*
X5422109Y-20500000D01*
X6067891Y-20500000D01*
X6086259Y-20651275D01*
X6140295Y-20793757D01*
X6226858Y-20919164D01*
X6226859Y-20919165D01*
X6226860Y-20919166D01*
X6290448Y-20975500D01*
X6340920Y-21020215D01*
X6340925Y-21020219D01*
X6475849Y-21091031D01*
X6475851Y-21091032D01*
X6623808Y-21127500D01*
X6776192Y-21127500D01*
X6924149Y-21091032D01*
X6999487Y-21051491D01*
X7059074Y-21020219D01*
X7059075Y-21020217D01*
X7059079Y-21020216D01*
X7173140Y-20919166D01*
X7259705Y-20793756D01*
X7313741Y-20651274D01*
X7332109Y-20500000D01*
X7313741Y-20348726D01*
X7259705Y-20206244D01*
X7219834Y-20148482D01*
X7173141Y-20080835D01*
X7173140Y-20080834D01*
X7137953Y-20049661D01*
X37570728Y-20049661D01*
X37600769Y-20245768D01*
X37600770Y-20245775D01*
X37635870Y-20340546D01*
X37669675Y-20431820D01*
X37774620Y-20600189D01*
X37911309Y-20743986D01*
X37911314Y-20743990D01*
X38074141Y-20857321D01*
X38074146Y-20857324D01*
X38256465Y-20935563D01*
X38450801Y-20975500D01*
X38450802Y-20975500D01*
X38599467Y-20975500D01*
X38599473Y-20975500D01*
X38747379Y-20960459D01*
X38936678Y-20901067D01*
X39110146Y-20804784D01*
X39260682Y-20675553D01*
X39382122Y-20518666D01*
X39469495Y-20340544D01*
X39519224Y-20148480D01*
X39529272Y-19950337D01*
X39499230Y-19754227D01*
X39430325Y-19568180D01*
X39325380Y-19399811D01*
X39188691Y-19256014D01*
X39188690Y-19256013D01*
X39188685Y-19256009D01*
X39025858Y-19142678D01*
X39025853Y-19142675D01*
X38843534Y-19064436D01*
X38661826Y-19027095D01*
X38649199Y-19024500D01*
X38500527Y-19024500D01*
X38401923Y-19034527D01*
X38352618Y-19039541D01*
X38163322Y-19098933D01*
X37989855Y-19195214D01*
X37989848Y-19195220D01*
X37839323Y-19324442D01*
X37839313Y-19324452D01*
X37717880Y-19481330D01*
X37717874Y-19481340D01*
X37630505Y-19659453D01*
X37580776Y-19851517D01*
X37580776Y-19851520D01*
X37570728Y-20049659D01*
X37570728Y-20049661D01*
X7137953Y-20049661D01*
X7059079Y-19979784D01*
X7059074Y-19979780D01*
X6924150Y-19908968D01*
X6776192Y-19872500D01*
X6623808Y-19872500D01*
X6475849Y-19908968D01*
X6340925Y-19979780D01*
X6340920Y-19979784D01*
X6226859Y-20080834D01*
X6226858Y-20080835D01*
X6140295Y-20206242D01*
X6086259Y-20348724D01*
X6067891Y-20500000D01*
X5422109Y-20500000D01*
X5403741Y-20348726D01*
X5349705Y-20206244D01*
X5309834Y-20148482D01*
X5263141Y-20080835D01*
X5263140Y-20080834D01*
X5149079Y-19979784D01*
X5149074Y-19979780D01*
X5014150Y-19908968D01*
X4866192Y-19872500D01*
X4713808Y-19872500D01*
X4565849Y-19908968D01*
X4430925Y-19979780D01*
X4430920Y-19979784D01*
X4316859Y-20080834D01*
X4316858Y-20080835D01*
X4230295Y-20206242D01*
X4176259Y-20348724D01*
X4157891Y-20500000D01*
X3512109Y-20500000D01*
X3493741Y-20348726D01*
X3439705Y-20206244D01*
X3399834Y-20148482D01*
X3353141Y-20080835D01*
X3353140Y-20080834D01*
X3239079Y-19979784D01*
X3239074Y-19979780D01*
X3104150Y-19908968D01*
X2956192Y-19872500D01*
X2803808Y-19872500D01*
X2655849Y-19908968D01*
X2520925Y-19979780D01*
X2520920Y-19979784D01*
X2406859Y-20080834D01*
X2406858Y-20080835D01*
X2320295Y-20206242D01*
X2266259Y-20348724D01*
X2247891Y-20500000D01*
X1592109Y-20500000D01*
X1573741Y-20348726D01*
X1519705Y-20206244D01*
X1479834Y-20148482D01*
X1433141Y-20080835D01*
X1433140Y-20080834D01*
X1319079Y-19979784D01*
X1319074Y-19979780D01*
X1184150Y-19908968D01*
X1036192Y-19872500D01*
X883808Y-19872500D01*
X735849Y-19908968D01*
X600925Y-19979780D01*
X600920Y-19979784D01*
X486859Y-20080834D01*
X486858Y-20080835D01*
X400295Y-20206242D01*
X346259Y-20348724D01*
X327891Y-20500000D01*
X-327891Y-20500000D01*
X-346259Y-20348724D01*
X-400295Y-20206242D01*
X-486858Y-20080835D01*
X-486859Y-20080834D01*
X-600920Y-19979784D01*
X-600925Y-19979780D01*
X-735849Y-19908968D01*
X-883808Y-19872500D01*
X-1036192Y-19872500D01*
X-1184150Y-19908968D01*
X-1319074Y-19979780D01*
X-1319079Y-19979784D01*
X-1433140Y-20080834D01*
X-1433141Y-20080835D01*
X-1479834Y-20148482D01*
X-1519705Y-20206244D01*
X-1573741Y-20348726D01*
X-1592109Y-20500000D01*
X-2237891Y-20500000D01*
X-2256259Y-20348724D01*
X-2310295Y-20206242D01*
X-2396858Y-20080835D01*
X-2396859Y-20080834D01*
X-2510920Y-19979784D01*
X-2510925Y-19979780D01*
X-2645849Y-19908968D01*
X-2793808Y-19872500D01*
X-2946192Y-19872500D01*
X-3094150Y-19908968D01*
X-3229074Y-19979780D01*
X-3229079Y-19979784D01*
X-3343140Y-20080834D01*
X-3343141Y-20080835D01*
X-3389834Y-20148482D01*
X-3429705Y-20206244D01*
X-3483741Y-20348726D01*
X-3502109Y-20500000D01*
X-4147891Y-20500000D01*
X-4166259Y-20348724D01*
X-4220295Y-20206242D01*
X-4306858Y-20080835D01*
X-4306859Y-20080834D01*
X-4420920Y-19979784D01*
X-4420925Y-19979780D01*
X-4555849Y-19908968D01*
X-4703808Y-19872500D01*
X-4856192Y-19872500D01*
X-5004150Y-19908968D01*
X-5139074Y-19979780D01*
X-5139079Y-19979784D01*
X-5253140Y-20080834D01*
X-5253141Y-20080835D01*
X-5299834Y-20148482D01*
X-5339705Y-20206244D01*
X-5393741Y-20348726D01*
X-5412109Y-20500000D01*
X-6067891Y-20500000D01*
X-6086259Y-20348724D01*
X-6140295Y-20206242D01*
X-6226858Y-20080835D01*
X-6226859Y-20080834D01*
X-6340920Y-19979784D01*
X-6340925Y-19979780D01*
X-6475849Y-19908968D01*
X-6623808Y-19872500D01*
X-6776192Y-19872500D01*
X-6924150Y-19908968D01*
X-7059074Y-19979780D01*
X-7059079Y-19979784D01*
X-7173140Y-20080834D01*
X-7173141Y-20080835D01*
X-7219834Y-20148482D01*
X-7259705Y-20206244D01*
X-7313741Y-20348726D01*
X-7332109Y-20500000D01*
X-37708721Y-20500000D01*
X-37630505Y-20340546D01*
X-37580776Y-20148482D01*
X-37580776Y-20148479D01*
X-37570728Y-19950337D01*
X-37600769Y-19754231D01*
X-37600770Y-19754224D01*
X-37669674Y-19568181D01*
X-37774621Y-19399809D01*
X-37911309Y-19256013D01*
X-37911314Y-19256009D01*
X-38074141Y-19142678D01*
X-38074146Y-19142675D01*
X-38256465Y-19064436D01*
X-38438174Y-19027095D01*
X-38450801Y-19024500D01*
X-38599473Y-19024500D01*
X-38710402Y-19035780D01*
X-38747381Y-19039541D01*
X-38826730Y-19064437D01*
X-38936678Y-19098933D01*
X-39003310Y-19135917D01*
X-39110144Y-19195214D01*
X-39110146Y-19195216D01*
X-39260682Y-19324447D01*
X-39382122Y-19481334D01*
X-39382124Y-19481339D01*
X-39382125Y-19481340D01*
X-39424722Y-19568181D01*
X-39469495Y-19659456D01*
X-39519224Y-19851520D01*
X-39529272Y-20049663D01*
X-40999500Y-20049663D01*
X-40999500Y-18740000D01*
X-34624869Y-18740000D01*
X-34607500Y-18849661D01*
X-34557095Y-18948587D01*
X-34478587Y-19027095D01*
X-34379661Y-19077500D01*
X-34270000Y-19094869D01*
X-34160339Y-19077500D01*
X-34061413Y-19027095D01*
X-33982905Y-18948587D01*
X-33932500Y-18849661D01*
X-33915131Y-18740000D01*
X-33932500Y-18630339D01*
X-33932499Y-18630339D01*
X-33932500Y-18630338D01*
X-33982903Y-18531415D01*
X-33982905Y-18531412D01*
X-34061412Y-18452905D01*
X-34061415Y-18452903D01*
X-34160338Y-18402500D01*
X-34270000Y-18385131D01*
X-34379661Y-18402500D01*
X-34478584Y-18452903D01*
X-34478587Y-18452905D01*
X-34557095Y-18531413D01*
X-34607500Y-18630339D01*
X-34624869Y-18740000D01*
X-40999500Y-18740000D01*
X-40999500Y-18250000D01*
X33995131Y-18250000D01*
X34012500Y-18359661D01*
X34060009Y-18452905D01*
X34062905Y-18458587D01*
X34141413Y-18537095D01*
X34240339Y-18587500D01*
X34350000Y-18604869D01*
X34459661Y-18587500D01*
X34558587Y-18537095D01*
X34637095Y-18458587D01*
X34687500Y-18359661D01*
X34704869Y-18250000D01*
X34687500Y-18140339D01*
X34637095Y-18041413D01*
X34558587Y-17962905D01*
X34558584Y-17962903D01*
X34459661Y-17912500D01*
X34350000Y-17895131D01*
X34240338Y-17912500D01*
X34141415Y-17962903D01*
X34141412Y-17962905D01*
X34062905Y-18041412D01*
X34062903Y-18041415D01*
X34012500Y-18140338D01*
X33995131Y-18250000D01*
X-40999500Y-18250000D01*
X-40999500Y-17740000D01*
X-34624869Y-17740000D01*
X-34607500Y-17849661D01*
X-34557095Y-17948587D01*
X-34478587Y-18027095D01*
X-34379661Y-18077500D01*
X-34270000Y-18094869D01*
X-34160339Y-18077500D01*
X-34061413Y-18027095D01*
X-33982905Y-17948587D01*
X-33932500Y-17849661D01*
X-33915131Y-17740000D01*
X-33932500Y-17630339D01*
X-33932499Y-17630339D01*
X-33932500Y-17630338D01*
X-33982903Y-17531415D01*
X-33982905Y-17531412D01*
X-34061412Y-17452905D01*
X-34061415Y-17452903D01*
X-34160338Y-17402500D01*
X-34270000Y-17385131D01*
X-34379661Y-17402500D01*
X-34478584Y-17452903D01*
X-34478587Y-17452905D01*
X-34557095Y-17531413D01*
X-34607500Y-17630339D01*
X-34624869Y-17740000D01*
X-40999500Y-17740000D01*
X-40999500Y-17250000D01*
X33995131Y-17250000D01*
X34012500Y-17359661D01*
X34060009Y-17452905D01*
X34062905Y-17458587D01*
X34141413Y-17537095D01*
X34240339Y-17587500D01*
X34350000Y-17604869D01*
X34459661Y-17587500D01*
X34558587Y-17537095D01*
X34637095Y-17458587D01*
X34687500Y-17359661D01*
X34704869Y-17250000D01*
X34687500Y-17140339D01*
X34637095Y-17041413D01*
X34558587Y-16962905D01*
X34558584Y-16962903D01*
X34459661Y-16912500D01*
X34350000Y-16895131D01*
X34240338Y-16912500D01*
X34141415Y-16962903D01*
X34141412Y-16962905D01*
X34062905Y-17041412D01*
X34062903Y-17041415D01*
X34012500Y-17140338D01*
X33995131Y-17250000D01*
X-40999500Y-17250000D01*
X-40999500Y-16740000D01*
X-34624869Y-16740000D01*
X-34607500Y-16849661D01*
X-34557095Y-16948587D01*
X-34478587Y-17027095D01*
X-34379661Y-17077500D01*
X-34270000Y-17094869D01*
X-34160339Y-17077500D01*
X-34061413Y-17027095D01*
X-33982905Y-16948587D01*
X-33932500Y-16849661D01*
X-33915131Y-16740000D01*
X-33932500Y-16630339D01*
X-33932499Y-16630339D01*
X-33932500Y-16630338D01*
X-33982903Y-16531415D01*
X-33982905Y-16531412D01*
X-34061412Y-16452905D01*
X-34061415Y-16452903D01*
X-34160338Y-16402500D01*
X-34270000Y-16385131D01*
X-34379661Y-16402500D01*
X-34478584Y-16452903D01*
X-34478587Y-16452905D01*
X-34557095Y-16531413D01*
X-34607500Y-16630339D01*
X-34624869Y-16740000D01*
X-40999500Y-16740000D01*
X-40999500Y-16250000D01*
X33995131Y-16250000D01*
X34012500Y-16359661D01*
X34060009Y-16452905D01*
X34062905Y-16458587D01*
X34141413Y-16537095D01*
X34240339Y-16587500D01*
X34350000Y-16604869D01*
X34459661Y-16587500D01*
X34558587Y-16537095D01*
X34637095Y-16458587D01*
X34687500Y-16359661D01*
X34704869Y-16250000D01*
X34687500Y-16140339D01*
X34637095Y-16041413D01*
X34558587Y-15962905D01*
X34558584Y-15962903D01*
X34459661Y-15912500D01*
X34350000Y-15895131D01*
X34240338Y-15912500D01*
X34141415Y-15962903D01*
X34141412Y-15962905D01*
X34062905Y-16041412D01*
X34062903Y-16041415D01*
X34012500Y-16140338D01*
X33995131Y-16250000D01*
X-40999500Y-16250000D01*
X-40999500Y-15740000D01*
X-34624869Y-15740000D01*
X-34607500Y-15849661D01*
X-34557095Y-15948587D01*
X-34478587Y-16027095D01*
X-34379661Y-16077500D01*
X-34270000Y-16094869D01*
X-34160339Y-16077500D01*
X-34061413Y-16027095D01*
X-33982905Y-15948587D01*
X-33932500Y-15849661D01*
X-33915131Y-15740000D01*
X-33932500Y-15630339D01*
X-33932499Y-15630339D01*
X-33932500Y-15630338D01*
X-33982903Y-15531415D01*
X-33982905Y-15531412D01*
X-34061412Y-15452905D01*
X-34061415Y-15452903D01*
X-34160338Y-15402500D01*
X-34270000Y-15385131D01*
X-34379661Y-15402500D01*
X-34478584Y-15452903D01*
X-34478587Y-15452905D01*
X-34557095Y-15531413D01*
X-34607500Y-15630339D01*
X-34624869Y-15740000D01*
X-40999500Y-15740000D01*
X-40999500Y-15250000D01*
X33995131Y-15250000D01*
X34012500Y-15359661D01*
X34060009Y-15452905D01*
X34062905Y-15458587D01*
X34141413Y-15537095D01*
X34240339Y-15587500D01*
X34350000Y-15604869D01*
X34459661Y-15587500D01*
X34558587Y-15537095D01*
X34637095Y-15458587D01*
X34687500Y-15359661D01*
X34704869Y-15250000D01*
X34687500Y-15140339D01*
X34637095Y-15041413D01*
X34558587Y-14962905D01*
X34558584Y-14962903D01*
X34459661Y-14912500D01*
X34350000Y-14895131D01*
X34240338Y-14912500D01*
X34141415Y-14962903D01*
X34141412Y-14962905D01*
X34062905Y-15041412D01*
X34062903Y-15041415D01*
X34012500Y-15140338D01*
X33995131Y-15250000D01*
X-40999500Y-15250000D01*
X-40999500Y-14740000D01*
X-34624869Y-14740000D01*
X-34607500Y-14849661D01*
X-34557095Y-14948587D01*
X-34478587Y-15027095D01*
X-34379661Y-15077500D01*
X-34270000Y-15094869D01*
X-34160339Y-15077500D01*
X-34061413Y-15027095D01*
X-33982905Y-14948587D01*
X-33932500Y-14849661D01*
X-33915131Y-14740000D01*
X-33932500Y-14630339D01*
X-33932499Y-14630339D01*
X-33932500Y-14630338D01*
X-33982903Y-14531415D01*
X-33982905Y-14531412D01*
X-34061412Y-14452905D01*
X-34061415Y-14452903D01*
X-34160338Y-14402500D01*
X-34270000Y-14385131D01*
X-34379661Y-14402500D01*
X-34478584Y-14452903D01*
X-34478587Y-14452905D01*
X-34557095Y-14531413D01*
X-34607500Y-14630339D01*
X-34624869Y-14740000D01*
X-40999500Y-14740000D01*
X-40999500Y-14250000D01*
X33995131Y-14250000D01*
X34012500Y-14359661D01*
X34060009Y-14452905D01*
X34062905Y-14458587D01*
X34141413Y-14537095D01*
X34240339Y-14587500D01*
X34350000Y-14604869D01*
X34459661Y-14587500D01*
X34558587Y-14537095D01*
X34637095Y-14458587D01*
X34687500Y-14359661D01*
X34704869Y-14250000D01*
X34687500Y-14140339D01*
X34637095Y-14041413D01*
X34558587Y-13962905D01*
X34558584Y-13962903D01*
X34459661Y-13912500D01*
X34350000Y-13895131D01*
X34240338Y-13912500D01*
X34141415Y-13962903D01*
X34141412Y-13962905D01*
X34062905Y-14041412D01*
X34062903Y-14041415D01*
X34012500Y-14140338D01*
X33995131Y-14250000D01*
X-40999500Y-14250000D01*
X-40999500Y-13740000D01*
X-34624869Y-13740000D01*
X-34607500Y-13849661D01*
X-34557095Y-13948587D01*
X-34478587Y-14027095D01*
X-34379661Y-14077500D01*
X-34270000Y-14094869D01*
X-34160339Y-14077500D01*
X-34061413Y-14027095D01*
X-33982905Y-13948587D01*
X-33932500Y-13849661D01*
X-33915131Y-13740000D01*
X-33932500Y-13630339D01*
X-33932499Y-13630339D01*
X-33932500Y-13630338D01*
X-33982903Y-13531415D01*
X-33982905Y-13531412D01*
X-34061412Y-13452905D01*
X-34061415Y-13452903D01*
X-34160338Y-13402500D01*
X-34270000Y-13385131D01*
X-34379661Y-13402500D01*
X-34478584Y-13452903D01*
X-34478587Y-13452905D01*
X-34557095Y-13531413D01*
X-34607500Y-13630339D01*
X-34624869Y-13740000D01*
X-40999500Y-13740000D01*
X-40999500Y-13300000D01*
X12095131Y-13300000D01*
X12112500Y-13409661D01*
X12162905Y-13508587D01*
X12241413Y-13587095D01*
X12340339Y-13637500D01*
X12450000Y-13654869D01*
X12559661Y-13637500D01*
X12658587Y-13587095D01*
X12737095Y-13508587D01*
X12787500Y-13409661D01*
X12801797Y-13319391D01*
X12821391Y-13287417D01*
X12842526Y-13278662D01*
X12897853Y-13269900D01*
X12936909Y-13250000D01*
X33995131Y-13250000D01*
X34012500Y-13359661D01*
X34060009Y-13452905D01*
X34062905Y-13458587D01*
X34141413Y-13537095D01*
X34240339Y-13587500D01*
X34350000Y-13604869D01*
X34459661Y-13587500D01*
X34558587Y-13537095D01*
X34637095Y-13458587D01*
X34687500Y-13359661D01*
X34704869Y-13250000D01*
X34687500Y-13140339D01*
X34637095Y-13041413D01*
X34558587Y-12962905D01*
X34558584Y-12962903D01*
X34459661Y-12912500D01*
X34350000Y-12895131D01*
X34240338Y-12912500D01*
X34141415Y-12962903D01*
X34141412Y-12962905D01*
X34062905Y-13041412D01*
X34062903Y-13041415D01*
X34012500Y-13140338D01*
X33995131Y-13250000D01*
X12936909Y-13250000D01*
X12996779Y-13219495D01*
X13075287Y-13140987D01*
X13125692Y-13042061D01*
X13140617Y-12947824D01*
X13160213Y-12915849D01*
X13181345Y-12907095D01*
X13232428Y-12899005D01*
X13331354Y-12848600D01*
X13409862Y-12770092D01*
X13460267Y-12671166D01*
X13476037Y-12571596D01*
X13495631Y-12539622D01*
X13516764Y-12530868D01*
X13562044Y-12523697D01*
X13660970Y-12473292D01*
X13739478Y-12394784D01*
X13789883Y-12295858D01*
X13797145Y-12250000D01*
X33995131Y-12250000D01*
X34012500Y-12359661D01*
X34060009Y-12452905D01*
X34062905Y-12458587D01*
X34141413Y-12537095D01*
X34240339Y-12587500D01*
X34350000Y-12604869D01*
X34459661Y-12587500D01*
X34558587Y-12537095D01*
X34637095Y-12458587D01*
X34687500Y-12359661D01*
X34704869Y-12250000D01*
X34687500Y-12140339D01*
X34637095Y-12041413D01*
X34558587Y-11962905D01*
X34558584Y-11962903D01*
X34459661Y-11912500D01*
X34350000Y-11895131D01*
X34240338Y-11912500D01*
X34141415Y-11962903D01*
X34141412Y-11962905D01*
X34062905Y-12041412D01*
X34062903Y-12041415D01*
X34012500Y-12140338D01*
X33995131Y-12250000D01*
X13797145Y-12250000D01*
X13799935Y-12232385D01*
X13819530Y-12200410D01*
X13840664Y-12191656D01*
X13923159Y-12178590D01*
X14022085Y-12128185D01*
X14100593Y-12049677D01*
X14150998Y-11950751D01*
X14163374Y-11872613D01*
X14182969Y-11840638D01*
X14204105Y-11831883D01*
X14207609Y-11831328D01*
X14272043Y-11821123D01*
X14370969Y-11770718D01*
X14449477Y-11692210D01*
X14499882Y-11593284D01*
X14517251Y-11483623D01*
X14515104Y-11470068D01*
X14523857Y-11433602D01*
X14555833Y-11414006D01*
X14555837Y-11414005D01*
X14556998Y-11413820D01*
X14560426Y-11413278D01*
X14659352Y-11362873D01*
X14737860Y-11284365D01*
X14755370Y-11250000D01*
X33995131Y-11250000D01*
X34012500Y-11359661D01*
X34060009Y-11452905D01*
X34062905Y-11458587D01*
X34141413Y-11537095D01*
X34240339Y-11587500D01*
X34350000Y-11604869D01*
X34459661Y-11587500D01*
X34558587Y-11537095D01*
X34637095Y-11458587D01*
X34687500Y-11359661D01*
X34704869Y-11250000D01*
X34687500Y-11140339D01*
X34637095Y-11041413D01*
X34558587Y-10962905D01*
X34558584Y-10962903D01*
X34459661Y-10912500D01*
X34350000Y-10895131D01*
X34240338Y-10912500D01*
X34141415Y-10962903D01*
X34141412Y-10962905D01*
X34062905Y-11041412D01*
X34062903Y-11041415D01*
X34012500Y-11140338D01*
X33995131Y-11250000D01*
X14755370Y-11250000D01*
X14788265Y-11185439D01*
X14805634Y-11075778D01*
X14805634Y-11075775D01*
X14805634Y-11071921D01*
X14808005Y-11071921D01*
X14814850Y-11042976D01*
X14846759Y-11023273D01*
X14846800Y-11023266D01*
X14868218Y-11019874D01*
X14967144Y-10969469D01*
X15045652Y-10890961D01*
X15096057Y-10792035D01*
X15113426Y-10682374D01*
X15096057Y-10572713D01*
X15045652Y-10473787D01*
X14967144Y-10395279D01*
X14967141Y-10395277D01*
X14868218Y-10344874D01*
X14758557Y-10327505D01*
X14648895Y-10344874D01*
X14549972Y-10395277D01*
X14549969Y-10395279D01*
X14471462Y-10473786D01*
X14471460Y-10473789D01*
X14421057Y-10572712D01*
X14403688Y-10682376D01*
X14403688Y-10686230D01*
X14401357Y-10686230D01*
X14394371Y-10715314D01*
X14362399Y-10734904D01*
X14341103Y-10738277D01*
X14341101Y-10738278D01*
X14242184Y-10788678D01*
X14242177Y-10788683D01*
X14163670Y-10867190D01*
X14163668Y-10867193D01*
X14113265Y-10966116D01*
X14095896Y-11075778D01*
X14098043Y-11089335D01*
X14089287Y-11125801D01*
X14057314Y-11145395D01*
X14052720Y-11146122D01*
X14052718Y-11146123D01*
X13953801Y-11196523D01*
X13953794Y-11196528D01*
X13875287Y-11275035D01*
X13875285Y-11275038D01*
X13824882Y-11373961D01*
X13812506Y-11452098D01*
X13792910Y-11484074D01*
X13771775Y-11492829D01*
X13703836Y-11503590D01*
X13604913Y-11553993D01*
X13604910Y-11553995D01*
X13526403Y-11632502D01*
X13526401Y-11632505D01*
X13475998Y-11731428D01*
X13465944Y-11794901D01*
X13446347Y-11826877D01*
X13425213Y-11835631D01*
X13342721Y-11848697D01*
X13243798Y-11899100D01*
X13243795Y-11899102D01*
X13165288Y-11977609D01*
X13165286Y-11977612D01*
X13114883Y-12076535D01*
X13099113Y-12176102D01*
X13079517Y-12208078D01*
X13058383Y-12216832D01*
X13013105Y-12224004D01*
X13013103Y-12224005D01*
X12914186Y-12274405D01*
X12914179Y-12274410D01*
X12835672Y-12352917D01*
X12835670Y-12352920D01*
X12785267Y-12451843D01*
X12770341Y-12546078D01*
X12750745Y-12578054D01*
X12729611Y-12586809D01*
X12678530Y-12594900D01*
X12579607Y-12645303D01*
X12579604Y-12645305D01*
X12501097Y-12723812D01*
X12501095Y-12723815D01*
X12450692Y-12822738D01*
X12450692Y-12822739D01*
X12438613Y-12899005D01*
X12436395Y-12913006D01*
X12416799Y-12944982D01*
X12395664Y-12953737D01*
X12340338Y-12962500D01*
X12241415Y-13012903D01*
X12241412Y-13012905D01*
X12162905Y-13091412D01*
X12162903Y-13091415D01*
X12112500Y-13190338D01*
X12112500Y-13190339D01*
X12095131Y-13300000D01*
X-40999500Y-13300000D01*
X-40999500Y-12740000D01*
X-34624869Y-12740000D01*
X-34607500Y-12849661D01*
X-34557095Y-12948587D01*
X-34478587Y-13027095D01*
X-34379661Y-13077500D01*
X-34270000Y-13094869D01*
X-34160339Y-13077500D01*
X-34061413Y-13027095D01*
X-33982905Y-12948587D01*
X-33965093Y-12913630D01*
X-33932500Y-12849661D01*
X-33915131Y-12740000D01*
X-33932500Y-12630338D01*
X-33982903Y-12531415D01*
X-33982905Y-12531412D01*
X-34061412Y-12452905D01*
X-34061415Y-12452903D01*
X-34160338Y-12402500D01*
X-34270000Y-12385131D01*
X-34379661Y-12402500D01*
X-34478584Y-12452903D01*
X-34478587Y-12452905D01*
X-34557095Y-12531413D01*
X-34607500Y-12630339D01*
X-34624869Y-12740000D01*
X-40999500Y-12740000D01*
X-40999500Y-11740000D01*
X-34624869Y-11740000D01*
X-34607500Y-11849661D01*
X-34557095Y-11948587D01*
X-34478587Y-12027095D01*
X-34379661Y-12077500D01*
X-34270000Y-12094869D01*
X-34160339Y-12077500D01*
X-34061413Y-12027095D01*
X-33982905Y-11948587D01*
X-33944195Y-11872615D01*
X-33932500Y-11849661D01*
X-33915131Y-11740000D01*
X-33932500Y-11630338D01*
X-33982903Y-11531415D01*
X-33982905Y-11531412D01*
X-34061412Y-11452905D01*
X-34061415Y-11452903D01*
X-34160338Y-11402500D01*
X-34270000Y-11385131D01*
X-34379661Y-11402500D01*
X-34478584Y-11452903D01*
X-34478587Y-11452905D01*
X-34557095Y-11531413D01*
X-34607500Y-11630339D01*
X-34624869Y-11740000D01*
X-40999500Y-11740000D01*
X-40999500Y-10740000D01*
X-34624869Y-10740000D01*
X-34607500Y-10849661D01*
X-34557095Y-10948587D01*
X-34478587Y-11027095D01*
X-34379661Y-11077500D01*
X-34270000Y-11094869D01*
X-34160339Y-11077500D01*
X-34061413Y-11027095D01*
X-33982905Y-10948587D01*
X-33932500Y-10849661D01*
X-33915131Y-10740000D01*
X-33919041Y-10715314D01*
X-33932500Y-10630338D01*
X-33982903Y-10531415D01*
X-33982905Y-10531412D01*
X-34061412Y-10452905D01*
X-34061415Y-10452903D01*
X-34160338Y-10402500D01*
X-34270000Y-10385131D01*
X-34379661Y-10402500D01*
X-34478584Y-10452903D01*
X-34478587Y-10452905D01*
X-34557095Y-10531413D01*
X-34607500Y-10630339D01*
X-34624869Y-10740000D01*
X-40999500Y-10740000D01*
X-40999500Y-10250000D01*
X33995131Y-10250000D01*
X34012500Y-10359661D01*
X34060009Y-10452905D01*
X34062905Y-10458587D01*
X34141413Y-10537095D01*
X34240339Y-10587500D01*
X34350000Y-10604869D01*
X34459661Y-10587500D01*
X34558587Y-10537095D01*
X34637095Y-10458587D01*
X34687500Y-10359661D01*
X34704869Y-10250000D01*
X34687500Y-10140339D01*
X34637095Y-10041413D01*
X34558587Y-9962905D01*
X34558584Y-9962903D01*
X34459661Y-9912500D01*
X34350000Y-9895131D01*
X34240338Y-9912500D01*
X34141415Y-9962903D01*
X34141412Y-9962905D01*
X34062905Y-10041412D01*
X34062903Y-10041415D01*
X34012500Y-10140338D01*
X33995131Y-10250000D01*
X-40999500Y-10250000D01*
X-40999500Y-9740000D01*
X-34624869Y-9740000D01*
X-34607500Y-9849661D01*
X-34557095Y-9948587D01*
X-34478587Y-10027095D01*
X-34379661Y-10077500D01*
X-34270000Y-10094869D01*
X-34160339Y-10077500D01*
X-34061413Y-10027095D01*
X-33982905Y-9948587D01*
X-33932500Y-9849661D01*
X-33915131Y-9740000D01*
X-33932500Y-9630339D01*
X-33932499Y-9630339D01*
X-33932500Y-9630338D01*
X-33947958Y-9600000D01*
X-6422869Y-9600000D01*
X-6405500Y-9709661D01*
X-6355095Y-9808587D01*
X-6276587Y-9887095D01*
X-6177661Y-9937500D01*
X-6068000Y-9954869D01*
X-5958339Y-9937500D01*
X-5859413Y-9887095D01*
X-5783648Y-9811330D01*
X-5749000Y-9796978D01*
X-5714352Y-9811330D01*
X-5638587Y-9887095D01*
X-5539661Y-9937500D01*
X-5430000Y-9954869D01*
X-5320339Y-9937500D01*
X-5221413Y-9887095D01*
X-5142905Y-9808587D01*
X-5092500Y-9709661D01*
X-5075131Y-9600000D01*
X-4508869Y-9600000D01*
X-4491500Y-9709661D01*
X-4441095Y-9808587D01*
X-4362587Y-9887095D01*
X-4263661Y-9937500D01*
X-4154000Y-9954869D01*
X-4044339Y-9937500D01*
X-3945413Y-9887095D01*
X-3869648Y-9811330D01*
X-3835000Y-9796978D01*
X-3800352Y-9811330D01*
X-3724587Y-9887095D01*
X-3625661Y-9937500D01*
X-3516000Y-9954869D01*
X-3406339Y-9937500D01*
X-3307413Y-9887095D01*
X-3228905Y-9808587D01*
X-3178500Y-9709661D01*
X-3161131Y-9600000D01*
X-2594869Y-9600000D01*
X-2577500Y-9709661D01*
X-2527095Y-9808587D01*
X-2448587Y-9887095D01*
X-2349661Y-9937500D01*
X-2240000Y-9954869D01*
X-2130339Y-9937500D01*
X-2031413Y-9887095D01*
X-1955648Y-9811330D01*
X-1921000Y-9796978D01*
X-1886352Y-9811330D01*
X-1810587Y-9887095D01*
X-1711661Y-9937500D01*
X-1602000Y-9954869D01*
X-1492339Y-9937500D01*
X-1393413Y-9887095D01*
X-1314905Y-9808587D01*
X-1264500Y-9709661D01*
X-1247131Y-9600000D01*
X-680869Y-9600000D01*
X-663500Y-9709661D01*
X-613095Y-9808587D01*
X-534587Y-9887095D01*
X-435661Y-9937500D01*
X-326000Y-9954869D01*
X-216339Y-9937500D01*
X-117413Y-9887095D01*
X-41648Y-9811330D01*
X-7000Y-9796978D01*
X27648Y-9811330D01*
X103413Y-9887095D01*
X202339Y-9937500D01*
X312000Y-9954869D01*
X421661Y-9937500D01*
X520587Y-9887095D01*
X599095Y-9808587D01*
X649500Y-9709661D01*
X666869Y-9600000D01*
X1233131Y-9600000D01*
X1250500Y-9709661D01*
X1300905Y-9808587D01*
X1379413Y-9887095D01*
X1478339Y-9937500D01*
X1588000Y-9954869D01*
X1697661Y-9937500D01*
X1796587Y-9887095D01*
X1872352Y-9811330D01*
X1907000Y-9796978D01*
X1941648Y-9811330D01*
X2017413Y-9887095D01*
X2116339Y-9937500D01*
X2226000Y-9954869D01*
X2335661Y-9937500D01*
X2434587Y-9887095D01*
X2513095Y-9808587D01*
X2563500Y-9709661D01*
X2580869Y-9600000D01*
X3147131Y-9600000D01*
X3164500Y-9709661D01*
X3214905Y-9808587D01*
X3293413Y-9887095D01*
X3392339Y-9937500D01*
X3502000Y-9954869D01*
X3611661Y-9937500D01*
X3710587Y-9887095D01*
X3786352Y-9811330D01*
X3821000Y-9796978D01*
X3855648Y-9811330D01*
X3931413Y-9887095D01*
X4030339Y-9937500D01*
X4140000Y-9954869D01*
X4249661Y-9937500D01*
X4348587Y-9887095D01*
X4427095Y-9808587D01*
X4477500Y-9709661D01*
X4494869Y-9600000D01*
X5061131Y-9600000D01*
X5078500Y-9709661D01*
X5128905Y-9808587D01*
X5207413Y-9887095D01*
X5306339Y-9937500D01*
X5416000Y-9954869D01*
X5525661Y-9937500D01*
X5624587Y-9887095D01*
X5700352Y-9811330D01*
X5735000Y-9796978D01*
X5769648Y-9811330D01*
X5845413Y-9887095D01*
X5944339Y-9937500D01*
X6054000Y-9954869D01*
X6163661Y-9937500D01*
X6262587Y-9887095D01*
X6341095Y-9808587D01*
X6391500Y-9709661D01*
X6408869Y-9600000D01*
X6391500Y-9490339D01*
X6341095Y-9391413D01*
X6262587Y-9312905D01*
X6262584Y-9312903D01*
X6163661Y-9262500D01*
X6054000Y-9245131D01*
X5944338Y-9262500D01*
X5845415Y-9312903D01*
X5845412Y-9312905D01*
X5769648Y-9388670D01*
X5735000Y-9403022D01*
X5700352Y-9388670D01*
X5624587Y-9312905D01*
X5624584Y-9312903D01*
X5525661Y-9262500D01*
X5416000Y-9245131D01*
X5306338Y-9262500D01*
X5207415Y-9312903D01*
X5150489Y-9369829D01*
X5132629Y-9377226D01*
X5129354Y-9387312D01*
X5130656Y-9387976D01*
X5078500Y-9490338D01*
X5071094Y-9537095D01*
X5061131Y-9600000D01*
X4494869Y-9600000D01*
X4477500Y-9490339D01*
X4427095Y-9391413D01*
X4348587Y-9312905D01*
X4348584Y-9312903D01*
X4249661Y-9262500D01*
X4140000Y-9245131D01*
X4030338Y-9262500D01*
X3931415Y-9312903D01*
X3931412Y-9312905D01*
X3855648Y-9388670D01*
X3821000Y-9403022D01*
X3786352Y-9388670D01*
X3710587Y-9312905D01*
X3710584Y-9312903D01*
X3611661Y-9262500D01*
X3502000Y-9245131D01*
X3392338Y-9262500D01*
X3293415Y-9312903D01*
X3232830Y-9373488D01*
X3219520Y-9379000D01*
X3216611Y-9387953D01*
X3216656Y-9387976D01*
X3216512Y-9388257D01*
X3215959Y-9389961D01*
X3214906Y-9391409D01*
X3164500Y-9490338D01*
X3157094Y-9537095D01*
X3147131Y-9600000D01*
X2580869Y-9600000D01*
X2563500Y-9490339D01*
X2513095Y-9391413D01*
X2434587Y-9312905D01*
X2434584Y-9312903D01*
X2335661Y-9262500D01*
X2226000Y-9245131D01*
X2116338Y-9262500D01*
X2017415Y-9312903D01*
X2017412Y-9312905D01*
X1941648Y-9388670D01*
X1907000Y-9403022D01*
X1872352Y-9388670D01*
X1796587Y-9312905D01*
X1796584Y-9312903D01*
X1697661Y-9262500D01*
X1588000Y-9245131D01*
X1478338Y-9262500D01*
X1379415Y-9312903D01*
X1379412Y-9312905D01*
X1300905Y-9391412D01*
X1300903Y-9391415D01*
X1250500Y-9490338D01*
X1243094Y-9537095D01*
X1233131Y-9600000D01*
X666869Y-9600000D01*
X649500Y-9490339D01*
X599095Y-9391413D01*
X520587Y-9312905D01*
X520584Y-9312903D01*
X421661Y-9262500D01*
X312000Y-9245131D01*
X202338Y-9262500D01*
X103415Y-9312903D01*
X103412Y-9312905D01*
X27648Y-9388670D01*
X-7000Y-9403022D01*
X-41648Y-9388670D01*
X-117412Y-9312905D01*
X-117415Y-9312903D01*
X-216338Y-9262500D01*
X-326000Y-9245131D01*
X-435661Y-9262500D01*
X-534584Y-9312903D01*
X-534587Y-9312905D01*
X-613095Y-9391413D01*
X-663500Y-9490339D01*
X-680869Y-9600000D01*
X-1247131Y-9600000D01*
X-1257094Y-9537095D01*
X-1264500Y-9490338D01*
X-1314903Y-9391415D01*
X-1314905Y-9391412D01*
X-1393412Y-9312905D01*
X-1393415Y-9312903D01*
X-1492338Y-9262500D01*
X-1602000Y-9245131D01*
X-1711661Y-9262500D01*
X-1810584Y-9312903D01*
X-1810587Y-9312905D01*
X-1886352Y-9388670D01*
X-1921000Y-9403022D01*
X-1955648Y-9388670D01*
X-2031412Y-9312905D01*
X-2031415Y-9312903D01*
X-2130338Y-9262500D01*
X-2240000Y-9245131D01*
X-2349661Y-9262500D01*
X-2448584Y-9312903D01*
X-2448587Y-9312905D01*
X-2527095Y-9391413D01*
X-2577500Y-9490339D01*
X-2594869Y-9600000D01*
X-3161131Y-9600000D01*
X-3171094Y-9537095D01*
X-3178500Y-9490338D01*
X-3228903Y-9391415D01*
X-3228905Y-9391412D01*
X-3307412Y-9312905D01*
X-3307415Y-9312903D01*
X-3406338Y-9262500D01*
X-3516000Y-9245131D01*
X-3625661Y-9262500D01*
X-3724584Y-9312903D01*
X-3724587Y-9312905D01*
X-3800352Y-9388670D01*
X-3835000Y-9403022D01*
X-3869648Y-9388670D01*
X-3945412Y-9312905D01*
X-3945415Y-9312903D01*
X-4044338Y-9262500D01*
X-4154000Y-9245131D01*
X-4263661Y-9262500D01*
X-4362584Y-9312903D01*
X-4362587Y-9312905D01*
X-4441095Y-9391413D01*
X-4491500Y-9490339D01*
X-4508869Y-9600000D01*
X-5075131Y-9600000D01*
X-5085094Y-9537095D01*
X-5092500Y-9490338D01*
X-5142903Y-9391415D01*
X-5142905Y-9391412D01*
X-5221412Y-9312905D01*
X-5221415Y-9312903D01*
X-5320338Y-9262500D01*
X-5430000Y-9245131D01*
X-5539661Y-9262500D01*
X-5638584Y-9312903D01*
X-5638587Y-9312905D01*
X-5714352Y-9388670D01*
X-5749000Y-9403022D01*
X-5783648Y-9388670D01*
X-5859412Y-9312905D01*
X-5859415Y-9312903D01*
X-5958338Y-9262500D01*
X-6068000Y-9245131D01*
X-6177661Y-9262500D01*
X-6276584Y-9312903D01*
X-6276587Y-9312905D01*
X-6355095Y-9391413D01*
X-6405500Y-9490339D01*
X-6422869Y-9600000D01*
X-33947958Y-9600000D01*
X-33982903Y-9531415D01*
X-33982905Y-9531412D01*
X-34061412Y-9452905D01*
X-34061415Y-9452903D01*
X-34160338Y-9402500D01*
X-34270000Y-9385131D01*
X-34379661Y-9402500D01*
X-34478584Y-9452903D01*
X-34478587Y-9452905D01*
X-34557095Y-9531413D01*
X-34607500Y-9630339D01*
X-34624869Y-9740000D01*
X-40999500Y-9740000D01*
X-40999500Y-9100000D01*
X-7057369Y-9100000D01*
X-7040000Y-9209661D01*
X-6989595Y-9308587D01*
X-6911087Y-9387095D01*
X-6812161Y-9437500D01*
X-6702500Y-9454869D01*
X-6592839Y-9437500D01*
X-6493913Y-9387095D01*
X-6415405Y-9308587D01*
X-6415402Y-9308583D01*
X-6365000Y-9209661D01*
X-6347631Y-9100000D01*
X-5142369Y-9100000D01*
X-5125000Y-9209661D01*
X-5074595Y-9308587D01*
X-4996087Y-9387095D01*
X-4897161Y-9437500D01*
X-4787500Y-9454869D01*
X-4677839Y-9437500D01*
X-4578913Y-9387095D01*
X-4500405Y-9308587D01*
X-4500402Y-9308583D01*
X-4450000Y-9209661D01*
X-4432631Y-9100000D01*
X-3227369Y-9100000D01*
X-3210000Y-9209661D01*
X-3159595Y-9308587D01*
X-3081087Y-9387095D01*
X-2982161Y-9437500D01*
X-2872500Y-9454869D01*
X-2762839Y-9437500D01*
X-2663913Y-9387095D01*
X-2585405Y-9308587D01*
X-2585402Y-9308583D01*
X-2535000Y-9209661D01*
X-2517631Y-9100000D01*
X-1312369Y-9100000D01*
X-1295000Y-9209661D01*
X-1244595Y-9308587D01*
X-1166087Y-9387095D01*
X-1067161Y-9437500D01*
X-957500Y-9454869D01*
X-847839Y-9437500D01*
X-748913Y-9387095D01*
X-670405Y-9308587D01*
X-670402Y-9308583D01*
X-620000Y-9209661D01*
X-602631Y-9100000D01*
X602631Y-9100000D01*
X620000Y-9209661D01*
X670402Y-9308583D01*
X670405Y-9308587D01*
X748913Y-9387095D01*
X847839Y-9437500D01*
X957500Y-9454869D01*
X1067161Y-9437500D01*
X1166087Y-9387095D01*
X1244595Y-9308587D01*
X1295000Y-9209661D01*
X1312369Y-9100000D01*
X2517631Y-9100000D01*
X2535000Y-9209661D01*
X2585402Y-9308583D01*
X2585405Y-9308587D01*
X2663913Y-9387095D01*
X2762839Y-9437500D01*
X2872500Y-9454869D01*
X2982161Y-9437500D01*
X3081087Y-9387095D01*
X3141671Y-9326510D01*
X3154981Y-9320997D01*
X3157890Y-9312047D01*
X3157844Y-9312024D01*
X3157993Y-9311730D01*
X3158547Y-9310028D01*
X3159588Y-9308593D01*
X3159595Y-9308587D01*
X3210000Y-9209661D01*
X3227369Y-9100000D01*
X4432631Y-9100000D01*
X4450000Y-9209661D01*
X4500402Y-9308583D01*
X4500405Y-9308587D01*
X4578913Y-9387095D01*
X4677839Y-9437500D01*
X4787500Y-9454869D01*
X4897161Y-9437500D01*
X4996087Y-9387095D01*
X5053012Y-9330169D01*
X5070878Y-9322769D01*
X5074157Y-9312693D01*
X5072844Y-9312024D01*
X5106927Y-9245131D01*
X5125000Y-9209661D01*
X5142369Y-9100000D01*
X6347631Y-9100000D01*
X6365000Y-9209661D01*
X6415402Y-9308583D01*
X6415405Y-9308587D01*
X6493913Y-9387095D01*
X6592839Y-9437500D01*
X6702500Y-9454869D01*
X6812161Y-9437500D01*
X6911087Y-9387095D01*
X6989595Y-9308587D01*
X7019446Y-9250000D01*
X33995131Y-9250000D01*
X34012500Y-9359661D01*
X34061010Y-9454869D01*
X34062905Y-9458587D01*
X34141413Y-9537095D01*
X34240339Y-9587500D01*
X34350000Y-9604869D01*
X34459661Y-9587500D01*
X34558587Y-9537095D01*
X34637095Y-9458587D01*
X34687500Y-9359661D01*
X34704869Y-9250000D01*
X34687500Y-9140339D01*
X34637095Y-9041413D01*
X34558587Y-8962905D01*
X34558584Y-8962903D01*
X34459661Y-8912500D01*
X34350000Y-8895131D01*
X34240338Y-8912500D01*
X34141415Y-8962903D01*
X34141412Y-8962905D01*
X34062905Y-9041412D01*
X34062903Y-9041415D01*
X34012500Y-9140338D01*
X33995131Y-9250000D01*
X7019446Y-9250000D01*
X7040000Y-9209661D01*
X7057369Y-9100000D01*
X7040000Y-8990339D01*
X6989595Y-8891413D01*
X6911087Y-8812905D01*
X6911084Y-8812903D01*
X6812161Y-8762500D01*
X6702500Y-8745131D01*
X6592838Y-8762500D01*
X6493915Y-8812903D01*
X6493912Y-8812905D01*
X6415405Y-8891412D01*
X6415403Y-8891415D01*
X6365000Y-8990338D01*
X6347631Y-9100000D01*
X5142369Y-9100000D01*
X5125000Y-8990339D01*
X5074595Y-8891413D01*
X4996087Y-8812905D01*
X4996084Y-8812903D01*
X4897161Y-8762500D01*
X4787500Y-8745131D01*
X4677838Y-8762500D01*
X4578915Y-8812903D01*
X4578912Y-8812905D01*
X4500405Y-8891412D01*
X4500403Y-8891415D01*
X4450000Y-8990338D01*
X4432631Y-9100000D01*
X3227369Y-9100000D01*
X3210000Y-8990339D01*
X3159595Y-8891413D01*
X3081087Y-8812905D01*
X3081084Y-8812903D01*
X2982161Y-8762500D01*
X2872500Y-8745131D01*
X2762838Y-8762500D01*
X2663915Y-8812903D01*
X2663912Y-8812905D01*
X2585405Y-8891412D01*
X2585403Y-8891415D01*
X2535000Y-8990338D01*
X2517631Y-9100000D01*
X1312369Y-9100000D01*
X1295000Y-8990339D01*
X1244595Y-8891413D01*
X1166087Y-8812905D01*
X1166084Y-8812903D01*
X1067161Y-8762500D01*
X957500Y-8745131D01*
X847838Y-8762500D01*
X748915Y-8812903D01*
X748912Y-8812905D01*
X670405Y-8891412D01*
X670403Y-8891415D01*
X620000Y-8990338D01*
X602631Y-9100000D01*
X-602631Y-9100000D01*
X-620000Y-8990338D01*
X-670403Y-8891415D01*
X-670405Y-8891412D01*
X-748912Y-8812905D01*
X-748915Y-8812903D01*
X-847838Y-8762500D01*
X-957500Y-8745131D01*
X-1067161Y-8762500D01*
X-1166084Y-8812903D01*
X-1166087Y-8812905D01*
X-1244595Y-8891413D01*
X-1295000Y-8990339D01*
X-1312369Y-9100000D01*
X-2517631Y-9100000D01*
X-2535000Y-8990338D01*
X-2585403Y-8891415D01*
X-2585405Y-8891412D01*
X-2663912Y-8812905D01*
X-2663915Y-8812903D01*
X-2762838Y-8762500D01*
X-2872500Y-8745131D01*
X-2982161Y-8762500D01*
X-3081084Y-8812903D01*
X-3081087Y-8812905D01*
X-3159595Y-8891413D01*
X-3210000Y-8990339D01*
X-3227369Y-9100000D01*
X-4432631Y-9100000D01*
X-4450000Y-8990338D01*
X-4500403Y-8891415D01*
X-4500405Y-8891412D01*
X-4578912Y-8812905D01*
X-4578915Y-8812903D01*
X-4677838Y-8762500D01*
X-4787500Y-8745131D01*
X-4897161Y-8762500D01*
X-4996084Y-8812903D01*
X-4996087Y-8812905D01*
X-5074595Y-8891413D01*
X-5125000Y-8990339D01*
X-5142369Y-9100000D01*
X-6347631Y-9100000D01*
X-6365000Y-8990338D01*
X-6415403Y-8891415D01*
X-6415405Y-8891412D01*
X-6493912Y-8812905D01*
X-6493915Y-8812903D01*
X-6592838Y-8762500D01*
X-6702500Y-8745131D01*
X-6812161Y-8762500D01*
X-6911084Y-8812903D01*
X-6911087Y-8812905D01*
X-6989595Y-8891413D01*
X-7040000Y-8990339D01*
X-7057369Y-9100000D01*
X-40999500Y-9100000D01*
X-40999500Y-8049663D01*
X-39529272Y-8049663D01*
X-39499230Y-8245773D01*
X-39430325Y-8431820D01*
X-39325380Y-8600189D01*
X-39188691Y-8743986D01*
X-39025854Y-8857324D01*
X-38843535Y-8935563D01*
X-38649199Y-8975500D01*
X-38649198Y-8975500D01*
X-38500533Y-8975500D01*
X-38500527Y-8975500D01*
X-38352621Y-8960459D01*
X-38163322Y-8901067D01*
X-38004485Y-8812905D01*
X-37989855Y-8804785D01*
X-37989848Y-8804779D01*
X-37839323Y-8675557D01*
X-37839318Y-8675553D01*
X-37780981Y-8600189D01*
X-37717880Y-8518669D01*
X-37717874Y-8518659D01*
X-37630505Y-8340546D01*
X-37580776Y-8148482D01*
X-37580776Y-8148479D01*
X-37575765Y-8049661D01*
X37570728Y-8049661D01*
X37600769Y-8245768D01*
X37600770Y-8245775D01*
X37635870Y-8340546D01*
X37669675Y-8431820D01*
X37774620Y-8600189D01*
X37911309Y-8743986D01*
X37911314Y-8743990D01*
X38074141Y-8857321D01*
X38074146Y-8857324D01*
X38256465Y-8935563D01*
X38450801Y-8975500D01*
X38450802Y-8975500D01*
X38599467Y-8975500D01*
X38599473Y-8975500D01*
X38747379Y-8960459D01*
X38936678Y-8901067D01*
X39110146Y-8804784D01*
X39260682Y-8675553D01*
X39382122Y-8518666D01*
X39469495Y-8340544D01*
X39519224Y-8148480D01*
X39529272Y-7950337D01*
X39499230Y-7754227D01*
X39430325Y-7568180D01*
X39325380Y-7399811D01*
X39188691Y-7256014D01*
X39188690Y-7256013D01*
X39188685Y-7256009D01*
X39025858Y-7142678D01*
X39025853Y-7142675D01*
X38843534Y-7064436D01*
X38689135Y-7032707D01*
X38649199Y-7024500D01*
X38500527Y-7024500D01*
X38401923Y-7034527D01*
X38352618Y-7039541D01*
X38163322Y-7098933D01*
X37989855Y-7195214D01*
X37989848Y-7195220D01*
X37839323Y-7324442D01*
X37839313Y-7324452D01*
X37717880Y-7481330D01*
X37717874Y-7481340D01*
X37630505Y-7659453D01*
X37580776Y-7851517D01*
X37580776Y-7851520D01*
X37570728Y-8049659D01*
X37570728Y-8049661D01*
X-37575765Y-8049661D01*
X-37572767Y-7990538D01*
X-8000557Y-7990538D01*
X-8000540Y-7999997D01*
X-8000541Y-8000000D01*
X-8000520Y-8000049D01*
X-8000501Y-8000098D01*
X-8000431Y-8000265D01*
X-8000383Y-8000383D01*
X-8000000Y-8000541D01*
X-7999997Y-8000539D01*
X-7990327Y-8000534D01*
X-7990157Y-8000500D01*
X7990157Y-8000500D01*
X7990327Y-8000534D01*
X7999997Y-8000539D01*
X8000000Y-8000541D01*
X8000383Y-8000383D01*
X8000431Y-8000265D01*
X8000501Y-8000098D01*
X8000520Y-8000049D01*
X8000541Y-8000000D01*
X8000540Y-7999997D01*
X8000557Y-7990538D01*
X8000500Y-7990245D01*
X8000500Y-6702500D01*
X8745131Y-6702500D01*
X8762500Y-6812161D01*
X8812905Y-6911087D01*
X8891413Y-6989595D01*
X8990339Y-7040000D01*
X9100000Y-7057369D01*
X9209661Y-7040000D01*
X9308587Y-6989595D01*
X9387095Y-6911087D01*
X9437500Y-6812161D01*
X9454869Y-6702500D01*
X9454473Y-6700000D01*
X19117891Y-6700000D01*
X19136259Y-6851275D01*
X19190295Y-6993757D01*
X19276858Y-7119164D01*
X19276859Y-7119165D01*
X19390920Y-7220215D01*
X19390925Y-7220219D01*
X19525849Y-7291031D01*
X19525851Y-7291032D01*
X19673808Y-7327500D01*
X19826192Y-7327500D01*
X19974149Y-7291032D01*
X20049487Y-7251491D01*
X20109074Y-7220219D01*
X20109075Y-7220217D01*
X20109079Y-7220216D01*
X20223140Y-7119166D01*
X20309705Y-6993756D01*
X20363741Y-6851274D01*
X20382109Y-6700000D01*
X20363741Y-6548726D01*
X20309705Y-6406244D01*
X20305049Y-6399499D01*
X20223141Y-6280835D01*
X20223140Y-6280834D01*
X20109079Y-6179784D01*
X20109074Y-6179780D01*
X19974150Y-6108968D01*
X19826192Y-6072500D01*
X19673808Y-6072500D01*
X19525849Y-6108968D01*
X19390925Y-6179780D01*
X19390920Y-6179784D01*
X19276859Y-6280834D01*
X19276858Y-6280835D01*
X19190295Y-6406242D01*
X19136259Y-6548724D01*
X19117891Y-6700000D01*
X9454473Y-6700000D01*
X9437500Y-6592839D01*
X9387095Y-6493913D01*
X9308587Y-6415405D01*
X9308584Y-6415403D01*
X9209661Y-6365000D01*
X9100000Y-6347631D01*
X8990338Y-6365000D01*
X8891415Y-6415403D01*
X8891412Y-6415405D01*
X8812905Y-6493912D01*
X8812903Y-6493915D01*
X8762500Y-6592838D01*
X8762500Y-6592839D01*
X8745131Y-6702500D01*
X8000500Y-6702500D01*
X8000500Y-6062000D01*
X9245131Y-6062000D01*
X9262500Y-6171661D01*
X9308828Y-6262587D01*
X9312905Y-6270587D01*
X9391413Y-6349095D01*
X9490339Y-6399500D01*
X9600000Y-6416869D01*
X9709661Y-6399500D01*
X9808587Y-6349095D01*
X9887095Y-6270587D01*
X9937500Y-6171661D01*
X9954869Y-6062000D01*
X9937500Y-5952339D01*
X9887095Y-5853413D01*
X9811330Y-5777648D01*
X9796978Y-5743000D01*
X9811330Y-5708352D01*
X9828613Y-5691069D01*
X9887095Y-5632587D01*
X9937500Y-5533661D01*
X9954869Y-5424000D01*
X9937500Y-5314339D01*
X9887095Y-5215413D01*
X9808587Y-5136905D01*
X9808584Y-5136903D01*
X9709661Y-5086500D01*
X9600000Y-5069131D01*
X9490338Y-5086500D01*
X9391415Y-5136903D01*
X9391412Y-5136905D01*
X9312905Y-5215412D01*
X9312903Y-5215415D01*
X9262500Y-5314338D01*
X9245131Y-5424000D01*
X9262500Y-5533661D01*
X9312903Y-5632584D01*
X9312905Y-5632587D01*
X9388670Y-5708352D01*
X9403022Y-5743000D01*
X9388670Y-5777648D01*
X9312905Y-5853412D01*
X9312903Y-5853415D01*
X9262500Y-5952338D01*
X9245131Y-6062000D01*
X8000500Y-6062000D01*
X8000500Y-4787500D01*
X8745131Y-4787500D01*
X8762500Y-4897161D01*
X8784976Y-4941274D01*
X8812905Y-4996087D01*
X8891413Y-5074595D01*
X8990339Y-5125000D01*
X9100000Y-5142369D01*
X9209661Y-5125000D01*
X9308587Y-5074595D01*
X9387095Y-4996087D01*
X9437500Y-4897161D01*
X9454473Y-4790000D01*
X19117891Y-4790000D01*
X19136259Y-4941275D01*
X19190295Y-5083757D01*
X19276858Y-5209164D01*
X19276859Y-5209165D01*
X19390920Y-5310215D01*
X19390925Y-5310219D01*
X19525849Y-5381031D01*
X19525851Y-5381032D01*
X19673808Y-5417500D01*
X19826192Y-5417500D01*
X19974149Y-5381032D01*
X20049487Y-5341491D01*
X20109074Y-5310219D01*
X20109075Y-5310217D01*
X20109079Y-5310216D01*
X20223140Y-5209166D01*
X20309705Y-5083756D01*
X20363741Y-4941274D01*
X20382109Y-4790000D01*
X20363741Y-4638726D01*
X20309705Y-4496244D01*
X20308755Y-4494868D01*
X20223141Y-4370835D01*
X20223140Y-4370834D01*
X20109079Y-4269784D01*
X20109074Y-4269780D01*
X19974150Y-4198968D01*
X19826192Y-4162500D01*
X19673808Y-4162500D01*
X19525849Y-4198968D01*
X19390925Y-4269780D01*
X19390920Y-4269784D01*
X19276859Y-4370834D01*
X19276858Y-4370835D01*
X19190295Y-4496242D01*
X19136259Y-4638724D01*
X19117891Y-4790000D01*
X9454473Y-4790000D01*
X9454869Y-4787500D01*
X9437500Y-4677839D01*
X9387095Y-4578913D01*
X9308587Y-4500405D01*
X9308584Y-4500403D01*
X9209661Y-4450000D01*
X9100000Y-4432631D01*
X8990338Y-4450000D01*
X8891415Y-4500403D01*
X8891412Y-4500405D01*
X8812905Y-4578912D01*
X8812903Y-4578915D01*
X8762500Y-4677838D01*
X8745131Y-4787500D01*
X8000500Y-4787500D01*
X8000500Y-4148000D01*
X9245131Y-4148000D01*
X9262500Y-4257661D01*
X9308828Y-4348587D01*
X9312905Y-4356587D01*
X9391413Y-4435095D01*
X9490339Y-4485500D01*
X9600000Y-4502869D01*
X9709661Y-4485500D01*
X9808587Y-4435095D01*
X9887095Y-4356587D01*
X9937500Y-4257661D01*
X9954869Y-4148000D01*
X9937500Y-4038339D01*
X9887095Y-3939413D01*
X9811330Y-3863648D01*
X9796978Y-3829000D01*
X9811330Y-3794352D01*
X9828613Y-3777069D01*
X9887095Y-3718587D01*
X9937500Y-3619661D01*
X9954869Y-3510000D01*
X9937500Y-3400339D01*
X9887095Y-3301413D01*
X9808587Y-3222905D01*
X9808584Y-3222903D01*
X9709661Y-3172500D01*
X9600000Y-3155131D01*
X9490338Y-3172500D01*
X9391415Y-3222903D01*
X9391412Y-3222905D01*
X9312905Y-3301412D01*
X9312903Y-3301415D01*
X9262500Y-3400338D01*
X9245131Y-3510000D01*
X9262500Y-3619661D01*
X9312903Y-3718584D01*
X9312905Y-3718587D01*
X9388670Y-3794352D01*
X9403022Y-3829000D01*
X9388670Y-3863648D01*
X9312905Y-3939412D01*
X9312903Y-3939415D01*
X9262500Y-4038338D01*
X9245131Y-4148000D01*
X8000500Y-4148000D01*
X8000500Y-2872500D01*
X8745131Y-2872500D01*
X8762500Y-2982161D01*
X8812905Y-3081087D01*
X8891413Y-3159595D01*
X8990339Y-3210000D01*
X9100000Y-3227369D01*
X9209661Y-3210000D01*
X9308587Y-3159595D01*
X9387095Y-3081087D01*
X9437500Y-2982161D01*
X9454869Y-2872500D01*
X9454473Y-2870000D01*
X19117891Y-2870000D01*
X19136259Y-3021275D01*
X19190295Y-3163757D01*
X19276858Y-3289164D01*
X19276859Y-3289165D01*
X19390920Y-3390215D01*
X19390925Y-3390219D01*
X19525849Y-3461031D01*
X19525851Y-3461032D01*
X19673808Y-3497500D01*
X19826192Y-3497500D01*
X19974149Y-3461032D01*
X20049487Y-3421491D01*
X20109074Y-3390219D01*
X20109075Y-3390217D01*
X20109079Y-3390216D01*
X20223140Y-3289166D01*
X20309705Y-3163756D01*
X20363741Y-3021274D01*
X20382109Y-2870000D01*
X20363741Y-2718726D01*
X20309705Y-2576244D01*
X20306430Y-2571500D01*
X20223141Y-2450835D01*
X20223140Y-2450834D01*
X20109079Y-2349784D01*
X20109074Y-2349780D01*
X19974150Y-2278968D01*
X19826192Y-2242500D01*
X19673808Y-2242500D01*
X19525849Y-2278968D01*
X19390925Y-2349780D01*
X19390920Y-2349784D01*
X19276859Y-2450834D01*
X19276858Y-2450835D01*
X19190295Y-2576242D01*
X19136259Y-2718724D01*
X19117891Y-2870000D01*
X9454473Y-2870000D01*
X9437500Y-2762839D01*
X9387095Y-2663913D01*
X9308587Y-2585405D01*
X9308584Y-2585403D01*
X9209661Y-2535000D01*
X9100000Y-2517631D01*
X8990338Y-2535000D01*
X8891415Y-2585403D01*
X8891412Y-2585405D01*
X8812905Y-2663912D01*
X8812903Y-2663915D01*
X8762500Y-2762838D01*
X8762500Y-2762839D01*
X8745131Y-2872500D01*
X8000500Y-2872500D01*
X8000500Y-2234000D01*
X9245131Y-2234000D01*
X9262500Y-2343661D01*
X9308828Y-2434587D01*
X9312905Y-2442587D01*
X9391413Y-2521095D01*
X9490339Y-2571500D01*
X9600000Y-2588869D01*
X9709661Y-2571500D01*
X9808587Y-2521095D01*
X9887095Y-2442587D01*
X9937500Y-2343661D01*
X9954869Y-2234000D01*
X9937500Y-2124339D01*
X9887095Y-2025413D01*
X9811330Y-1949648D01*
X9796978Y-1915000D01*
X9811330Y-1880352D01*
X9828613Y-1863069D01*
X9887095Y-1804587D01*
X9937500Y-1705661D01*
X9954869Y-1596000D01*
X9937500Y-1486339D01*
X9887095Y-1387413D01*
X9808587Y-1308905D01*
X9808584Y-1308903D01*
X9709661Y-1258500D01*
X9600000Y-1241131D01*
X9490338Y-1258500D01*
X9391415Y-1308903D01*
X9391412Y-1308905D01*
X9312905Y-1387412D01*
X9312903Y-1387415D01*
X9262500Y-1486338D01*
X9245131Y-1596000D01*
X9262500Y-1705661D01*
X9312903Y-1804584D01*
X9312905Y-1804587D01*
X9388670Y-1880352D01*
X9403022Y-1915000D01*
X9388670Y-1949648D01*
X9312905Y-2025412D01*
X9312903Y-2025415D01*
X9262500Y-2124338D01*
X9245131Y-2234000D01*
X8000500Y-2234000D01*
X8000500Y-957500D01*
X8745131Y-957500D01*
X8762500Y-1067161D01*
X8784976Y-1111274D01*
X8812905Y-1166087D01*
X8891413Y-1244595D01*
X8990339Y-1295000D01*
X9100000Y-1312369D01*
X9209661Y-1295000D01*
X9308587Y-1244595D01*
X9387095Y-1166087D01*
X9437500Y-1067161D01*
X9454473Y-960000D01*
X19117891Y-960000D01*
X19136259Y-1111275D01*
X19190295Y-1253757D01*
X19276858Y-1379164D01*
X19276859Y-1379165D01*
X19390920Y-1480215D01*
X19390925Y-1480219D01*
X19525849Y-1551031D01*
X19525851Y-1551032D01*
X19673808Y-1587500D01*
X19826192Y-1587500D01*
X19974149Y-1551032D01*
X20049487Y-1511491D01*
X20109074Y-1480219D01*
X20109075Y-1480217D01*
X20109079Y-1480216D01*
X20223140Y-1379166D01*
X20309705Y-1253756D01*
X20363741Y-1111274D01*
X20382109Y-960000D01*
X20363741Y-808726D01*
X20309705Y-666244D01*
X20303669Y-657500D01*
X20223141Y-540835D01*
X20223140Y-540834D01*
X20109079Y-439784D01*
X20109074Y-439780D01*
X19974150Y-368968D01*
X19826192Y-332500D01*
X19673808Y-332500D01*
X19525849Y-368968D01*
X19390925Y-439780D01*
X19390920Y-439784D01*
X19276859Y-540834D01*
X19276858Y-540835D01*
X19190295Y-666242D01*
X19136259Y-808724D01*
X19117891Y-960000D01*
X9454473Y-960000D01*
X9454869Y-957500D01*
X9437500Y-847839D01*
X9387095Y-748913D01*
X9308587Y-670405D01*
X9308584Y-670403D01*
X9209661Y-620000D01*
X9100000Y-602631D01*
X8990338Y-620000D01*
X8891415Y-670403D01*
X8891412Y-670405D01*
X8812905Y-748912D01*
X8812903Y-748915D01*
X8762500Y-847838D01*
X8745131Y-957500D01*
X8000500Y-957500D01*
X8000500Y-320000D01*
X9245131Y-320000D01*
X9262500Y-429661D01*
X9308828Y-520587D01*
X9312905Y-528587D01*
X9391413Y-607095D01*
X9490339Y-657500D01*
X9600000Y-674869D01*
X9709661Y-657500D01*
X9808587Y-607095D01*
X9887095Y-528587D01*
X9937500Y-429661D01*
X9954869Y-320000D01*
X9937500Y-210339D01*
X9887095Y-111413D01*
X9811330Y-35648D01*
X9796978Y-1000D01*
X9811330Y33648D01*
X9887094Y109412D01*
X9887096Y109415D01*
X9937499Y208338D01*
X9937500Y208339D01*
X9954869Y318000D01*
X9937500Y427661D01*
X9887095Y526587D01*
X9808587Y605095D01*
X9709661Y655500D01*
X9600000Y672869D01*
X9490339Y655500D01*
X9391413Y605095D01*
X9391412Y605094D01*
X9312905Y526587D01*
X9312903Y526584D01*
X9262500Y427661D01*
X9245131Y318000D01*
X9262500Y208338D01*
X9312903Y109415D01*
X9312905Y109412D01*
X9388670Y33648D01*
X9403022Y-1000D01*
X9388670Y-35648D01*
X9312905Y-111412D01*
X9312903Y-111415D01*
X9262500Y-210338D01*
X9245131Y-320000D01*
X8000500Y-320000D01*
X8000500Y957500D01*
X8745131Y957500D01*
X8762500Y847838D01*
X8812903Y748915D01*
X8812905Y748912D01*
X8891412Y670405D01*
X8891415Y670403D01*
X8990338Y620000D01*
X9100000Y602631D01*
X9209661Y620000D01*
X9308584Y670403D01*
X9308587Y670405D01*
X9387094Y748912D01*
X9387096Y748915D01*
X9437499Y847838D01*
X9437500Y847839D01*
X9454869Y957500D01*
X9454473Y960000D01*
X19117891Y960000D01*
X19136259Y808724D01*
X19190295Y666242D01*
X19276858Y540835D01*
X19276859Y540834D01*
X19390920Y439784D01*
X19390925Y439780D01*
X19525849Y368968D01*
X19673808Y332500D01*
X19826192Y332500D01*
X19974150Y368968D01*
X20109074Y439780D01*
X20109079Y439784D01*
X20223140Y540834D01*
X20223141Y540835D01*
X20309704Y666242D01*
X20312218Y672869D01*
X20363741Y808726D01*
X20382109Y960000D01*
X20363741Y1111274D01*
X20309705Y1253756D01*
X20223140Y1379166D01*
X20109079Y1480216D01*
X20109075Y1480217D01*
X20109074Y1480219D01*
X20049487Y1511491D01*
X19974149Y1551032D01*
X19826192Y1587500D01*
X19673808Y1587500D01*
X19525851Y1551032D01*
X19525849Y1551031D01*
X19390925Y1480219D01*
X19390921Y1480216D01*
X19292942Y1393413D01*
X19276859Y1379165D01*
X19276858Y1379164D01*
X19190295Y1253757D01*
X19136259Y1111275D01*
X19117891Y960000D01*
X9454473Y960000D01*
X9437500Y1067161D01*
X9387095Y1166087D01*
X9308587Y1244595D01*
X9209661Y1295000D01*
X9100000Y1312369D01*
X8990339Y1295000D01*
X8891413Y1244595D01*
X8891412Y1244594D01*
X8812905Y1166087D01*
X8812903Y1166084D01*
X8762500Y1067161D01*
X8745131Y957500D01*
X8000500Y957500D01*
X8000500Y1594000D01*
X9245131Y1594000D01*
X9262500Y1484338D01*
X9312903Y1385415D01*
X9312905Y1385412D01*
X9391412Y1306905D01*
X9391415Y1306903D01*
X9490338Y1256500D01*
X9600000Y1239131D01*
X9709661Y1256500D01*
X9725362Y1264500D01*
X9808584Y1306903D01*
X9808587Y1306905D01*
X9887094Y1385412D01*
X9887096Y1385415D01*
X9891172Y1393415D01*
X9937500Y1484339D01*
X9954869Y1594000D01*
X9937500Y1703661D01*
X9887095Y1802587D01*
X9811330Y1878352D01*
X9796978Y1913000D01*
X9811330Y1947648D01*
X9887094Y2023412D01*
X9887096Y2023415D01*
X9937499Y2122338D01*
X9937500Y2122339D01*
X9954869Y2232000D01*
X9937500Y2341661D01*
X9887095Y2440587D01*
X9808587Y2519095D01*
X9709661Y2569500D01*
X9600000Y2586869D01*
X9490339Y2569500D01*
X9391413Y2519095D01*
X9391412Y2519094D01*
X9312905Y2440587D01*
X9312903Y2440584D01*
X9262500Y2341661D01*
X9245131Y2232000D01*
X9262500Y2122338D01*
X9312903Y2023415D01*
X9312905Y2023412D01*
X9388670Y1947648D01*
X9403022Y1913000D01*
X9388670Y1878352D01*
X9312905Y1802587D01*
X9312903Y1802584D01*
X9262500Y1703661D01*
X9245131Y1594000D01*
X8000500Y1594000D01*
X8000500Y2872500D01*
X8745131Y2872500D01*
X8762500Y2762838D01*
X8812903Y2663915D01*
X8812905Y2663912D01*
X8891412Y2585405D01*
X8891415Y2585403D01*
X8990338Y2535000D01*
X9100000Y2517631D01*
X9209661Y2535000D01*
X9277370Y2569499D01*
X9308584Y2585403D01*
X9308587Y2585405D01*
X9387094Y2663912D01*
X9387096Y2663915D01*
X9437499Y2762838D01*
X9437500Y2762839D01*
X9454473Y2870000D01*
X19117891Y2870000D01*
X19136259Y2718724D01*
X19190295Y2576242D01*
X19276858Y2450835D01*
X19276859Y2450834D01*
X19390920Y2349784D01*
X19390925Y2349780D01*
X19525849Y2278968D01*
X19673808Y2242500D01*
X19826192Y2242500D01*
X19974150Y2278968D01*
X20109074Y2349780D01*
X20109079Y2349784D01*
X20223140Y2450834D01*
X20223141Y2450835D01*
X20309704Y2576242D01*
X20313179Y2585403D01*
X20363741Y2718726D01*
X20382109Y2870000D01*
X20363741Y3021274D01*
X20309705Y3163756D01*
X20223140Y3289166D01*
X20109079Y3390216D01*
X20109075Y3390217D01*
X20109074Y3390219D01*
X20049487Y3421491D01*
X19974149Y3461032D01*
X19826192Y3497500D01*
X19673808Y3497500D01*
X19525851Y3461032D01*
X19525849Y3461031D01*
X19390925Y3390219D01*
X19390921Y3390216D01*
X19288427Y3299413D01*
X19276859Y3289165D01*
X19276858Y3289164D01*
X19190295Y3163757D01*
X19136259Y3021275D01*
X19117891Y2870000D01*
X9454473Y2870000D01*
X9454869Y2872500D01*
X9437500Y2982161D01*
X9387095Y3081087D01*
X9308587Y3159595D01*
X9209661Y3210000D01*
X9100000Y3227369D01*
X8990339Y3210000D01*
X8891413Y3159595D01*
X8891412Y3159594D01*
X8812905Y3081087D01*
X8812903Y3081084D01*
X8762500Y2982161D01*
X8745131Y2872500D01*
X8000500Y2872500D01*
X8000500Y3508000D01*
X9245131Y3508000D01*
X9262500Y3398338D01*
X9312903Y3299415D01*
X9312905Y3299412D01*
X9391412Y3220905D01*
X9391415Y3220903D01*
X9490338Y3170500D01*
X9600000Y3153131D01*
X9709661Y3170500D01*
X9787185Y3210000D01*
X9808584Y3220903D01*
X9808587Y3220905D01*
X9887094Y3299412D01*
X9887096Y3299415D01*
X9891172Y3307415D01*
X9937500Y3398339D01*
X9954869Y3508000D01*
X9937500Y3617661D01*
X9887095Y3716587D01*
X9811330Y3792352D01*
X9796978Y3827000D01*
X9811330Y3861648D01*
X9887094Y3937412D01*
X9887096Y3937415D01*
X9937499Y4036338D01*
X9937500Y4036339D01*
X9954869Y4146000D01*
X9937500Y4255661D01*
X9887095Y4354587D01*
X9808587Y4433095D01*
X9709661Y4483500D01*
X9600000Y4500869D01*
X9490339Y4483500D01*
X9391413Y4433095D01*
X9391412Y4433094D01*
X9312905Y4354587D01*
X9312903Y4354584D01*
X9262500Y4255661D01*
X9245131Y4146000D01*
X9262500Y4036338D01*
X9312903Y3937415D01*
X9312905Y3937412D01*
X9388670Y3861648D01*
X9403022Y3827000D01*
X9388670Y3792352D01*
X9312905Y3716587D01*
X9312903Y3716584D01*
X9262500Y3617661D01*
X9245131Y3508000D01*
X8000500Y3508000D01*
X8000500Y4787500D01*
X8745131Y4787500D01*
X8762500Y4677838D01*
X8812903Y4578915D01*
X8812905Y4578912D01*
X8891412Y4500405D01*
X8891415Y4500403D01*
X8990338Y4450000D01*
X9100000Y4432631D01*
X9209661Y4450000D01*
X9308584Y4500403D01*
X9308587Y4500405D01*
X9387094Y4578912D01*
X9387096Y4578915D01*
X9437499Y4677838D01*
X9437500Y4677839D01*
X9454869Y4787500D01*
X9454473Y4790000D01*
X19117891Y4790000D01*
X19136259Y4638724D01*
X19190295Y4496242D01*
X19276858Y4370835D01*
X19276859Y4370834D01*
X19390920Y4269784D01*
X19390925Y4269780D01*
X19525849Y4198968D01*
X19673808Y4162500D01*
X19826192Y4162500D01*
X19974150Y4198968D01*
X20109074Y4269780D01*
X20109079Y4269784D01*
X20223140Y4370834D01*
X20223141Y4370835D01*
X20309704Y4496242D01*
X20311459Y4500868D01*
X20363741Y4638726D01*
X20382109Y4790000D01*
X20363741Y4941274D01*
X20309705Y5083756D01*
X20223140Y5209166D01*
X20109079Y5310216D01*
X20109075Y5310217D01*
X20109074Y5310219D01*
X20049487Y5341491D01*
X19974149Y5381032D01*
X19826192Y5417500D01*
X19673808Y5417500D01*
X19525851Y5381032D01*
X19525849Y5381031D01*
X19390925Y5310219D01*
X19390920Y5310215D01*
X19276859Y5209165D01*
X19276858Y5209164D01*
X19190295Y5083757D01*
X19136259Y4941275D01*
X19117891Y4790000D01*
X9454473Y4790000D01*
X9437500Y4897161D01*
X9387095Y4996087D01*
X9308587Y5074595D01*
X9209661Y5125000D01*
X9100000Y5142369D01*
X8990339Y5125000D01*
X8891413Y5074595D01*
X8891412Y5074594D01*
X8812905Y4996087D01*
X8812903Y4996084D01*
X8762500Y4897161D01*
X8745131Y4787500D01*
X8000500Y4787500D01*
X8000500Y5422000D01*
X9245131Y5422000D01*
X9262500Y5312338D01*
X9312903Y5213415D01*
X9312905Y5213412D01*
X9391412Y5134905D01*
X9391415Y5134903D01*
X9490338Y5084500D01*
X9600000Y5067131D01*
X9709661Y5084500D01*
X9725362Y5092500D01*
X9808584Y5134903D01*
X9808587Y5134905D01*
X9887094Y5213412D01*
X9887096Y5213415D01*
X9891172Y5221415D01*
X9937500Y5312339D01*
X9954869Y5422000D01*
X9937500Y5531661D01*
X9887095Y5630587D01*
X9811330Y5706352D01*
X9796978Y5741000D01*
X9811330Y5775648D01*
X9887094Y5851412D01*
X9887096Y5851415D01*
X9937499Y5950338D01*
X9937500Y5950339D01*
X9954869Y6060000D01*
X9937500Y6169661D01*
X9887095Y6268587D01*
X9808587Y6347095D01*
X9709661Y6397500D01*
X9600000Y6414869D01*
X9490339Y6397500D01*
X9391413Y6347095D01*
X9391412Y6347094D01*
X9312905Y6268587D01*
X9312903Y6268584D01*
X9262500Y6169661D01*
X9245131Y6060000D01*
X9262500Y5950338D01*
X9312903Y5851415D01*
X9312905Y5851412D01*
X9388670Y5775648D01*
X9403022Y5741000D01*
X9388670Y5706352D01*
X9312905Y5630587D01*
X9312903Y5630584D01*
X9262500Y5531661D01*
X9245131Y5422000D01*
X8000500Y5422000D01*
X8000500Y6702500D01*
X8745131Y6702500D01*
X8762500Y6592838D01*
X8812903Y6493915D01*
X8812905Y6493912D01*
X8891412Y6415405D01*
X8891415Y6415403D01*
X8990338Y6365000D01*
X9100000Y6347631D01*
X9209661Y6365000D01*
X9308584Y6415403D01*
X9308587Y6415405D01*
X9387094Y6493912D01*
X9387096Y6493915D01*
X9437499Y6592838D01*
X9437500Y6592839D01*
X9454473Y6700000D01*
X19117891Y6700000D01*
X19136259Y6548724D01*
X19190295Y6406242D01*
X19276858Y6280835D01*
X19276859Y6280834D01*
X19390920Y6179784D01*
X19390925Y6179780D01*
X19525849Y6108968D01*
X19673808Y6072500D01*
X19826192Y6072500D01*
X19974150Y6108968D01*
X20109074Y6179780D01*
X20109079Y6179784D01*
X20223140Y6280834D01*
X20223141Y6280835D01*
X20309704Y6406242D01*
X20312976Y6414868D01*
X20363741Y6548726D01*
X20382109Y6700000D01*
X20363741Y6851274D01*
X20309705Y6993756D01*
X20223140Y7119166D01*
X20109079Y7220216D01*
X20109075Y7220217D01*
X20109074Y7220219D01*
X20040871Y7256014D01*
X19974149Y7291032D01*
X19826192Y7327500D01*
X19673808Y7327500D01*
X19525851Y7291032D01*
X19525849Y7291031D01*
X19390925Y7220219D01*
X19390920Y7220215D01*
X19276859Y7119165D01*
X19276858Y7119164D01*
X19190295Y6993757D01*
X19136259Y6851275D01*
X19117891Y6700000D01*
X9454473Y6700000D01*
X9454869Y6702500D01*
X9437500Y6812161D01*
X9387095Y6911087D01*
X9308587Y6989595D01*
X9209661Y7040000D01*
X9100000Y7057369D01*
X8990339Y7040000D01*
X8891413Y6989595D01*
X8891412Y6989594D01*
X8812905Y6911087D01*
X8812903Y6911084D01*
X8762500Y6812161D01*
X8745131Y6702500D01*
X8000500Y6702500D01*
X8000500Y7950338D01*
X37570728Y7950338D01*
X37600769Y7754231D01*
X37600770Y7754224D01*
X37669674Y7568181D01*
X37774621Y7399809D01*
X37911309Y7256013D01*
X37911314Y7256009D01*
X38074141Y7142678D01*
X38074146Y7142675D01*
X38256465Y7064436D01*
X38417672Y7031307D01*
X38450801Y7024500D01*
X38450802Y7024500D01*
X38599467Y7024500D01*
X38599473Y7024500D01*
X38710402Y7035780D01*
X38747381Y7039541D01*
X38873578Y7079135D01*
X38936678Y7098933D01*
X39015486Y7142675D01*
X39110144Y7195214D01*
X39110151Y7195220D01*
X39260676Y7324442D01*
X39260682Y7324447D01*
X39382122Y7481334D01*
X39424722Y7568180D01*
X39469494Y7659453D01*
X39519223Y7851517D01*
X39519224Y7851520D01*
X39529272Y8049663D01*
X39499230Y8245773D01*
X39430325Y8431820D01*
X39325380Y8600189D01*
X39188691Y8743986D01*
X39025854Y8857324D01*
X38843535Y8935563D01*
X38649199Y8975500D01*
X38500527Y8975500D01*
X38352621Y8960459D01*
X38163322Y8901067D01*
X38043271Y8834433D01*
X37989855Y8804785D01*
X37989854Y8804784D01*
X37839318Y8675553D01*
X37839314Y8675548D01*
X37839313Y8675547D01*
X37717880Y8518669D01*
X37717874Y8518659D01*
X37630505Y8340546D01*
X37580776Y8148482D01*
X37580776Y8148479D01*
X37570728Y7950340D01*
X37570728Y7950338D01*
X8000500Y7950338D01*
X8000500Y7990246D01*
X8000550Y7990504D01*
X8000540Y7999997D01*
X8000541Y8000000D01*
X8000383Y8000383D01*
X8000099Y8000500D01*
X8000000Y8000541D01*
X7990362Y8000541D01*
X7990156Y8000500D01*
X-7990156Y8000500D01*
X-7990362Y8000541D01*
X-8000000Y8000541D01*
X-8000099Y8000500D01*
X-8000383Y8000383D01*
X-8000541Y8000000D01*
X-8000540Y7999997D01*
X-8000550Y7990504D01*
X-8000500Y7990246D01*
X-8000500Y-7990245D01*
X-8000557Y-7990538D01*
X-37572767Y-7990538D01*
X-37570728Y-7950337D01*
X-37600769Y-7754231D01*
X-37600770Y-7754224D01*
X-37669674Y-7568181D01*
X-37774621Y-7399809D01*
X-37911309Y-7256013D01*
X-37911314Y-7256009D01*
X-38074141Y-7142678D01*
X-38074146Y-7142675D01*
X-38256465Y-7064436D01*
X-38417672Y-7031307D01*
X-38450801Y-7024500D01*
X-38599473Y-7024500D01*
X-38710402Y-7035780D01*
X-38747381Y-7039541D01*
X-38826730Y-7064437D01*
X-38936678Y-7098933D01*
X-39003310Y-7135917D01*
X-39110144Y-7195214D01*
X-39110151Y-7195220D01*
X-39139271Y-7220219D01*
X-39260682Y-7324447D01*
X-39382122Y-7481334D01*
X-39382124Y-7481339D01*
X-39382125Y-7481340D01*
X-39424722Y-7568181D01*
X-39469495Y-7659456D01*
X-39519224Y-7851520D01*
X-39529272Y-8049663D01*
X-40999500Y-8049663D01*
X-40999500Y-6700000D01*
X-20382109Y-6700000D01*
X-20363741Y-6851274D01*
X-20309705Y-6993756D01*
X-20223140Y-7119166D01*
X-20109079Y-7220216D01*
X-20109075Y-7220217D01*
X-20109074Y-7220219D01*
X-20049487Y-7251491D01*
X-19974149Y-7291032D01*
X-19826192Y-7327500D01*
X-19673808Y-7327500D01*
X-19525851Y-7291032D01*
X-19525849Y-7291031D01*
X-19390925Y-7220219D01*
X-19390920Y-7220215D01*
X-19276859Y-7119165D01*
X-19276858Y-7119164D01*
X-19190295Y-6993757D01*
X-19136259Y-6851275D01*
X-19118195Y-6702500D01*
X-9454869Y-6702500D01*
X-9437500Y-6812161D01*
X-9387095Y-6911087D01*
X-9308587Y-6989595D01*
X-9209661Y-7040000D01*
X-9100000Y-7057369D01*
X-8990339Y-7040000D01*
X-8891413Y-6989595D01*
X-8812905Y-6911087D01*
X-8762500Y-6812161D01*
X-8745131Y-6702500D01*
X-8762500Y-6592839D01*
X-8762499Y-6592839D01*
X-8762500Y-6592838D01*
X-8812903Y-6493915D01*
X-8812905Y-6493912D01*
X-8891412Y-6415405D01*
X-8891415Y-6415403D01*
X-8990338Y-6365000D01*
X-9100000Y-6347631D01*
X-9209661Y-6365000D01*
X-9308584Y-6415403D01*
X-9308587Y-6415405D01*
X-9387095Y-6493913D01*
X-9437500Y-6592839D01*
X-9454869Y-6702500D01*
X-19118195Y-6702500D01*
X-19117891Y-6700000D01*
X-19136259Y-6548724D01*
X-19190295Y-6406242D01*
X-19276858Y-6280835D01*
X-19276859Y-6280834D01*
X-19390920Y-6179784D01*
X-19390925Y-6179780D01*
X-19525849Y-6108968D01*
X-19673808Y-6072500D01*
X-19826192Y-6072500D01*
X-19974150Y-6108968D01*
X-20109074Y-6179780D01*
X-20109079Y-6179784D01*
X-20223140Y-6280834D01*
X-20223141Y-6280835D01*
X-20305049Y-6399499D01*
X-20309705Y-6406244D01*
X-20363741Y-6548726D01*
X-20382109Y-6700000D01*
X-40999500Y-6700000D01*
X-40999500Y-4790000D01*
X-20382109Y-4790000D01*
X-20363741Y-4941274D01*
X-20309705Y-5083756D01*
X-20223140Y-5209166D01*
X-20109079Y-5310216D01*
X-20109075Y-5310217D01*
X-20109074Y-5310219D01*
X-20049487Y-5341491D01*
X-19974149Y-5381032D01*
X-19826192Y-5417500D01*
X-19673808Y-5417500D01*
X-19667722Y-5416000D01*
X-9974869Y-5416000D01*
X-9957500Y-5525661D01*
X-9907095Y-5624587D01*
X-9828587Y-5703095D01*
X-9828579Y-5703098D01*
X-9826463Y-5704637D01*
X-9806864Y-5736611D01*
X-9815615Y-5773079D01*
X-9820612Y-5778930D01*
X-9887095Y-5845413D01*
X-9937500Y-5944339D01*
X-9954869Y-6054000D01*
X-9937500Y-6163661D01*
X-9887095Y-6262587D01*
X-9808587Y-6341095D01*
X-9709661Y-6391500D01*
X-9600000Y-6408869D01*
X-9490339Y-6391500D01*
X-9391413Y-6341095D01*
X-9312905Y-6262587D01*
X-9262500Y-6163661D01*
X-9245131Y-6054000D01*
X-9262500Y-5944339D01*
X-9262499Y-5944339D01*
X-9262500Y-5944338D01*
X-9312903Y-5845415D01*
X-9312905Y-5845412D01*
X-9391411Y-5766906D01*
X-9393545Y-5765356D01*
X-9413137Y-5733377D01*
X-9404378Y-5696911D01*
X-9399387Y-5691069D01*
X-9332905Y-5624587D01*
X-9332903Y-5624584D01*
X-9282500Y-5525661D01*
X-9265131Y-5416000D01*
X-9282500Y-5306338D01*
X-9332903Y-5207415D01*
X-9332905Y-5207412D01*
X-9411412Y-5128905D01*
X-9411415Y-5128903D01*
X-9510338Y-5078500D01*
X-9620000Y-5061131D01*
X-9729661Y-5078500D01*
X-9828584Y-5128903D01*
X-9828587Y-5128905D01*
X-9907095Y-5207413D01*
X-9957500Y-5306339D01*
X-9974869Y-5416000D01*
X-19667722Y-5416000D01*
X-19525851Y-5381032D01*
X-19525849Y-5381031D01*
X-19390925Y-5310219D01*
X-19390920Y-5310215D01*
X-19276859Y-5209165D01*
X-19276858Y-5209164D01*
X-19190295Y-5083757D01*
X-19136259Y-4941275D01*
X-19117891Y-4790000D01*
X-19118195Y-4787500D01*
X-9454869Y-4787500D01*
X-9437500Y-4897161D01*
X-9387095Y-4996087D01*
X-9308587Y-5074595D01*
X-9209661Y-5125000D01*
X-9100000Y-5142369D01*
X-8990339Y-5125000D01*
X-8891413Y-5074595D01*
X-8812905Y-4996087D01*
X-8784976Y-4941274D01*
X-8762500Y-4897161D01*
X-8745131Y-4787500D01*
X-8762500Y-4677838D01*
X-8812903Y-4578915D01*
X-8812905Y-4578912D01*
X-8891412Y-4500405D01*
X-8891415Y-4500403D01*
X-8990338Y-4450000D01*
X-9100000Y-4432631D01*
X-9209661Y-4450000D01*
X-9308584Y-4500403D01*
X-9308587Y-4500405D01*
X-9387095Y-4578913D01*
X-9437500Y-4677839D01*
X-9454869Y-4787500D01*
X-19118195Y-4787500D01*
X-19136259Y-4638724D01*
X-19190295Y-4496242D01*
X-19276858Y-4370835D01*
X-19276859Y-4370834D01*
X-19390920Y-4269784D01*
X-19390925Y-4269780D01*
X-19525849Y-4198968D01*
X-19673808Y-4162500D01*
X-19826192Y-4162500D01*
X-19974150Y-4198968D01*
X-20109074Y-4269780D01*
X-20109079Y-4269784D01*
X-20223140Y-4370834D01*
X-20223141Y-4370835D01*
X-20308755Y-4494868D01*
X-20309705Y-4496244D01*
X-20363741Y-4638726D01*
X-20382109Y-4790000D01*
X-40999500Y-4790000D01*
X-40999500Y-3502000D01*
X-9974869Y-3502000D01*
X-9957500Y-3611661D01*
X-9907095Y-3710587D01*
X-9828587Y-3789095D01*
X-9828579Y-3789098D01*
X-9826463Y-3790637D01*
X-9806864Y-3822611D01*
X-9815615Y-3859079D01*
X-9820612Y-3864930D01*
X-9887095Y-3931413D01*
X-9937500Y-4030339D01*
X-9954869Y-4140000D01*
X-9937500Y-4249661D01*
X-9887095Y-4348587D01*
X-9808587Y-4427095D01*
X-9709661Y-4477500D01*
X-9600000Y-4494869D01*
X-9490339Y-4477500D01*
X-9391413Y-4427095D01*
X-9312905Y-4348587D01*
X-9262500Y-4249661D01*
X-9245131Y-4140000D01*
X-9262500Y-4030339D01*
X-9262499Y-4030339D01*
X-9262500Y-4030338D01*
X-9312903Y-3931415D01*
X-9312905Y-3931412D01*
X-9391411Y-3852906D01*
X-9393545Y-3851356D01*
X-9413137Y-3819377D01*
X-9404378Y-3782911D01*
X-9399387Y-3777069D01*
X-9332905Y-3710587D01*
X-9332903Y-3710584D01*
X-9282500Y-3611661D01*
X-9265131Y-3502000D01*
X-9282500Y-3392338D01*
X-9332903Y-3293415D01*
X-9332905Y-3293412D01*
X-9411412Y-3214905D01*
X-9411415Y-3214903D01*
X-9510338Y-3164500D01*
X-9620000Y-3147131D01*
X-9729661Y-3164500D01*
X-9828584Y-3214903D01*
X-9828587Y-3214905D01*
X-9907095Y-3293413D01*
X-9957500Y-3392339D01*
X-9974869Y-3502000D01*
X-40999500Y-3502000D01*
X-40999500Y-2870000D01*
X-20382109Y-2870000D01*
X-20363741Y-3021274D01*
X-20309705Y-3163756D01*
X-20223140Y-3289166D01*
X-20109079Y-3390216D01*
X-20109075Y-3390217D01*
X-20109074Y-3390219D01*
X-20049487Y-3421491D01*
X-19974149Y-3461032D01*
X-19826192Y-3497500D01*
X-19673808Y-3497500D01*
X-19525851Y-3461032D01*
X-19525849Y-3461031D01*
X-19390925Y-3390219D01*
X-19390920Y-3390215D01*
X-19276859Y-3289165D01*
X-19276858Y-3289164D01*
X-19190295Y-3163757D01*
X-19136259Y-3021275D01*
X-19118195Y-2872500D01*
X-9454869Y-2872500D01*
X-9437500Y-2982161D01*
X-9387095Y-3081087D01*
X-9308587Y-3159595D01*
X-9209661Y-3210000D01*
X-9100000Y-3227369D01*
X-8990339Y-3210000D01*
X-8891413Y-3159595D01*
X-8812905Y-3081087D01*
X-8762500Y-2982161D01*
X-8745131Y-2872500D01*
X-8762500Y-2762839D01*
X-8762499Y-2762839D01*
X-8762500Y-2762838D01*
X-8812903Y-2663915D01*
X-8812905Y-2663912D01*
X-8891412Y-2585405D01*
X-8891415Y-2585403D01*
X-8990338Y-2535000D01*
X-9100000Y-2517631D01*
X-9209661Y-2535000D01*
X-9308584Y-2585403D01*
X-9308587Y-2585405D01*
X-9387095Y-2663913D01*
X-9437500Y-2762839D01*
X-9454869Y-2872500D01*
X-19118195Y-2872500D01*
X-19117891Y-2870000D01*
X-19136259Y-2718724D01*
X-19190295Y-2576242D01*
X-19276858Y-2450835D01*
X-19276859Y-2450834D01*
X-19390920Y-2349784D01*
X-19390925Y-2349780D01*
X-19525849Y-2278968D01*
X-19673808Y-2242500D01*
X-19826192Y-2242500D01*
X-19974150Y-2278968D01*
X-20109074Y-2349780D01*
X-20109079Y-2349784D01*
X-20223140Y-2450834D01*
X-20223141Y-2450835D01*
X-20306430Y-2571500D01*
X-20309705Y-2576244D01*
X-20363741Y-2718726D01*
X-20382109Y-2870000D01*
X-40999500Y-2870000D01*
X-40999500Y-1588000D01*
X-9974869Y-1588000D01*
X-9957500Y-1697661D01*
X-9907095Y-1796587D01*
X-9828587Y-1875095D01*
X-9828579Y-1875098D01*
X-9826463Y-1876637D01*
X-9806864Y-1908611D01*
X-9815615Y-1945079D01*
X-9820612Y-1950930D01*
X-9887095Y-2017413D01*
X-9937500Y-2116339D01*
X-9954869Y-2226000D01*
X-9937500Y-2335661D01*
X-9887095Y-2434587D01*
X-9808587Y-2513095D01*
X-9709661Y-2563500D01*
X-9600000Y-2580869D01*
X-9490339Y-2563500D01*
X-9391413Y-2513095D01*
X-9312905Y-2434587D01*
X-9262500Y-2335661D01*
X-9245131Y-2226000D01*
X-9262500Y-2116339D01*
X-9262499Y-2116339D01*
X-9262500Y-2116338D01*
X-9312903Y-2017415D01*
X-9312905Y-2017412D01*
X-9391411Y-1938906D01*
X-9393545Y-1937356D01*
X-9413137Y-1905377D01*
X-9404378Y-1868911D01*
X-9399387Y-1863069D01*
X-9332905Y-1796587D01*
X-9332903Y-1796584D01*
X-9282500Y-1697661D01*
X-9265131Y-1588000D01*
X-9282500Y-1478338D01*
X-9332903Y-1379415D01*
X-9332905Y-1379412D01*
X-9411412Y-1300905D01*
X-9411415Y-1300903D01*
X-9510338Y-1250500D01*
X-9620000Y-1233131D01*
X-9729661Y-1250500D01*
X-9828584Y-1300903D01*
X-9828587Y-1300905D01*
X-9907095Y-1379413D01*
X-9957500Y-1478339D01*
X-9974869Y-1588000D01*
X-40999500Y-1588000D01*
X-40999500Y-960000D01*
X-20377109Y-960000D01*
X-20358741Y-1111274D01*
X-20304705Y-1253756D01*
X-20218140Y-1379166D01*
X-20104079Y-1480216D01*
X-20104075Y-1480217D01*
X-20104074Y-1480219D01*
X-20044487Y-1511491D01*
X-19969149Y-1551032D01*
X-19821192Y-1587500D01*
X-19668808Y-1587500D01*
X-19520851Y-1551032D01*
X-19520849Y-1551031D01*
X-19385925Y-1480219D01*
X-19385920Y-1480215D01*
X-19271859Y-1379165D01*
X-19271858Y-1379164D01*
X-19185295Y-1253757D01*
X-19131259Y-1111275D01*
X-19112891Y-960000D01*
X-19113195Y-957500D01*
X-9454869Y-957500D01*
X-9437500Y-1067161D01*
X-9387095Y-1166087D01*
X-9308587Y-1244595D01*
X-9209661Y-1295000D01*
X-9100000Y-1312369D01*
X-8990339Y-1295000D01*
X-8891413Y-1244595D01*
X-8812905Y-1166087D01*
X-8784976Y-1111274D01*
X-8762500Y-1067161D01*
X-8745131Y-957500D01*
X-8762500Y-847838D01*
X-8812903Y-748915D01*
X-8812905Y-748912D01*
X-8891412Y-670405D01*
X-8891415Y-670403D01*
X-8990338Y-620000D01*
X-9100000Y-602631D01*
X-9209661Y-620000D01*
X-9308584Y-670403D01*
X-9308587Y-670405D01*
X-9387095Y-748913D01*
X-9437500Y-847839D01*
X-9454869Y-957500D01*
X-19113195Y-957500D01*
X-19131259Y-808724D01*
X-19185295Y-666242D01*
X-19271858Y-540835D01*
X-19271859Y-540834D01*
X-19385920Y-439784D01*
X-19385925Y-439780D01*
X-19520849Y-368968D01*
X-19668808Y-332500D01*
X-19821192Y-332500D01*
X-19969150Y-368968D01*
X-20104074Y-439780D01*
X-20104079Y-439784D01*
X-20218140Y-540834D01*
X-20218141Y-540835D01*
X-20298669Y-657500D01*
X-20304705Y-666244D01*
X-20358741Y-808726D01*
X-20377109Y-960000D01*
X-40999500Y-960000D01*
X-40999500Y326000D01*
X-9974869Y326000D01*
X-9957500Y216339D01*
X-9907095Y117413D01*
X-9828587Y38905D01*
X-9828584Y38903D01*
X-9826463Y37363D01*
X-9806864Y5389D01*
X-9815615Y-31079D01*
X-9820612Y-36930D01*
X-9887095Y-103413D01*
X-9937500Y-202339D01*
X-9954869Y-312000D01*
X-9937500Y-421661D01*
X-9887095Y-520587D01*
X-9808587Y-599095D01*
X-9709661Y-649500D01*
X-9600000Y-666869D01*
X-9490339Y-649500D01*
X-9391413Y-599095D01*
X-9312905Y-520587D01*
X-9262500Y-421661D01*
X-9245131Y-312000D01*
X-9262500Y-202339D01*
X-9262499Y-202339D01*
X-9262500Y-202338D01*
X-9312903Y-103415D01*
X-9312905Y-103412D01*
X-9391416Y-24901D01*
X-9393547Y-23353D01*
X-9413136Y8627D01*
X-9404374Y45092D01*
X-9399386Y50931D01*
X-9332906Y117411D01*
X-9332903Y117415D01*
X-9282500Y216338D01*
X-9265131Y326000D01*
X-9282500Y435661D01*
X-9332903Y534584D01*
X-9332905Y534587D01*
X-9411412Y613094D01*
X-9411413Y613095D01*
X-9510339Y663500D01*
X-9620000Y680869D01*
X-9729661Y663500D01*
X-9828587Y613095D01*
X-9907095Y534587D01*
X-9957500Y435661D01*
X-9974869Y326000D01*
X-40999500Y326000D01*
X-40999500Y960000D01*
X-20382109Y960000D01*
X-20363741Y808726D01*
X-20312217Y672869D01*
X-20309704Y666242D01*
X-20223141Y540835D01*
X-20223140Y540834D01*
X-20109079Y439784D01*
X-20109074Y439780D01*
X-19974150Y368968D01*
X-19826192Y332500D01*
X-19673808Y332500D01*
X-19525849Y368968D01*
X-19390925Y439780D01*
X-19390920Y439784D01*
X-19276859Y540834D01*
X-19276858Y540835D01*
X-19190295Y666242D01*
X-19136259Y808724D01*
X-19118195Y957500D01*
X-9454869Y957500D01*
X-9437500Y847839D01*
X-9437499Y847838D01*
X-9387096Y748915D01*
X-9387094Y748912D01*
X-9308587Y670405D01*
X-9308584Y670403D01*
X-9209661Y620000D01*
X-9100000Y602631D01*
X-8990338Y620000D01*
X-8891415Y670403D01*
X-8891412Y670405D01*
X-8812905Y748912D01*
X-8812903Y748915D01*
X-8762500Y847838D01*
X-8745131Y957500D01*
X-8762500Y1067161D01*
X-8812903Y1166084D01*
X-8812905Y1166087D01*
X-8891412Y1244594D01*
X-8891413Y1244595D01*
X-8990339Y1295000D01*
X-9100000Y1312369D01*
X-9209661Y1295000D01*
X-9308587Y1244595D01*
X-9387095Y1166087D01*
X-9437500Y1067161D01*
X-9454869Y957500D01*
X-19118195Y957500D01*
X-19117891Y960000D01*
X-19136259Y1111275D01*
X-19190295Y1253757D01*
X-19276858Y1379164D01*
X-19276859Y1379165D01*
X-19292941Y1393413D01*
X-19390921Y1480216D01*
X-19390925Y1480219D01*
X-19525849Y1551031D01*
X-19525851Y1551032D01*
X-19673808Y1587500D01*
X-19826192Y1587500D01*
X-19974149Y1551032D01*
X-20049487Y1511491D01*
X-20109074Y1480219D01*
X-20109075Y1480217D01*
X-20109079Y1480216D01*
X-20223140Y1379166D01*
X-20309705Y1253756D01*
X-20363741Y1111274D01*
X-20382109Y960000D01*
X-40999500Y960000D01*
X-40999500Y2240000D01*
X-9974869Y2240000D01*
X-9957500Y2130339D01*
X-9953423Y2122338D01*
X-9907096Y2031415D01*
X-9907094Y2031412D01*
X-9828586Y1952904D01*
X-9826458Y1951358D01*
X-9806863Y1919382D01*
X-9815619Y1882915D01*
X-9820606Y1877075D01*
X-9887095Y1810587D01*
X-9937500Y1711661D01*
X-9954869Y1602000D01*
X-9937500Y1492339D01*
X-9887096Y1393415D01*
X-9887094Y1393412D01*
X-9808587Y1314905D01*
X-9808584Y1314903D01*
X-9709661Y1264500D01*
X-9600000Y1247131D01*
X-9490338Y1264500D01*
X-9391415Y1314903D01*
X-9391412Y1314905D01*
X-9312905Y1393412D01*
X-9312903Y1393415D01*
X-9262500Y1492338D01*
X-9245131Y1602000D01*
X-9262500Y1711661D01*
X-9312903Y1810584D01*
X-9312905Y1810587D01*
X-9391416Y1889098D01*
X-9393547Y1890647D01*
X-9413136Y1922627D01*
X-9404374Y1959092D01*
X-9399386Y1964931D01*
X-9332906Y2031411D01*
X-9332903Y2031415D01*
X-9282500Y2130338D01*
X-9265131Y2240000D01*
X-9282500Y2349661D01*
X-9332903Y2448584D01*
X-9332905Y2448587D01*
X-9411412Y2527094D01*
X-9411413Y2527095D01*
X-9510339Y2577500D01*
X-9620000Y2594869D01*
X-9729661Y2577500D01*
X-9828587Y2527095D01*
X-9907095Y2448587D01*
X-9957500Y2349661D01*
X-9974869Y2240000D01*
X-40999500Y2240000D01*
X-40999500Y2870000D01*
X-20382109Y2870000D01*
X-20363741Y2718726D01*
X-20313178Y2585403D01*
X-20309704Y2576242D01*
X-20223141Y2450835D01*
X-20223140Y2450834D01*
X-20109079Y2349784D01*
X-20109074Y2349780D01*
X-19974150Y2278968D01*
X-19826192Y2242500D01*
X-19673808Y2242500D01*
X-19525849Y2278968D01*
X-19390925Y2349780D01*
X-19390920Y2349784D01*
X-19276859Y2450834D01*
X-19276858Y2450835D01*
X-19190295Y2576242D01*
X-19136259Y2718724D01*
X-19117891Y2870000D01*
X-19118195Y2872500D01*
X-9454869Y2872500D01*
X-9437500Y2762839D01*
X-9437499Y2762838D01*
X-9387096Y2663915D01*
X-9387094Y2663912D01*
X-9308587Y2585405D01*
X-9308584Y2585403D01*
X-9209661Y2535000D01*
X-9100000Y2517631D01*
X-8990338Y2535000D01*
X-8891415Y2585403D01*
X-8891412Y2585405D01*
X-8812905Y2663912D01*
X-8812903Y2663915D01*
X-8762500Y2762838D01*
X-8745131Y2872500D01*
X-8762500Y2982161D01*
X-8812903Y3081084D01*
X-8812905Y3081087D01*
X-8891412Y3159594D01*
X-8891413Y3159595D01*
X-8990339Y3210000D01*
X-9100000Y3227369D01*
X-9209661Y3210000D01*
X-9308587Y3159595D01*
X-9387095Y3081087D01*
X-9437500Y2982161D01*
X-9454869Y2872500D01*
X-19118195Y2872500D01*
X-19136259Y3021275D01*
X-19190295Y3163757D01*
X-19276858Y3289164D01*
X-19276859Y3289165D01*
X-19288426Y3299413D01*
X-19390921Y3390216D01*
X-19390925Y3390219D01*
X-19525849Y3461031D01*
X-19525851Y3461032D01*
X-19673808Y3497500D01*
X-19826192Y3497500D01*
X-19974149Y3461032D01*
X-20049487Y3421491D01*
X-20109074Y3390219D01*
X-20109075Y3390217D01*
X-20109079Y3390216D01*
X-20223140Y3289166D01*
X-20309705Y3163756D01*
X-20363741Y3021274D01*
X-20382109Y2870000D01*
X-40999500Y2870000D01*
X-40999500Y4154000D01*
X-9974869Y4154000D01*
X-9957500Y4044339D01*
X-9953423Y4036338D01*
X-9907096Y3945415D01*
X-9907094Y3945412D01*
X-9828586Y3866904D01*
X-9826458Y3865358D01*
X-9806863Y3833382D01*
X-9815619Y3796915D01*
X-9820606Y3791075D01*
X-9887095Y3724587D01*
X-9937500Y3625661D01*
X-9954869Y3516000D01*
X-9937500Y3406339D01*
X-9929285Y3390216D01*
X-9887096Y3307415D01*
X-9887094Y3307412D01*
X-9808587Y3228905D01*
X-9808584Y3228903D01*
X-9709661Y3178500D01*
X-9600000Y3161131D01*
X-9490338Y3178500D01*
X-9391415Y3228903D01*
X-9391412Y3228905D01*
X-9312905Y3307412D01*
X-9312903Y3307415D01*
X-9262500Y3406338D01*
X-9245131Y3516000D01*
X-9262500Y3625661D01*
X-9312903Y3724584D01*
X-9312905Y3724587D01*
X-9391416Y3803098D01*
X-9393547Y3804647D01*
X-9413136Y3836627D01*
X-9404374Y3873092D01*
X-9399386Y3878931D01*
X-9332906Y3945411D01*
X-9332903Y3945415D01*
X-9282500Y4044338D01*
X-9265131Y4154000D01*
X-9282500Y4263661D01*
X-9332903Y4362584D01*
X-9332905Y4362587D01*
X-9411412Y4441094D01*
X-9411413Y4441095D01*
X-9510339Y4491500D01*
X-9620000Y4508869D01*
X-9729661Y4491500D01*
X-9828587Y4441095D01*
X-9907095Y4362587D01*
X-9957500Y4263661D01*
X-9974869Y4154000D01*
X-40999500Y4154000D01*
X-40999500Y4790000D01*
X-20382109Y4790000D01*
X-20363741Y4638726D01*
X-20311458Y4500868D01*
X-20309704Y4496242D01*
X-20223141Y4370835D01*
X-20223140Y4370834D01*
X-20109079Y4269784D01*
X-20109074Y4269780D01*
X-19974150Y4198968D01*
X-19826192Y4162500D01*
X-19673808Y4162500D01*
X-19525849Y4198968D01*
X-19390925Y4269780D01*
X-19390920Y4269784D01*
X-19276859Y4370834D01*
X-19276858Y4370835D01*
X-19190295Y4496242D01*
X-19136259Y4638724D01*
X-19118195Y4787500D01*
X-9454869Y4787500D01*
X-9437500Y4677839D01*
X-9437499Y4677838D01*
X-9387096Y4578915D01*
X-9387094Y4578912D01*
X-9308587Y4500405D01*
X-9308584Y4500403D01*
X-9209661Y4450000D01*
X-9100000Y4432631D01*
X-8990338Y4450000D01*
X-8891415Y4500403D01*
X-8891412Y4500405D01*
X-8812905Y4578912D01*
X-8812903Y4578915D01*
X-8762500Y4677838D01*
X-8745131Y4787500D01*
X-8762500Y4897161D01*
X-8812903Y4996084D01*
X-8812905Y4996087D01*
X-8891412Y5074594D01*
X-8891413Y5074595D01*
X-8990339Y5125000D01*
X-9100000Y5142369D01*
X-9209661Y5125000D01*
X-9308587Y5074595D01*
X-9387095Y4996087D01*
X-9437500Y4897161D01*
X-9454869Y4787500D01*
X-19118195Y4787500D01*
X-19117891Y4790000D01*
X-19136259Y4941275D01*
X-19190295Y5083757D01*
X-19276858Y5209164D01*
X-19276859Y5209165D01*
X-19390920Y5310215D01*
X-19390925Y5310219D01*
X-19525849Y5381031D01*
X-19525851Y5381032D01*
X-19673808Y5417500D01*
X-19826192Y5417500D01*
X-19974149Y5381032D01*
X-20049487Y5341491D01*
X-20109074Y5310219D01*
X-20109075Y5310217D01*
X-20109079Y5310216D01*
X-20223140Y5209166D01*
X-20309705Y5083756D01*
X-20363741Y4941274D01*
X-20382109Y4790000D01*
X-40999500Y4790000D01*
X-40999500Y6068000D01*
X-9974869Y6068000D01*
X-9957500Y5958339D01*
X-9953423Y5950338D01*
X-9907096Y5859415D01*
X-9907094Y5859412D01*
X-9828586Y5780904D01*
X-9826458Y5779358D01*
X-9806863Y5747382D01*
X-9815619Y5710915D01*
X-9820606Y5705075D01*
X-9887095Y5638587D01*
X-9937500Y5539661D01*
X-9954869Y5430000D01*
X-9937500Y5320339D01*
X-9887096Y5221415D01*
X-9887094Y5221412D01*
X-9808587Y5142905D01*
X-9808584Y5142903D01*
X-9709661Y5092500D01*
X-9600000Y5075131D01*
X-9490338Y5092500D01*
X-9391415Y5142903D01*
X-9391412Y5142905D01*
X-9312905Y5221412D01*
X-9312903Y5221415D01*
X-9262500Y5320338D01*
X-9245131Y5430000D01*
X-9262500Y5539661D01*
X-9312903Y5638584D01*
X-9312905Y5638587D01*
X-9391416Y5717098D01*
X-9393547Y5718647D01*
X-9413136Y5750627D01*
X-9404374Y5787092D01*
X-9399386Y5792931D01*
X-9332906Y5859411D01*
X-9332903Y5859415D01*
X-9282500Y5958338D01*
X-9265131Y6068000D01*
X-9282500Y6177661D01*
X-9332903Y6276584D01*
X-9332905Y6276587D01*
X-9411412Y6355094D01*
X-9411413Y6355095D01*
X-9510339Y6405500D01*
X-9620000Y6422869D01*
X-9729661Y6405500D01*
X-9828587Y6355095D01*
X-9907095Y6276587D01*
X-9957500Y6177661D01*
X-9974869Y6068000D01*
X-40999500Y6068000D01*
X-40999500Y6700000D01*
X-20382109Y6700000D01*
X-20363741Y6548726D01*
X-20312975Y6414868D01*
X-20309704Y6406242D01*
X-20223141Y6280835D01*
X-20223140Y6280834D01*
X-20109079Y6179784D01*
X-20109074Y6179780D01*
X-19974150Y6108968D01*
X-19826192Y6072500D01*
X-19673808Y6072500D01*
X-19525849Y6108968D01*
X-19390925Y6179780D01*
X-19390920Y6179784D01*
X-19276859Y6280834D01*
X-19276858Y6280835D01*
X-19190295Y6406242D01*
X-19136259Y6548724D01*
X-19117891Y6700000D01*
X-19118195Y6702500D01*
X-9454869Y6702500D01*
X-9437500Y6592839D01*
X-9437499Y6592838D01*
X-9387096Y6493915D01*
X-9387094Y6493912D01*
X-9308587Y6415405D01*
X-9308584Y6415403D01*
X-9209661Y6365000D01*
X-9100000Y6347631D01*
X-8990338Y6365000D01*
X-8891415Y6415403D01*
X-8891412Y6415405D01*
X-8812905Y6493912D01*
X-8812903Y6493915D01*
X-8762500Y6592838D01*
X-8745131Y6702500D01*
X-8762500Y6812161D01*
X-8812903Y6911084D01*
X-8812905Y6911087D01*
X-8891412Y6989594D01*
X-8891413Y6989595D01*
X-8990339Y7040000D01*
X-9100000Y7057369D01*
X-9209661Y7040000D01*
X-9308587Y6989595D01*
X-9387095Y6911087D01*
X-9437500Y6812161D01*
X-9454869Y6702500D01*
X-19118195Y6702500D01*
X-19136259Y6851275D01*
X-19190295Y6993757D01*
X-19276858Y7119164D01*
X-19276859Y7119165D01*
X-19390920Y7220215D01*
X-19390925Y7220219D01*
X-19525849Y7291031D01*
X-19525851Y7291032D01*
X-19673808Y7327500D01*
X-19826192Y7327500D01*
X-19974149Y7291032D01*
X-20040871Y7256014D01*
X-20109074Y7220219D01*
X-20109075Y7220217D01*
X-20109079Y7220216D01*
X-20223140Y7119166D01*
X-20309705Y6993756D01*
X-20363741Y6851274D01*
X-20382109Y6700000D01*
X-40999500Y6700000D01*
X-40999500Y7950337D01*
X-39529272Y7950337D01*
X-39499230Y7754227D01*
X-39430325Y7568180D01*
X-39325380Y7399811D01*
X-39221978Y7291032D01*
X-39188690Y7256013D01*
X-39188685Y7256009D01*
X-39025858Y7142678D01*
X-39025853Y7142675D01*
X-38843534Y7064436D01*
X-38689135Y7032707D01*
X-38649199Y7024500D01*
X-38649198Y7024500D01*
X-38500533Y7024500D01*
X-38500527Y7024500D01*
X-38401923Y7034527D01*
X-38352618Y7039541D01*
X-38163322Y7098933D01*
X-37989855Y7195214D01*
X-37989848Y7195220D01*
X-37839323Y7324442D01*
X-37839313Y7324452D01*
X-37717880Y7481330D01*
X-37717874Y7481340D01*
X-37630505Y7659453D01*
X-37580776Y7851517D01*
X-37580776Y7851520D01*
X-37570728Y8049663D01*
X-37600769Y8245768D01*
X-37600770Y8245775D01*
X-37669674Y8431818D01*
X-37723802Y8518659D01*
X-37774620Y8600189D01*
X-37911309Y8743986D01*
X-37911314Y8743990D01*
X-38074141Y8857321D01*
X-38074146Y8857324D01*
X-38256465Y8935563D01*
X-38377611Y8960459D01*
X-38450801Y8975500D01*
X-38599473Y8975500D01*
X-38747379Y8960459D01*
X-38936678Y8901067D01*
X-39110146Y8804784D01*
X-39260682Y8675553D01*
X-39382122Y8518666D01*
X-39469495Y8340544D01*
X-39519224Y8148480D01*
X-39529272Y7950337D01*
X-40999500Y7950337D01*
X-40999500Y9250000D01*
X-34604869Y9250000D01*
X-34587500Y9140339D01*
X-34587499Y9140338D01*
X-34537096Y9041415D01*
X-34537094Y9041412D01*
X-34458587Y8962905D01*
X-34458584Y8962903D01*
X-34359661Y8912500D01*
X-34250000Y8895131D01*
X-34140338Y8912500D01*
X-34041415Y8962903D01*
X-34041412Y8962905D01*
X-33962905Y9041412D01*
X-33962903Y9041415D01*
X-33933053Y9100000D01*
X-7057369Y9100000D01*
X-7040000Y8990339D01*
X-7024775Y8960459D01*
X-6989596Y8891415D01*
X-6989594Y8891412D01*
X-6911087Y8812905D01*
X-6911084Y8812903D01*
X-6812161Y8762500D01*
X-6702500Y8745131D01*
X-6592838Y8762500D01*
X-6493915Y8812903D01*
X-6493912Y8812905D01*
X-6415405Y8891412D01*
X-6415403Y8891415D01*
X-6365000Y8990338D01*
X-6347631Y9100000D01*
X-5142369Y9100000D01*
X-5125000Y8990339D01*
X-5109775Y8960459D01*
X-5074596Y8891415D01*
X-5074594Y8891412D01*
X-4996087Y8812905D01*
X-4996084Y8812903D01*
X-4897161Y8762500D01*
X-4787500Y8745131D01*
X-4677838Y8762500D01*
X-4578915Y8812903D01*
X-4578912Y8812905D01*
X-4500405Y8891412D01*
X-4500403Y8891415D01*
X-4450000Y8990338D01*
X-4432631Y9100000D01*
X-3227369Y9100000D01*
X-3210000Y8990339D01*
X-3194775Y8960459D01*
X-3159596Y8891415D01*
X-3159594Y8891412D01*
X-3081087Y8812905D01*
X-3081084Y8812903D01*
X-2982161Y8762500D01*
X-2872500Y8745131D01*
X-2762838Y8762500D01*
X-2663915Y8812903D01*
X-2663912Y8812905D01*
X-2585405Y8891412D01*
X-2585403Y8891415D01*
X-2535000Y8990338D01*
X-2517631Y9100000D01*
X-1312369Y9100000D01*
X-1295000Y8990339D01*
X-1279775Y8960459D01*
X-1244596Y8891415D01*
X-1244594Y8891412D01*
X-1166087Y8812905D01*
X-1166084Y8812903D01*
X-1067161Y8762500D01*
X-957500Y8745131D01*
X-847838Y8762500D01*
X-748915Y8812903D01*
X-748912Y8812905D01*
X-670405Y8891412D01*
X-670403Y8891415D01*
X-620000Y8990338D01*
X-602631Y9100000D01*
X602631Y9100000D01*
X620000Y8990338D01*
X670403Y8891415D01*
X670405Y8891412D01*
X748912Y8812905D01*
X748915Y8812903D01*
X847838Y8762500D01*
X957500Y8745131D01*
X1067161Y8762500D01*
X1166084Y8812903D01*
X1166087Y8812905D01*
X1244594Y8891412D01*
X1244596Y8891415D01*
X1279775Y8960459D01*
X1295000Y8990339D01*
X1312369Y9100000D01*
X2517631Y9100000D01*
X2535000Y8990338D01*
X2585403Y8891415D01*
X2585405Y8891412D01*
X2663912Y8812905D01*
X2663915Y8812903D01*
X2762838Y8762500D01*
X2872500Y8745131D01*
X2982161Y8762500D01*
X3081084Y8812903D01*
X3081087Y8812905D01*
X3159594Y8891412D01*
X3159596Y8891415D01*
X3194775Y8960459D01*
X3210000Y8990339D01*
X3227369Y9100000D01*
X4432631Y9100000D01*
X4450000Y8990338D01*
X4500403Y8891415D01*
X4500405Y8891412D01*
X4578912Y8812905D01*
X4578915Y8812903D01*
X4677838Y8762500D01*
X4787500Y8745131D01*
X4897161Y8762500D01*
X4996084Y8812903D01*
X4996087Y8812905D01*
X5074594Y8891412D01*
X5074596Y8891415D01*
X5109775Y8960459D01*
X5125000Y8990339D01*
X5142369Y9100000D01*
X6347631Y9100000D01*
X6365000Y8990338D01*
X6415403Y8891415D01*
X6415405Y8891412D01*
X6493912Y8812905D01*
X6493915Y8812903D01*
X6592838Y8762500D01*
X6702500Y8745131D01*
X6812161Y8762500D01*
X6911084Y8812903D01*
X6911087Y8812905D01*
X6989594Y8891412D01*
X6989596Y8891415D01*
X7024775Y8960459D01*
X7040000Y8990339D01*
X7057369Y9100000D01*
X7040000Y9209661D01*
X6989595Y9308587D01*
X6911087Y9387095D01*
X6812161Y9437500D01*
X6702500Y9454869D01*
X6592839Y9437500D01*
X6493913Y9387095D01*
X6493912Y9387094D01*
X6415405Y9308587D01*
X6415403Y9308584D01*
X6365000Y9209661D01*
X6347631Y9100000D01*
X5142369Y9100000D01*
X5125000Y9209661D01*
X5074595Y9308587D01*
X4996087Y9387095D01*
X4897161Y9437500D01*
X4787500Y9454869D01*
X4677839Y9437500D01*
X4578913Y9387095D01*
X4578912Y9387094D01*
X4500405Y9308587D01*
X4500403Y9308584D01*
X4450000Y9209661D01*
X4432631Y9100000D01*
X3227369Y9100000D01*
X3210000Y9209661D01*
X3159595Y9308587D01*
X3081087Y9387095D01*
X2982161Y9437500D01*
X2872500Y9454869D01*
X2762839Y9437500D01*
X2663913Y9387095D01*
X2663912Y9387094D01*
X2585405Y9308587D01*
X2585403Y9308584D01*
X2535000Y9209661D01*
X2517631Y9100000D01*
X1312369Y9100000D01*
X1295000Y9209661D01*
X1244595Y9308587D01*
X1166087Y9387095D01*
X1067161Y9437500D01*
X957500Y9454869D01*
X847839Y9437500D01*
X748913Y9387095D01*
X748912Y9387094D01*
X670405Y9308587D01*
X670403Y9308584D01*
X620000Y9209661D01*
X602631Y9100000D01*
X-602631Y9100000D01*
X-620000Y9209661D01*
X-670403Y9308584D01*
X-670405Y9308587D01*
X-748912Y9387094D01*
X-748913Y9387095D01*
X-847839Y9437500D01*
X-957500Y9454869D01*
X-1067161Y9437500D01*
X-1166087Y9387095D01*
X-1244595Y9308587D01*
X-1295000Y9209661D01*
X-1312369Y9100000D01*
X-2517631Y9100000D01*
X-2535000Y9209661D01*
X-2585403Y9308584D01*
X-2585405Y9308587D01*
X-2663912Y9387094D01*
X-2663913Y9387095D01*
X-2762839Y9437500D01*
X-2872500Y9454869D01*
X-2982161Y9437500D01*
X-3081087Y9387095D01*
X-3159595Y9308587D01*
X-3210000Y9209661D01*
X-3227369Y9100000D01*
X-4432631Y9100000D01*
X-4450000Y9209661D01*
X-4500403Y9308584D01*
X-4500405Y9308587D01*
X-4578912Y9387094D01*
X-4578913Y9387095D01*
X-4677839Y9437500D01*
X-4787500Y9454869D01*
X-4897161Y9437500D01*
X-4996087Y9387095D01*
X-5074595Y9308587D01*
X-5125000Y9209661D01*
X-5142369Y9100000D01*
X-6347631Y9100000D01*
X-6365000Y9209661D01*
X-6415403Y9308584D01*
X-6415405Y9308587D01*
X-6493912Y9387094D01*
X-6493913Y9387095D01*
X-6592839Y9437500D01*
X-6702500Y9454869D01*
X-6812161Y9437500D01*
X-6911087Y9387095D01*
X-6989595Y9308587D01*
X-7040000Y9209661D01*
X-7057369Y9100000D01*
X-33933053Y9100000D01*
X-33912500Y9140338D01*
X-33895131Y9250000D01*
X-33912500Y9359661D01*
X-33962903Y9458584D01*
X-33962905Y9458587D01*
X-34041412Y9537094D01*
X-34041413Y9537095D01*
X-34140339Y9587500D01*
X-34250000Y9604869D01*
X-34359661Y9587500D01*
X-34458587Y9537095D01*
X-34537095Y9458587D01*
X-34587500Y9359661D01*
X-34604869Y9250000D01*
X-40999500Y9250000D01*
X-40999500Y9712231D01*
X-14348200Y9712231D01*
X-14330831Y9602570D01*
X-14280427Y9503646D01*
X-14280425Y9503643D01*
X-14201918Y9425136D01*
X-14201915Y9425134D01*
X-14102992Y9374731D01*
X-13993331Y9357362D01*
X-13883669Y9374731D01*
X-13784746Y9425134D01*
X-13784743Y9425136D01*
X-13706236Y9503643D01*
X-13706234Y9503646D01*
X-13657140Y9600000D01*
X-6414869Y9600000D01*
X-6397500Y9490339D01*
X-6357839Y9412500D01*
X-6347096Y9391415D01*
X-6347094Y9391412D01*
X-6268587Y9312905D01*
X-6268584Y9312903D01*
X-6169661Y9262500D01*
X-6060000Y9245131D01*
X-5950338Y9262500D01*
X-5851415Y9312903D01*
X-5851412Y9312905D01*
X-5775648Y9388670D01*
X-5741000Y9403022D01*
X-5706352Y9388670D01*
X-5630587Y9312905D01*
X-5630584Y9312903D01*
X-5531661Y9262500D01*
X-5422000Y9245131D01*
X-5312338Y9262500D01*
X-5213415Y9312903D01*
X-5213412Y9312905D01*
X-5134905Y9391412D01*
X-5134903Y9391415D01*
X-5084500Y9490338D01*
X-5067131Y9600000D01*
X-4500869Y9600000D01*
X-4483500Y9490339D01*
X-4443839Y9412500D01*
X-4433096Y9391415D01*
X-4433094Y9391412D01*
X-4354587Y9312905D01*
X-4354584Y9312903D01*
X-4255661Y9262500D01*
X-4146000Y9245131D01*
X-4036338Y9262500D01*
X-3937415Y9312903D01*
X-3937412Y9312905D01*
X-3861648Y9388670D01*
X-3827000Y9403022D01*
X-3792352Y9388670D01*
X-3716587Y9312905D01*
X-3716584Y9312903D01*
X-3617661Y9262500D01*
X-3508000Y9245131D01*
X-3398338Y9262500D01*
X-3299415Y9312903D01*
X-3299412Y9312905D01*
X-3220905Y9391412D01*
X-3220903Y9391415D01*
X-3170500Y9490338D01*
X-3153131Y9600000D01*
X-2586869Y9600000D01*
X-2569500Y9490339D01*
X-2529839Y9412500D01*
X-2519096Y9391415D01*
X-2519094Y9391412D01*
X-2440587Y9312905D01*
X-2440584Y9312903D01*
X-2341661Y9262500D01*
X-2232000Y9245131D01*
X-2122338Y9262500D01*
X-2023415Y9312903D01*
X-2023412Y9312905D01*
X-1947648Y9388670D01*
X-1913000Y9403022D01*
X-1878352Y9388670D01*
X-1802587Y9312905D01*
X-1802584Y9312903D01*
X-1703661Y9262500D01*
X-1594000Y9245131D01*
X-1484338Y9262500D01*
X-1385415Y9312903D01*
X-1385412Y9312905D01*
X-1306905Y9391412D01*
X-1306903Y9391415D01*
X-1256500Y9490338D01*
X-1239131Y9600000D01*
X-672869Y9600000D01*
X-655500Y9490339D01*
X-615839Y9412500D01*
X-605096Y9391415D01*
X-605094Y9391412D01*
X-526587Y9312905D01*
X-526584Y9312903D01*
X-427661Y9262500D01*
X-318000Y9245131D01*
X-208338Y9262500D01*
X-109415Y9312903D01*
X-109412Y9312905D01*
X-33648Y9388670D01*
X1000Y9403022D01*
X35648Y9388670D01*
X111412Y9312905D01*
X111415Y9312903D01*
X210338Y9262500D01*
X320000Y9245131D01*
X429661Y9262500D01*
X520107Y9308584D01*
X528584Y9312903D01*
X528587Y9312905D01*
X607094Y9391412D01*
X607096Y9391415D01*
X617839Y9412500D01*
X657500Y9490339D01*
X674869Y9600000D01*
X1241131Y9600000D01*
X1258500Y9490338D01*
X1308903Y9391415D01*
X1308905Y9391412D01*
X1387412Y9312905D01*
X1387415Y9312903D01*
X1486338Y9262500D01*
X1596000Y9245131D01*
X1705661Y9262500D01*
X1796107Y9308584D01*
X1804584Y9312903D01*
X1804587Y9312905D01*
X1880352Y9388670D01*
X1915000Y9403022D01*
X1949648Y9388670D01*
X2025412Y9312905D01*
X2025415Y9312903D01*
X2124338Y9262500D01*
X2234000Y9245131D01*
X2343661Y9262500D01*
X2434107Y9308584D01*
X2442584Y9312903D01*
X2442587Y9312905D01*
X2521094Y9391412D01*
X2521096Y9391415D01*
X2531839Y9412500D01*
X2571500Y9490339D01*
X2588869Y9600000D01*
X3155131Y9600000D01*
X3172500Y9490338D01*
X3222903Y9391415D01*
X3222905Y9391412D01*
X3301412Y9312905D01*
X3301415Y9312903D01*
X3400338Y9262500D01*
X3510000Y9245131D01*
X3619661Y9262500D01*
X3710107Y9308584D01*
X3718584Y9312903D01*
X3718587Y9312905D01*
X3794352Y9388670D01*
X3829000Y9403022D01*
X3863648Y9388670D01*
X3939412Y9312905D01*
X3939415Y9312903D01*
X4038338Y9262500D01*
X4148000Y9245131D01*
X4257661Y9262500D01*
X4348107Y9308584D01*
X4356584Y9312903D01*
X4356587Y9312905D01*
X4435094Y9391412D01*
X4435096Y9391415D01*
X4445839Y9412500D01*
X4485500Y9490339D01*
X4502869Y9600000D01*
X5069131Y9600000D01*
X5086500Y9490338D01*
X5136903Y9391415D01*
X5136905Y9391412D01*
X5215412Y9312905D01*
X5215415Y9312903D01*
X5314338Y9262500D01*
X5424000Y9245131D01*
X5533661Y9262500D01*
X5624107Y9308584D01*
X5632584Y9312903D01*
X5632587Y9312905D01*
X5708352Y9388670D01*
X5743000Y9403022D01*
X5777648Y9388670D01*
X5853412Y9312905D01*
X5853415Y9312903D01*
X5952338Y9262500D01*
X6062000Y9245131D01*
X6171661Y9262500D01*
X6262107Y9308584D01*
X6270584Y9312903D01*
X6270587Y9312905D01*
X6349094Y9391412D01*
X6349096Y9391415D01*
X6359839Y9412500D01*
X6399500Y9490339D01*
X6416869Y9600000D01*
X6399500Y9709661D01*
X6378946Y9750000D01*
X33995131Y9750000D01*
X34012500Y9640338D01*
X34062903Y9541415D01*
X34062905Y9541412D01*
X34141412Y9462905D01*
X34141415Y9462903D01*
X34240338Y9412500D01*
X34350000Y9395131D01*
X34459661Y9412500D01*
X34541169Y9454030D01*
X34558584Y9462903D01*
X34558587Y9462905D01*
X34637094Y9541412D01*
X34637096Y9541415D01*
X34668256Y9602570D01*
X34687500Y9640339D01*
X34704869Y9750000D01*
X34687500Y9859661D01*
X34637095Y9958587D01*
X34558587Y10037095D01*
X34459661Y10087500D01*
X34350000Y10104869D01*
X34240339Y10087500D01*
X34141413Y10037095D01*
X34141412Y10037094D01*
X34062905Y9958587D01*
X34062903Y9958584D01*
X34012500Y9859661D01*
X33995131Y9750000D01*
X6378946Y9750000D01*
X6349095Y9808587D01*
X6270587Y9887095D01*
X6171661Y9937500D01*
X6062000Y9954869D01*
X5952339Y9937500D01*
X5853413Y9887095D01*
X5853412Y9887094D01*
X5777648Y9811330D01*
X5743000Y9796978D01*
X5708352Y9811330D01*
X5684907Y9834775D01*
X5632587Y9887095D01*
X5533661Y9937500D01*
X5424000Y9954869D01*
X5314339Y9937500D01*
X5215413Y9887095D01*
X5215412Y9887094D01*
X5136905Y9808587D01*
X5136903Y9808584D01*
X5086500Y9709661D01*
X5069131Y9600000D01*
X4502869Y9600000D01*
X4485500Y9709661D01*
X4435095Y9808587D01*
X4356587Y9887095D01*
X4257661Y9937500D01*
X4148000Y9954869D01*
X4038339Y9937500D01*
X3939413Y9887095D01*
X3939412Y9887094D01*
X3863648Y9811330D01*
X3829000Y9796978D01*
X3794352Y9811330D01*
X3770907Y9834775D01*
X3718587Y9887095D01*
X3619661Y9937500D01*
X3510000Y9954869D01*
X3400339Y9937500D01*
X3301413Y9887095D01*
X3301412Y9887094D01*
X3222905Y9808587D01*
X3222903Y9808584D01*
X3172500Y9709661D01*
X3155131Y9600000D01*
X2588869Y9600000D01*
X2571500Y9709661D01*
X2521095Y9808587D01*
X2442587Y9887095D01*
X2343661Y9937500D01*
X2234000Y9954869D01*
X2124339Y9937500D01*
X2025413Y9887095D01*
X2025412Y9887094D01*
X1949648Y9811330D01*
X1915000Y9796978D01*
X1880352Y9811330D01*
X1856907Y9834775D01*
X1804587Y9887095D01*
X1705661Y9937500D01*
X1596000Y9954869D01*
X1486339Y9937500D01*
X1387413Y9887095D01*
X1387412Y9887094D01*
X1308905Y9808587D01*
X1308903Y9808584D01*
X1258500Y9709661D01*
X1241131Y9600000D01*
X674869Y9600000D01*
X657500Y9709661D01*
X607095Y9808587D01*
X528587Y9887095D01*
X429661Y9937500D01*
X320000Y9954869D01*
X210339Y9937500D01*
X111413Y9887095D01*
X111412Y9887094D01*
X35648Y9811330D01*
X1000Y9796978D01*
X-33648Y9811330D01*
X-109412Y9887094D01*
X-109413Y9887095D01*
X-208339Y9937500D01*
X-318000Y9954869D01*
X-427661Y9937500D01*
X-526587Y9887095D01*
X-605095Y9808587D01*
X-655500Y9709661D01*
X-672869Y9600000D01*
X-1239131Y9600000D01*
X-1256500Y9709661D01*
X-1306903Y9808584D01*
X-1306905Y9808587D01*
X-1385412Y9887094D01*
X-1385413Y9887095D01*
X-1484339Y9937500D01*
X-1594000Y9954869D01*
X-1703661Y9937500D01*
X-1802587Y9887095D01*
X-1854907Y9834775D01*
X-1878352Y9811330D01*
X-1913000Y9796978D01*
X-1947648Y9811330D01*
X-2023412Y9887094D01*
X-2023413Y9887095D01*
X-2122339Y9937500D01*
X-2232000Y9954869D01*
X-2341661Y9937500D01*
X-2440587Y9887095D01*
X-2519095Y9808587D01*
X-2569500Y9709661D01*
X-2586869Y9600000D01*
X-3153131Y9600000D01*
X-3170500Y9709661D01*
X-3220903Y9808584D01*
X-3220905Y9808587D01*
X-3299412Y9887094D01*
X-3299413Y9887095D01*
X-3398339Y9937500D01*
X-3508000Y9954869D01*
X-3617661Y9937500D01*
X-3716587Y9887095D01*
X-3768907Y9834775D01*
X-3792352Y9811330D01*
X-3827000Y9796978D01*
X-3861648Y9811330D01*
X-3937412Y9887094D01*
X-3937413Y9887095D01*
X-4036339Y9937500D01*
X-4146000Y9954869D01*
X-4255661Y9937500D01*
X-4354587Y9887095D01*
X-4433095Y9808587D01*
X-4483500Y9709661D01*
X-4500869Y9600000D01*
X-5067131Y9600000D01*
X-5084500Y9709661D01*
X-5134903Y9808584D01*
X-5134905Y9808587D01*
X-5213412Y9887094D01*
X-5213413Y9887095D01*
X-5312339Y9937500D01*
X-5422000Y9954869D01*
X-5531661Y9937500D01*
X-5630587Y9887095D01*
X-5682907Y9834775D01*
X-5706352Y9811330D01*
X-5741000Y9796978D01*
X-5775648Y9811330D01*
X-5851412Y9887094D01*
X-5851413Y9887095D01*
X-5950339Y9937500D01*
X-6060000Y9954869D01*
X-6169661Y9937500D01*
X-6268587Y9887095D01*
X-6347095Y9808587D01*
X-6397500Y9709661D01*
X-6414869Y9600000D01*
X-13657140Y9600000D01*
X-13655831Y9602569D01*
X-13638462Y9712231D01*
X-13640949Y9727932D01*
X-13632194Y9764399D01*
X-13600220Y9783993D01*
X-13597843Y9784369D01*
X-13498917Y9834773D01*
X-13498914Y9834775D01*
X-13420407Y9913282D01*
X-13420405Y9913285D01*
X-13370002Y10012208D01*
X-13358193Y10086766D01*
X-13338597Y10118742D01*
X-13317463Y10127497D01*
X-13287618Y10132224D01*
X-13245904Y10138832D01*
X-13245903Y10138832D01*
X-13245899Y10138833D01*
X-13146984Y10189232D01*
X-13146977Y10189237D01*
X-13068470Y10267744D01*
X-13068468Y10267747D01*
X-13018065Y10366670D01*
X-13000382Y10478310D01*
X-12980786Y10510286D01*
X-12959652Y10519040D01*
X-12927942Y10524063D01*
X-12927940Y10524064D01*
X-12829023Y10574464D01*
X-12829016Y10574470D01*
X-12750509Y10652976D01*
X-12750507Y10652979D01*
X-12701073Y10750000D01*
X33995131Y10750000D01*
X34012500Y10640338D01*
X34062903Y10541415D01*
X34062905Y10541412D01*
X34141412Y10462905D01*
X34141415Y10462903D01*
X34240338Y10412500D01*
X34350000Y10395131D01*
X34459661Y10412500D01*
X34550107Y10458584D01*
X34558584Y10462903D01*
X34558587Y10462905D01*
X34637094Y10541412D01*
X34637096Y10541415D01*
X34653938Y10574470D01*
X34687500Y10640339D01*
X34704869Y10750000D01*
X34687500Y10859661D01*
X34637095Y10958587D01*
X34558587Y11037095D01*
X34459661Y11087500D01*
X34350000Y11104869D01*
X34240339Y11087500D01*
X34141413Y11037095D01*
X34141412Y11037094D01*
X34062905Y10958587D01*
X34062903Y10958584D01*
X34012500Y10859661D01*
X33995131Y10750000D01*
X-12701073Y10750000D01*
X-12700104Y10751902D01*
X-12682796Y10861174D01*
X-12663200Y10893150D01*
X-12642066Y10901904D01*
X-12607649Y10907356D01*
X-12508723Y10957760D01*
X-12508720Y10957762D01*
X-12430213Y11036269D01*
X-12430211Y11036272D01*
X-12379808Y11135195D01*
X-12362308Y11245681D01*
X-12342712Y11277657D01*
X-12321579Y11286411D01*
X-12288545Y11291644D01*
X-12288544Y11291644D01*
X-12288540Y11291645D01*
X-12189625Y11342044D01*
X-12189618Y11342049D01*
X-12111111Y11420556D01*
X-12111109Y11420559D01*
X-12060706Y11519482D01*
X-12042734Y11632953D01*
X-12040749Y11632638D01*
X-12028985Y11661041D01*
X-12002004Y11674789D01*
X-11973541Y11679298D01*
X-11940565Y11696099D01*
X-11874617Y11729701D01*
X-11874614Y11729703D01*
X-11854317Y11750000D01*
X33995131Y11750000D01*
X34012500Y11640338D01*
X34062903Y11541415D01*
X34062905Y11541412D01*
X34141412Y11462905D01*
X34141415Y11462903D01*
X34240338Y11412500D01*
X34350000Y11395131D01*
X34459661Y11412500D01*
X34550107Y11458584D01*
X34558584Y11462903D01*
X34558587Y11462905D01*
X34637094Y11541412D01*
X34637096Y11541415D01*
X34665083Y11596343D01*
X34687500Y11640339D01*
X34704869Y11750000D01*
X34687500Y11859661D01*
X34637095Y11958587D01*
X34558587Y12037095D01*
X34459661Y12087500D01*
X34350000Y12104869D01*
X34240339Y12087500D01*
X34141413Y12037095D01*
X34141412Y12037094D01*
X34062905Y11958587D01*
X34062903Y11958584D01*
X34012500Y11859661D01*
X33995131Y11750000D01*
X-11854317Y11750000D01*
X-11796107Y11808210D01*
X-11796102Y11808217D01*
X-11745703Y11907132D01*
X-11744260Y11916238D01*
X-11737552Y11958587D01*
X-11734129Y11980197D01*
X-11714532Y12012173D01*
X-11693399Y12020927D01*
X-11643957Y12028758D01*
X-11620339Y12032500D01*
X-11620338Y12032500D01*
X-11620334Y12032501D01*
X-11521419Y12082900D01*
X-11521412Y12082905D01*
X-11442905Y12161412D01*
X-11442903Y12161415D01*
X-11392500Y12260338D01*
X-11375131Y12370000D01*
X-11392500Y12479661D01*
X-11442903Y12578584D01*
X-11442905Y12578587D01*
X-11521412Y12657094D01*
X-11521413Y12657095D01*
X-11620339Y12707500D01*
X-11730000Y12724869D01*
X-11839661Y12707500D01*
X-11938587Y12657095D01*
X-12017095Y12578587D01*
X-12067500Y12479661D01*
X-12079072Y12406599D01*
X-12098667Y12374624D01*
X-12119799Y12365870D01*
X-12192863Y12354298D01*
X-12291789Y12303893D01*
X-12370297Y12225385D01*
X-12420702Y12126459D01*
X-12437417Y12020927D01*
X-12438674Y12012988D01*
X-12440658Y12013302D01*
X-12452423Y11984900D01*
X-12479405Y11971151D01*
X-12507867Y11966644D01*
X-12606793Y11916239D01*
X-12685301Y11837731D01*
X-12735706Y11738805D01*
X-12753075Y11629144D01*
X-12753074Y11629141D01*
X-12753205Y11628319D01*
X-12772801Y11596343D01*
X-12793934Y11587589D01*
X-12826969Y11582357D01*
X-12925895Y11531952D01*
X-13004403Y11453444D01*
X-13054808Y11354518D01*
X-13072115Y11245244D01*
X-13091709Y11213270D01*
X-13112846Y11204515D01*
X-13147265Y11199064D01*
X-13246191Y11148659D01*
X-13324699Y11070151D01*
X-13375104Y10971225D01*
X-13392473Y10861564D01*
X-13392472Y10861562D01*
X-13392786Y10859584D01*
X-13412382Y10827608D01*
X-13433514Y10818854D01*
X-13465226Y10813832D01*
X-13564152Y10763427D01*
X-13642660Y10684919D01*
X-13693065Y10585993D01*
X-13704874Y10511432D01*
X-13724468Y10479458D01*
X-13745601Y10470704D01*
X-13817163Y10459370D01*
X-13916089Y10408965D01*
X-13994597Y10330457D01*
X-14045002Y10231531D01*
X-14062371Y10121870D01*
X-14059884Y10106172D01*
X-14068637Y10069705D01*
X-14100612Y10050108D01*
X-14100613Y10050107D01*
X-14102992Y10049731D01*
X-14201918Y9999326D01*
X-14280426Y9920818D01*
X-14330831Y9821892D01*
X-14348200Y9712231D01*
X-40999500Y9712231D01*
X-40999500Y10250000D01*
X-34604869Y10250000D01*
X-34587500Y10140339D01*
X-34560577Y10087500D01*
X-34537096Y10041415D01*
X-34537094Y10041412D01*
X-34458587Y9962905D01*
X-34458584Y9962903D01*
X-34359661Y9912500D01*
X-34250000Y9895131D01*
X-34140338Y9912500D01*
X-34041415Y9962903D01*
X-34041412Y9962905D01*
X-33962905Y10041412D01*
X-33962903Y10041415D01*
X-33912500Y10140338D01*
X-33895131Y10250000D01*
X-33912500Y10359661D01*
X-33962903Y10458584D01*
X-33962905Y10458587D01*
X-34041412Y10537094D01*
X-34041413Y10537095D01*
X-34140339Y10587500D01*
X-34250000Y10604869D01*
X-34359661Y10587500D01*
X-34458587Y10537095D01*
X-34537095Y10458587D01*
X-34587500Y10359661D01*
X-34604869Y10250000D01*
X-40999500Y10250000D01*
X-40999500Y11250000D01*
X-34604869Y11250000D01*
X-34587500Y11140339D01*
X-34551736Y11070148D01*
X-34537096Y11041415D01*
X-34537094Y11041412D01*
X-34458587Y10962905D01*
X-34458584Y10962903D01*
X-34359661Y10912500D01*
X-34250000Y10895131D01*
X-34140338Y10912500D01*
X-34041415Y10962903D01*
X-34041412Y10962905D01*
X-33962905Y11041412D01*
X-33962903Y11041415D01*
X-33912500Y11140338D01*
X-33895131Y11250000D01*
X-33912500Y11359661D01*
X-33962903Y11458584D01*
X-33962905Y11458587D01*
X-34041412Y11537094D01*
X-34041413Y11537095D01*
X-34140339Y11587500D01*
X-34250000Y11604869D01*
X-34359661Y11587500D01*
X-34458587Y11537095D01*
X-34537095Y11458587D01*
X-34587500Y11359661D01*
X-34604869Y11250000D01*
X-40999500Y11250000D01*
X-40999500Y12250000D01*
X-34604869Y12250000D01*
X-34587500Y12140339D01*
X-34537096Y12041415D01*
X-34537094Y12041412D01*
X-34458587Y11962905D01*
X-34458584Y11962903D01*
X-34359661Y11912500D01*
X-34250000Y11895131D01*
X-34140338Y11912500D01*
X-34041415Y11962903D01*
X-34041412Y11962905D01*
X-33962905Y12041412D01*
X-33962903Y12041415D01*
X-33912500Y12140338D01*
X-33895131Y12250000D01*
X-33912500Y12359661D01*
X-33962903Y12458584D01*
X-33962905Y12458587D01*
X-34041412Y12537094D01*
X-34041413Y12537095D01*
X-34140339Y12587500D01*
X-34250000Y12604869D01*
X-34359661Y12587500D01*
X-34458587Y12537095D01*
X-34537095Y12458587D01*
X-34587500Y12359661D01*
X-34604869Y12250000D01*
X-40999500Y12250000D01*
X-40999500Y12750000D01*
X33995131Y12750000D01*
X34012500Y12640338D01*
X34062903Y12541415D01*
X34062905Y12541412D01*
X34141412Y12462905D01*
X34141415Y12462903D01*
X34240338Y12412500D01*
X34350000Y12395131D01*
X34459661Y12412500D01*
X34550107Y12458584D01*
X34558584Y12462903D01*
X34558587Y12462905D01*
X34637094Y12541412D01*
X34637096Y12541415D01*
X34660577Y12587500D01*
X34687500Y12640339D01*
X34704869Y12750000D01*
X34687500Y12859661D01*
X34637095Y12958587D01*
X34558587Y13037095D01*
X34459661Y13087500D01*
X34350000Y13104869D01*
X34240339Y13087500D01*
X34141413Y13037095D01*
X34141412Y13037094D01*
X34062905Y12958587D01*
X34062903Y12958584D01*
X34012500Y12859661D01*
X33995131Y12750000D01*
X-40999500Y12750000D01*
X-40999500Y13250000D01*
X-34604869Y13250000D01*
X-34587500Y13140339D01*
X-34560577Y13087500D01*
X-34537096Y13041415D01*
X-34537094Y13041412D01*
X-34458587Y12962905D01*
X-34458584Y12962903D01*
X-34359661Y12912500D01*
X-34250000Y12895131D01*
X-34140338Y12912500D01*
X-34041415Y12962903D01*
X-34041412Y12962905D01*
X-33962905Y13041412D01*
X-33962903Y13041415D01*
X-33912500Y13140338D01*
X-33895131Y13250000D01*
X-33912500Y13359661D01*
X-33962903Y13458584D01*
X-33962905Y13458587D01*
X-34041412Y13537094D01*
X-34041413Y13537095D01*
X-34140339Y13587500D01*
X-34250000Y13604869D01*
X-34359661Y13587500D01*
X-34458587Y13537095D01*
X-34537095Y13458587D01*
X-34587500Y13359661D01*
X-34604869Y13250000D01*
X-40999500Y13250000D01*
X-40999500Y13750000D01*
X33995131Y13750000D01*
X34012500Y13640338D01*
X34062903Y13541415D01*
X34062905Y13541412D01*
X34141412Y13462905D01*
X34141415Y13462903D01*
X34240338Y13412500D01*
X34350000Y13395131D01*
X34459661Y13412500D01*
X34550107Y13458584D01*
X34558584Y13462903D01*
X34558587Y13462905D01*
X34637094Y13541412D01*
X34637096Y13541415D01*
X34660577Y13587500D01*
X34687500Y13640339D01*
X34704869Y13750000D01*
X34687500Y13859661D01*
X34637095Y13958587D01*
X34558587Y14037095D01*
X34459661Y14087500D01*
X34350000Y14104869D01*
X34240339Y14087500D01*
X34141413Y14037095D01*
X34141412Y14037094D01*
X34062905Y13958587D01*
X34062903Y13958584D01*
X34012500Y13859661D01*
X33995131Y13750000D01*
X-40999500Y13750000D01*
X-40999500Y14250000D01*
X-34604869Y14250000D01*
X-34587500Y14140339D01*
X-34560577Y14087500D01*
X-34537096Y14041415D01*
X-34537094Y14041412D01*
X-34458587Y13962905D01*
X-34458584Y13962903D01*
X-34359661Y13912500D01*
X-34250000Y13895131D01*
X-34140338Y13912500D01*
X-34041415Y13962903D01*
X-34041412Y13962905D01*
X-33962905Y14041412D01*
X-33962903Y14041415D01*
X-33912500Y14140338D01*
X-33895131Y14250000D01*
X-33912500Y14359661D01*
X-33962903Y14458584D01*
X-33962905Y14458587D01*
X-34041412Y14537094D01*
X-34041413Y14537095D01*
X-34140339Y14587500D01*
X-34250000Y14604869D01*
X-34359661Y14587500D01*
X-34458587Y14537095D01*
X-34537095Y14458587D01*
X-34587500Y14359661D01*
X-34604869Y14250000D01*
X-40999500Y14250000D01*
X-40999500Y14750000D01*
X33995131Y14750000D01*
X34012500Y14640338D01*
X34062903Y14541415D01*
X34062905Y14541412D01*
X34141412Y14462905D01*
X34141415Y14462903D01*
X34240338Y14412500D01*
X34350000Y14395131D01*
X34459661Y14412500D01*
X34550107Y14458584D01*
X34558584Y14462903D01*
X34558587Y14462905D01*
X34637094Y14541412D01*
X34637096Y14541415D01*
X34660577Y14587500D01*
X34687500Y14640339D01*
X34704869Y14750000D01*
X34687500Y14859661D01*
X34637095Y14958587D01*
X34558587Y15037095D01*
X34459661Y15087500D01*
X34350000Y15104869D01*
X34240339Y15087500D01*
X34141413Y15037095D01*
X34141412Y15037094D01*
X34062905Y14958587D01*
X34062903Y14958584D01*
X34012500Y14859661D01*
X33995131Y14750000D01*
X-40999500Y14750000D01*
X-40999500Y15250000D01*
X-34604869Y15250000D01*
X-34587500Y15140339D01*
X-34560577Y15087500D01*
X-34537096Y15041415D01*
X-34537094Y15041412D01*
X-34458587Y14962905D01*
X-34458584Y14962903D01*
X-34359661Y14912500D01*
X-34250000Y14895131D01*
X-34140338Y14912500D01*
X-34041415Y14962903D01*
X-34041412Y14962905D01*
X-33962905Y15041412D01*
X-33962903Y15041415D01*
X-33912500Y15140338D01*
X-33895131Y15250000D01*
X-33912500Y15359661D01*
X-33962903Y15458584D01*
X-33962905Y15458587D01*
X-34041412Y15537094D01*
X-34041413Y15537095D01*
X-34140339Y15587500D01*
X-34250000Y15604869D01*
X-34359661Y15587500D01*
X-34458587Y15537095D01*
X-34537095Y15458587D01*
X-34587500Y15359661D01*
X-34604869Y15250000D01*
X-40999500Y15250000D01*
X-40999500Y15750000D01*
X33995131Y15750000D01*
X34012500Y15640338D01*
X34062903Y15541415D01*
X34062905Y15541412D01*
X34141412Y15462905D01*
X34141415Y15462903D01*
X34240338Y15412500D01*
X34350000Y15395131D01*
X34459661Y15412500D01*
X34550107Y15458584D01*
X34558584Y15462903D01*
X34558587Y15462905D01*
X34637094Y15541412D01*
X34637096Y15541415D01*
X34660577Y15587500D01*
X34687500Y15640339D01*
X34704869Y15750000D01*
X34687500Y15859661D01*
X34637095Y15958587D01*
X34558587Y16037095D01*
X34459661Y16087500D01*
X34350000Y16104869D01*
X34240339Y16087500D01*
X34141413Y16037095D01*
X34141412Y16037094D01*
X34062905Y15958587D01*
X34062903Y15958584D01*
X34012500Y15859661D01*
X33995131Y15750000D01*
X-40999500Y15750000D01*
X-40999500Y16250000D01*
X-34604869Y16250000D01*
X-34587500Y16140339D01*
X-34560577Y16087500D01*
X-34537096Y16041415D01*
X-34537094Y16041412D01*
X-34458587Y15962905D01*
X-34458584Y15962903D01*
X-34359661Y15912500D01*
X-34250000Y15895131D01*
X-34140338Y15912500D01*
X-34041415Y15962903D01*
X-34041412Y15962905D01*
X-33962905Y16041412D01*
X-33962903Y16041415D01*
X-33912500Y16140338D01*
X-33895131Y16250000D01*
X-33912500Y16359661D01*
X-33962903Y16458584D01*
X-33962905Y16458587D01*
X-34041412Y16537094D01*
X-34041413Y16537095D01*
X-34140339Y16587500D01*
X-34250000Y16604869D01*
X-34359661Y16587500D01*
X-34458587Y16537095D01*
X-34537095Y16458587D01*
X-34587500Y16359661D01*
X-34604869Y16250000D01*
X-40999500Y16250000D01*
X-40999500Y16750000D01*
X33995131Y16750000D01*
X34012500Y16640338D01*
X34062903Y16541415D01*
X34062905Y16541412D01*
X34141412Y16462905D01*
X34141415Y16462903D01*
X34240338Y16412500D01*
X34350000Y16395131D01*
X34459661Y16412500D01*
X34550107Y16458584D01*
X34558584Y16462903D01*
X34558587Y16462905D01*
X34637094Y16541412D01*
X34637096Y16541415D01*
X34660577Y16587500D01*
X34687500Y16640339D01*
X34704869Y16750000D01*
X34687500Y16859661D01*
X34637095Y16958587D01*
X34558587Y17037095D01*
X34459661Y17087500D01*
X34350000Y17104869D01*
X34240339Y17087500D01*
X34141413Y17037095D01*
X34141412Y17037094D01*
X34062905Y16958587D01*
X34062903Y16958584D01*
X34012500Y16859661D01*
X33995131Y16750000D01*
X-40999500Y16750000D01*
X-40999500Y17250000D01*
X-34604869Y17250000D01*
X-34587500Y17140339D01*
X-34560577Y17087500D01*
X-34537096Y17041415D01*
X-34537094Y17041412D01*
X-34458587Y16962905D01*
X-34458584Y16962903D01*
X-34359661Y16912500D01*
X-34250000Y16895131D01*
X-34140338Y16912500D01*
X-34041415Y16962903D01*
X-34041412Y16962905D01*
X-33962905Y17041412D01*
X-33962903Y17041415D01*
X-33912500Y17140338D01*
X-33895131Y17250000D01*
X-33912500Y17359661D01*
X-33962903Y17458584D01*
X-33962905Y17458587D01*
X-34041412Y17537094D01*
X-34041413Y17537095D01*
X-34140339Y17587500D01*
X-34250000Y17604869D01*
X-34359661Y17587500D01*
X-34458587Y17537095D01*
X-34537095Y17458587D01*
X-34587500Y17359661D01*
X-34604869Y17250000D01*
X-40999500Y17250000D01*
X-40999500Y17750000D01*
X33995131Y17750000D01*
X34012500Y17640338D01*
X34062903Y17541415D01*
X34062905Y17541412D01*
X34141412Y17462905D01*
X34141415Y17462903D01*
X34240338Y17412500D01*
X34350000Y17395131D01*
X34459661Y17412500D01*
X34550107Y17458584D01*
X34558584Y17462903D01*
X34558587Y17462905D01*
X34637094Y17541412D01*
X34637096Y17541415D01*
X34660577Y17587500D01*
X34687500Y17640339D01*
X34704869Y17750000D01*
X34687500Y17859661D01*
X34637095Y17958587D01*
X34558587Y18037095D01*
X34459661Y18087500D01*
X34350000Y18104869D01*
X34240339Y18087500D01*
X34141413Y18037095D01*
X34141412Y18037094D01*
X34062905Y17958587D01*
X34062903Y17958584D01*
X34012500Y17859661D01*
X33995131Y17750000D01*
X-40999500Y17750000D01*
X-40999500Y18250000D01*
X-34604869Y18250000D01*
X-34587500Y18140339D01*
X-34560577Y18087500D01*
X-34537096Y18041415D01*
X-34537094Y18041412D01*
X-34458587Y17962905D01*
X-34458584Y17962903D01*
X-34359661Y17912500D01*
X-34250000Y17895131D01*
X-34140338Y17912500D01*
X-34041415Y17962903D01*
X-34041412Y17962905D01*
X-33962905Y18041412D01*
X-33962903Y18041415D01*
X-33912500Y18140338D01*
X-33895131Y18250000D01*
X-33912500Y18359661D01*
X-33962903Y18458584D01*
X-33962905Y18458587D01*
X-34041412Y18537094D01*
X-34041413Y18537095D01*
X-34140339Y18587500D01*
X-34250000Y18604869D01*
X-34359661Y18587500D01*
X-34458587Y18537095D01*
X-34537095Y18458587D01*
X-34587500Y18359661D01*
X-34604869Y18250000D01*
X-40999500Y18250000D01*
X-40999500Y18750000D01*
X33995131Y18750000D01*
X34012500Y18640338D01*
X34062903Y18541415D01*
X34062905Y18541412D01*
X34141412Y18462905D01*
X34141415Y18462903D01*
X34240338Y18412500D01*
X34350000Y18395131D01*
X34459661Y18412500D01*
X34550107Y18458584D01*
X34558584Y18462903D01*
X34558587Y18462905D01*
X34637094Y18541412D01*
X34637096Y18541415D01*
X34660577Y18587500D01*
X34687500Y18640339D01*
X34704869Y18750000D01*
X34687500Y18859661D01*
X34637095Y18958587D01*
X34558587Y19037095D01*
X34459661Y19087500D01*
X34350000Y19104869D01*
X34240339Y19087500D01*
X34141413Y19037095D01*
X34141412Y19037094D01*
X34062905Y18958587D01*
X34062903Y18958584D01*
X34012500Y18859661D01*
X33995131Y18750000D01*
X-40999500Y18750000D01*
X-40999500Y19950337D01*
X-39529272Y19950337D01*
X-39499230Y19754227D01*
X-39430325Y19568180D01*
X-39325380Y19399811D01*
X-39188691Y19256014D01*
X-39188690Y19256013D01*
X-39188685Y19256009D01*
X-39025858Y19142678D01*
X-39025853Y19142675D01*
X-38843534Y19064436D01*
X-38689135Y19032707D01*
X-38649199Y19024500D01*
X-38649198Y19024500D01*
X-38500533Y19024500D01*
X-38500527Y19024500D01*
X-38401923Y19034527D01*
X-38352618Y19039541D01*
X-38163322Y19098933D01*
X-37989855Y19195214D01*
X-37989848Y19195220D01*
X-37839323Y19324442D01*
X-37839313Y19324452D01*
X-37717880Y19481330D01*
X-37717874Y19481340D01*
X-37630505Y19659453D01*
X-37580776Y19851517D01*
X-37580776Y19851520D01*
X-37570728Y20049663D01*
X-37600769Y20245768D01*
X-37600770Y20245775D01*
X-37669674Y20431818D01*
X-37712172Y20500000D01*
X-7332109Y20500000D01*
X-7313741Y20348726D01*
X-7313740Y20348724D01*
X-7259704Y20206242D01*
X-7173141Y20080835D01*
X-7173140Y20080834D01*
X-7059079Y19979784D01*
X-7059074Y19979780D01*
X-6924150Y19908968D01*
X-6776192Y19872500D01*
X-6623808Y19872500D01*
X-6475849Y19908968D01*
X-6340925Y19979780D01*
X-6340920Y19979784D01*
X-6226859Y20080834D01*
X-6226858Y20080835D01*
X-6140295Y20206242D01*
X-6086259Y20348724D01*
X-6067891Y20500000D01*
X-5412109Y20500000D01*
X-5393741Y20348726D01*
X-5393740Y20348724D01*
X-5339704Y20206242D01*
X-5253141Y20080835D01*
X-5253140Y20080834D01*
X-5139079Y19979784D01*
X-5139074Y19979780D01*
X-5004150Y19908968D01*
X-4856192Y19872500D01*
X-4703808Y19872500D01*
X-4555849Y19908968D01*
X-4420925Y19979780D01*
X-4420920Y19979784D01*
X-4306859Y20080834D01*
X-4306858Y20080835D01*
X-4220295Y20206242D01*
X-4166259Y20348724D01*
X-4147891Y20500000D01*
X-3502109Y20500000D01*
X-3483741Y20348726D01*
X-3483740Y20348724D01*
X-3429704Y20206242D01*
X-3343141Y20080835D01*
X-3343140Y20080834D01*
X-3229079Y19979784D01*
X-3229074Y19979780D01*
X-3094150Y19908968D01*
X-2946192Y19872500D01*
X-2793808Y19872500D01*
X-2645849Y19908968D01*
X-2510925Y19979780D01*
X-2510920Y19979784D01*
X-2396859Y20080834D01*
X-2396858Y20080835D01*
X-2310295Y20206242D01*
X-2256259Y20348724D01*
X-2237891Y20500000D01*
X-1592109Y20500000D01*
X-1573741Y20348726D01*
X-1573740Y20348724D01*
X-1519704Y20206242D01*
X-1433141Y20080835D01*
X-1433140Y20080834D01*
X-1319079Y19979784D01*
X-1319074Y19979780D01*
X-1184150Y19908968D01*
X-1036192Y19872500D01*
X-883808Y19872500D01*
X-735849Y19908968D01*
X-600925Y19979780D01*
X-600920Y19979784D01*
X-486859Y20080834D01*
X-486858Y20080835D01*
X-400295Y20206242D01*
X-346259Y20348724D01*
X-327891Y20500000D01*
X327891Y20500000D01*
X346259Y20348724D01*
X400295Y20206242D01*
X486858Y20080835D01*
X486859Y20080834D01*
X600920Y19979784D01*
X600925Y19979780D01*
X735849Y19908968D01*
X883808Y19872500D01*
X1036192Y19872500D01*
X1184150Y19908968D01*
X1319074Y19979780D01*
X1319079Y19979784D01*
X1433140Y20080834D01*
X1433141Y20080835D01*
X1519704Y20206242D01*
X1573740Y20348724D01*
X1573741Y20348726D01*
X1592109Y20500000D01*
X2247891Y20500000D01*
X2266259Y20348724D01*
X2320295Y20206242D01*
X2406858Y20080835D01*
X2406859Y20080834D01*
X2520920Y19979784D01*
X2520925Y19979780D01*
X2655849Y19908968D01*
X2803808Y19872500D01*
X2956192Y19872500D01*
X3104150Y19908968D01*
X3239074Y19979780D01*
X3239079Y19979784D01*
X3353140Y20080834D01*
X3353141Y20080835D01*
X3439704Y20206242D01*
X3493740Y20348724D01*
X3493741Y20348726D01*
X3512109Y20500000D01*
X4157891Y20500000D01*
X4176259Y20348724D01*
X4230295Y20206242D01*
X4316858Y20080835D01*
X4316859Y20080834D01*
X4430920Y19979784D01*
X4430925Y19979780D01*
X4565849Y19908968D01*
X4713808Y19872500D01*
X4866192Y19872500D01*
X5014150Y19908968D01*
X5149074Y19979780D01*
X5149079Y19979784D01*
X5263140Y20080834D01*
X5263141Y20080835D01*
X5349704Y20206242D01*
X5403740Y20348724D01*
X5403741Y20348726D01*
X5422109Y20500000D01*
X6067891Y20500000D01*
X6086259Y20348724D01*
X6140295Y20206242D01*
X6226858Y20080835D01*
X6226859Y20080834D01*
X6340920Y19979784D01*
X6340925Y19979780D01*
X6475849Y19908968D01*
X6623808Y19872500D01*
X6776192Y19872500D01*
X6924150Y19908968D01*
X7002976Y19950338D01*
X37570728Y19950338D01*
X37600769Y19754231D01*
X37600770Y19754224D01*
X37669674Y19568181D01*
X37774621Y19399809D01*
X37911309Y19256013D01*
X37911314Y19256009D01*
X38074141Y19142678D01*
X38074146Y19142675D01*
X38256465Y19064436D01*
X38417672Y19031307D01*
X38450801Y19024500D01*
X38450802Y19024500D01*
X38599467Y19024500D01*
X38599473Y19024500D01*
X38710402Y19035780D01*
X38747381Y19039541D01*
X38873578Y19079135D01*
X38936678Y19098933D01*
X39015486Y19142675D01*
X39110144Y19195214D01*
X39110151Y19195220D01*
X39260676Y19324442D01*
X39260682Y19324447D01*
X39382122Y19481334D01*
X39424722Y19568180D01*
X39469494Y19659453D01*
X39519223Y19851517D01*
X39519224Y19851520D01*
X39529272Y20049663D01*
X39499230Y20245773D01*
X39430325Y20431820D01*
X39325380Y20600189D01*
X39188691Y20743986D01*
X39025854Y20857324D01*
X38843535Y20935563D01*
X38649199Y20975500D01*
X38500527Y20975500D01*
X38352621Y20960459D01*
X38163322Y20901067D01*
X38043271Y20834433D01*
X37989855Y20804785D01*
X37989854Y20804784D01*
X37839318Y20675553D01*
X37839314Y20675548D01*
X37839313Y20675547D01*
X37717880Y20518669D01*
X37717874Y20518659D01*
X37630505Y20340546D01*
X37580776Y20148482D01*
X37580776Y20148479D01*
X37570728Y19950340D01*
X37570728Y19950338D01*
X7002976Y19950338D01*
X7059074Y19979780D01*
X7059079Y19979784D01*
X7173140Y20080834D01*
X7173141Y20080835D01*
X7259704Y20206242D01*
X7313740Y20348724D01*
X7313741Y20348726D01*
X7332109Y20500000D01*
X7313741Y20651274D01*
X7259705Y20793756D01*
X7173140Y20919166D01*
X7059079Y21020216D01*
X7059075Y21020217D01*
X7059074Y21020219D01*
X6999487Y21051491D01*
X6924149Y21091032D01*
X6776192Y21127500D01*
X6623808Y21127500D01*
X6475851Y21091032D01*
X6475849Y21091031D01*
X6340925Y21020219D01*
X6340921Y21020216D01*
X6290448Y20975500D01*
X6226859Y20919165D01*
X6226858Y20919164D01*
X6140295Y20793757D01*
X6086259Y20651275D01*
X6067891Y20500000D01*
X5422109Y20500000D01*
X5403741Y20651274D01*
X5349705Y20793756D01*
X5263140Y20919166D01*
X5149079Y21020216D01*
X5149075Y21020217D01*
X5149074Y21020219D01*
X5089487Y21051491D01*
X5014149Y21091032D01*
X4866192Y21127500D01*
X4713808Y21127500D01*
X4565851Y21091032D01*
X4565849Y21091031D01*
X4430925Y21020219D01*
X4430921Y21020216D01*
X4380448Y20975500D01*
X4316859Y20919165D01*
X4316858Y20919164D01*
X4230295Y20793757D01*
X4176259Y20651275D01*
X4157891Y20500000D01*
X3512109Y20500000D01*
X3493741Y20651274D01*
X3439705Y20793756D01*
X3353140Y20919166D01*
X3239079Y21020216D01*
X3239075Y21020217D01*
X3239074Y21020219D01*
X3179487Y21051491D01*
X3104149Y21091032D01*
X2956192Y21127500D01*
X2803808Y21127500D01*
X2655851Y21091032D01*
X2655849Y21091031D01*
X2520925Y21020219D01*
X2520921Y21020216D01*
X2470448Y20975500D01*
X2406859Y20919165D01*
X2406858Y20919164D01*
X2320295Y20793757D01*
X2266259Y20651275D01*
X2247891Y20500000D01*
X1592109Y20500000D01*
X1573741Y20651274D01*
X1519705Y20793756D01*
X1433140Y20919166D01*
X1319079Y21020216D01*
X1319075Y21020217D01*
X1319074Y21020219D01*
X1259487Y21051491D01*
X1184149Y21091032D01*
X1036192Y21127500D01*
X883808Y21127500D01*
X735851Y21091032D01*
X735849Y21091031D01*
X600925Y21020219D01*
X600921Y21020216D01*
X550448Y20975500D01*
X486859Y20919165D01*
X486858Y20919164D01*
X400295Y20793757D01*
X346259Y20651275D01*
X327891Y20500000D01*
X-327891Y20500000D01*
X-346259Y20651275D01*
X-400295Y20793757D01*
X-486858Y20919164D01*
X-486859Y20919165D01*
X-550447Y20975500D01*
X-600921Y21020216D01*
X-600925Y21020219D01*
X-735849Y21091031D01*
X-735851Y21091032D01*
X-883808Y21127500D01*
X-1036192Y21127500D01*
X-1184149Y21091032D01*
X-1259487Y21051491D01*
X-1319074Y21020219D01*
X-1319075Y21020217D01*
X-1319079Y21020216D01*
X-1433140Y20919166D01*
X-1519705Y20793756D01*
X-1573741Y20651274D01*
X-1592109Y20500000D01*
X-2237891Y20500000D01*
X-2256259Y20651275D01*
X-2310295Y20793757D01*
X-2396858Y20919164D01*
X-2396859Y20919165D01*
X-2460447Y20975500D01*
X-2510921Y21020216D01*
X-2510925Y21020219D01*
X-2645849Y21091031D01*
X-2645851Y21091032D01*
X-2793808Y21127500D01*
X-2946192Y21127500D01*
X-3094149Y21091032D01*
X-3169487Y21051491D01*
X-3229074Y21020219D01*
X-3229075Y21020217D01*
X-3229079Y21020216D01*
X-3343140Y20919166D01*
X-3429705Y20793756D01*
X-3483741Y20651274D01*
X-3502109Y20500000D01*
X-4147891Y20500000D01*
X-4166259Y20651275D01*
X-4220295Y20793757D01*
X-4306858Y20919164D01*
X-4306859Y20919165D01*
X-4370447Y20975500D01*
X-4420921Y21020216D01*
X-4420925Y21020219D01*
X-4555849Y21091031D01*
X-4555851Y21091032D01*
X-4703808Y21127500D01*
X-4856192Y21127500D01*
X-5004149Y21091032D01*
X-5079487Y21051491D01*
X-5139074Y21020219D01*
X-5139075Y21020217D01*
X-5139079Y21020216D01*
X-5253140Y20919166D01*
X-5339705Y20793756D01*
X-5393741Y20651274D01*
X-5412109Y20500000D01*
X-6067891Y20500000D01*
X-6086259Y20651275D01*
X-6140295Y20793757D01*
X-6226858Y20919164D01*
X-6226859Y20919165D01*
X-6290447Y20975500D01*
X-6340921Y21020216D01*
X-6340925Y21020219D01*
X-6475849Y21091031D01*
X-6475851Y21091032D01*
X-6623808Y21127500D01*
X-6776192Y21127500D01*
X-6924149Y21091032D01*
X-6999487Y21051491D01*
X-7059074Y21020219D01*
X-7059075Y21020217D01*
X-7059079Y21020216D01*
X-7173140Y20919166D01*
X-7259705Y20793756D01*
X-7313741Y20651274D01*
X-7332109Y20500000D01*
X-37712172Y20500000D01*
X-37723802Y20518659D01*
X-37774620Y20600189D01*
X-37911309Y20743986D01*
X-37911314Y20743990D01*
X-38074141Y20857321D01*
X-38074146Y20857324D01*
X-38256465Y20935563D01*
X-38377611Y20960459D01*
X-38450801Y20975500D01*
X-38599473Y20975500D01*
X-38747379Y20960459D01*
X-38936678Y20901067D01*
X-39110146Y20804784D01*
X-39260682Y20675553D01*
X-39382122Y20518666D01*
X-39469495Y20340544D01*
X-39519224Y20148480D01*
X-39529272Y19950337D01*
X-40999500Y19950337D01*
X-40999500Y23004607D01*
X-40999524Y23004870D01*
X-40999518Y29750337D01*
X-39529272Y29750337D01*
X-39499230Y29554227D01*
X-39430325Y29368180D01*
X-39325380Y29199811D01*
X-39188691Y29056014D01*
X-39188690Y29056013D01*
X-39188685Y29056009D01*
X-39025858Y28942678D01*
X-39025853Y28942675D01*
X-38843534Y28864436D01*
X-38689135Y28832707D01*
X-38649199Y28824500D01*
X-38649198Y28824500D01*
X-38500533Y28824500D01*
X-38500527Y28824500D01*
X-38401923Y28834527D01*
X-38352618Y28839541D01*
X-38163322Y28898933D01*
X-37989855Y28995214D01*
X-37989848Y28995220D01*
X-37839323Y29124442D01*
X-37839313Y29124452D01*
X-37717880Y29281330D01*
X-37717874Y29281340D01*
X-37630505Y29459453D01*
X-37580776Y29651517D01*
X-37580776Y29651520D01*
X-37570728Y29849663D01*
X-37600769Y30045768D01*
X-37600770Y30045775D01*
X-37669674Y30231818D01*
X-37723802Y30318659D01*
X-37774620Y30400189D01*
X-37911309Y30543986D01*
X-37911314Y30543990D01*
X-38074141Y30657321D01*
X-38074146Y30657324D01*
X-38256465Y30735563D01*
X-38377611Y30760459D01*
X-38450801Y30775500D01*
X-38599473Y30775500D01*
X-38747379Y30760459D01*
X-38936678Y30701067D01*
X-39110146Y30604784D01*
X-39260682Y30475553D01*
X-39382122Y30318666D01*
X-39469495Y30140544D01*
X-39519224Y29948480D01*
X-39529272Y29750337D01*
X-40999518Y29750337D01*
X-40999517Y31050000D01*
X-34704869Y31050000D01*
X-34687500Y30940339D01*
X-34687499Y30940338D01*
X-34637096Y30841415D01*
X-34637094Y30841412D01*
X-34558587Y30762905D01*
X-34558584Y30762903D01*
X-34459661Y30712500D01*
X-34350000Y30695131D01*
X-34240338Y30712500D01*
X-34141415Y30762903D01*
X-34141412Y30762905D01*
X-34062905Y30841412D01*
X-34062903Y30841415D01*
X-34012500Y30940338D01*
X-33995131Y31050000D01*
X-34012500Y31159661D01*
X-34062903Y31258584D01*
X-34062905Y31258587D01*
X-34141412Y31337094D01*
X-34141413Y31337095D01*
X-34240339Y31387500D01*
X-34350000Y31404869D01*
X-34459661Y31387500D01*
X-34558587Y31337095D01*
X-34637095Y31258587D01*
X-34687500Y31159661D01*
X-34704869Y31050000D01*
X-40999517Y31050000D01*
X-40999516Y32050000D01*
X-34704869Y32050000D01*
X-34687500Y31940339D01*
X-34687499Y31940338D01*
X-34637096Y31841415D01*
X-34637094Y31841412D01*
X-34558587Y31762905D01*
X-34558584Y31762903D01*
X-34459661Y31712500D01*
X-34350000Y31695131D01*
X-34240338Y31712500D01*
X-34141415Y31762903D01*
X-34141412Y31762905D01*
X-34062905Y31841412D01*
X-34062903Y31841415D01*
X-34012500Y31940338D01*
X-33995131Y32050000D01*
X-34012500Y32159661D01*
X-34062903Y32258584D01*
X-34062905Y32258587D01*
X-34141412Y32337094D01*
X-34141413Y32337095D01*
X-34240339Y32387500D01*
X-34350000Y32404869D01*
X-34459661Y32387500D01*
X-34558587Y32337095D01*
X-34637095Y32258587D01*
X-34687500Y32159661D01*
X-34704869Y32050000D01*
X-40999516Y32050000D01*
X-40999515Y33050000D01*
X-34704869Y33050000D01*
X-34687500Y32940339D01*
X-34687499Y32940338D01*
X-34637096Y32841415D01*
X-34637094Y32841412D01*
X-34558587Y32762905D01*
X-34558584Y32762903D01*
X-34459661Y32712500D01*
X-34350000Y32695131D01*
X-34240338Y32712500D01*
X-34141415Y32762903D01*
X-34141412Y32762905D01*
X-34062905Y32841412D01*
X-34062903Y32841415D01*
X-34012500Y32940338D01*
X-33995131Y33050000D01*
X-34012500Y33159661D01*
X-34062903Y33258584D01*
X-34062905Y33258587D01*
X-34141412Y33337094D01*
X-34141413Y33337095D01*
X-34240339Y33387500D01*
X-34350000Y33404869D01*
X-34459661Y33387500D01*
X-34558587Y33337095D01*
X-34637095Y33258587D01*
X-34687500Y33159661D01*
X-34704869Y33050000D01*
X-40999515Y33050000D01*
X-40999514Y34050000D01*
X-34704869Y34050000D01*
X-34687500Y33940339D01*
X-34687499Y33940338D01*
X-34637096Y33841415D01*
X-34637094Y33841412D01*
X-34558587Y33762905D01*
X-34558584Y33762903D01*
X-34459661Y33712500D01*
X-34350000Y33695131D01*
X-34240338Y33712500D01*
X-34141415Y33762903D01*
X-34141412Y33762905D01*
X-34062905Y33841412D01*
X-34062903Y33841415D01*
X-34012500Y33940338D01*
X-33995131Y34050000D01*
X-34012500Y34159661D01*
X-34062903Y34258584D01*
X-34062905Y34258587D01*
X-34141412Y34337094D01*
X-34141413Y34337095D01*
X-34240339Y34387500D01*
X-34350000Y34404869D01*
X-34459661Y34387500D01*
X-34558587Y34337095D01*
X-34637095Y34258587D01*
X-34687500Y34159661D01*
X-34704869Y34050000D01*
X-40999514Y34050000D01*
X-40999513Y34574997D01*
X-14455133Y34574997D01*
X-14436698Y34446776D01*
X-14436697Y34446774D01*
X-14382882Y34328937D01*
X-14298049Y34231033D01*
X-14189069Y34160996D01*
X-14189066Y34160995D01*
X-14064776Y34124500D01*
X-14064772Y34124500D01*
X-13935223Y34124500D01*
X-13810933Y34160995D01*
X-13701950Y34231033D01*
X-13617119Y34328936D01*
X-13617118Y34328936D01*
X-13563301Y34446776D01*
X-13544867Y34574997D01*
X-10455133Y34574997D01*
X-10436698Y34446776D01*
X-10436697Y34446774D01*
X-10382882Y34328937D01*
X-10298049Y34231033D01*
X-10189069Y34160996D01*
X-10189066Y34160995D01*
X-10064776Y34124500D01*
X-10064772Y34124500D01*
X-9935223Y34124500D01*
X-9810933Y34160995D01*
X-9701950Y34231033D01*
X-9617119Y34328936D01*
X-9617118Y34328936D01*
X-9563301Y34446776D01*
X-9544867Y34574997D01*
X-6455133Y34574997D01*
X-6436698Y34446776D01*
X-6436697Y34446774D01*
X-6382882Y34328937D01*
X-6298049Y34231033D01*
X-6189069Y34160996D01*
X-6189066Y34160995D01*
X-6064776Y34124500D01*
X-6064772Y34124500D01*
X-5935223Y34124500D01*
X-5810933Y34160995D01*
X-5701950Y34231033D01*
X-5617119Y34328936D01*
X-5617118Y34328936D01*
X-5563301Y34446776D01*
X-5544867Y34574997D01*
X-2455133Y34574997D01*
X-2436698Y34446776D01*
X-2436697Y34446774D01*
X-2382882Y34328937D01*
X-2298049Y34231033D01*
X-2189069Y34160996D01*
X-2189066Y34160995D01*
X-2064776Y34124500D01*
X-2064772Y34124500D01*
X-1935223Y34124500D01*
X-1810933Y34160995D01*
X-1701950Y34231033D01*
X-1617119Y34328936D01*
X-1617118Y34328936D01*
X-1563301Y34446776D01*
X-1544867Y34574997D01*
X1544867Y34574997D01*
X1563301Y34446776D01*
X1617118Y34328936D01*
X1701950Y34231033D01*
X1810933Y34160995D01*
X1935223Y34124500D01*
X1935228Y34124500D01*
X2064776Y34124500D01*
X2189066Y34160995D01*
X2189069Y34160996D01*
X2298049Y34231033D01*
X2382882Y34328937D01*
X2436697Y34446774D01*
X2436698Y34446776D01*
X2455133Y34574997D01*
X5544867Y34574997D01*
X5563301Y34446776D01*
X5617118Y34328936D01*
X5701950Y34231033D01*
X5810933Y34160995D01*
X5935223Y34124500D01*
X5935228Y34124500D01*
X6064776Y34124500D01*
X6189066Y34160995D01*
X6189069Y34160996D01*
X6298049Y34231033D01*
X6382882Y34328937D01*
X6436697Y34446774D01*
X6436698Y34446776D01*
X6455133Y34574997D01*
X9544867Y34574997D01*
X9563301Y34446776D01*
X9617118Y34328936D01*
X9701950Y34231033D01*
X9810933Y34160995D01*
X9935223Y34124500D01*
X9935228Y34124500D01*
X10064776Y34124500D01*
X10189066Y34160995D01*
X10189069Y34160996D01*
X10298049Y34231033D01*
X10382882Y34328937D01*
X10436697Y34446774D01*
X10436698Y34446776D01*
X10455133Y34574997D01*
X13544867Y34574997D01*
X13563301Y34446776D01*
X13617118Y34328936D01*
X13701950Y34231033D01*
X13810933Y34160995D01*
X13935223Y34124500D01*
X13935228Y34124500D01*
X14064776Y34124500D01*
X14189066Y34160995D01*
X14189069Y34160996D01*
X14298049Y34231033D01*
X14382882Y34328937D01*
X14436697Y34446774D01*
X14436698Y34446776D01*
X14455133Y34574997D01*
X14455133Y34575002D01*
X14436698Y34703223D01*
X14436697Y34703226D01*
X14382882Y34821063D01*
X14298049Y34918967D01*
X14189069Y34989004D01*
X14085324Y35019465D01*
X14064776Y35025499D01*
X14064772Y35025500D01*
X13935228Y35025500D01*
X13935223Y35025499D01*
X13880093Y35009311D01*
X13810931Y34989004D01*
X13701951Y34918967D01*
X13617118Y34821063D01*
X13563301Y34703223D01*
X13544867Y34575002D01*
X13544867Y34574997D01*
X10455133Y34574997D01*
X10455133Y34575002D01*
X10436698Y34703223D01*
X10436697Y34703226D01*
X10382882Y34821063D01*
X10298049Y34918967D01*
X10189069Y34989004D01*
X10085324Y35019465D01*
X10064776Y35025499D01*
X10064772Y35025500D01*
X9935228Y35025500D01*
X9935223Y35025499D01*
X9880093Y35009311D01*
X9810931Y34989004D01*
X9701951Y34918967D01*
X9617118Y34821063D01*
X9563301Y34703223D01*
X9544867Y34575002D01*
X9544867Y34574997D01*
X6455133Y34574997D01*
X6455133Y34575002D01*
X6436698Y34703223D01*
X6436697Y34703226D01*
X6382882Y34821063D01*
X6298049Y34918967D01*
X6189069Y34989004D01*
X6085324Y35019465D01*
X6064776Y35025499D01*
X6064772Y35025500D01*
X5935228Y35025500D01*
X5935223Y35025499D01*
X5880093Y35009311D01*
X5810931Y34989004D01*
X5701951Y34918967D01*
X5617118Y34821063D01*
X5563301Y34703223D01*
X5544867Y34575002D01*
X5544867Y34574997D01*
X2455133Y34574997D01*
X2455133Y34575002D01*
X2436698Y34703223D01*
X2436697Y34703226D01*
X2382882Y34821063D01*
X2298049Y34918967D01*
X2189069Y34989004D01*
X2085324Y35019465D01*
X2064776Y35025499D01*
X2064772Y35025500D01*
X1935228Y35025500D01*
X1935223Y35025499D01*
X1880093Y35009311D01*
X1810931Y34989004D01*
X1701951Y34918967D01*
X1617118Y34821063D01*
X1563301Y34703223D01*
X1544867Y34575002D01*
X1544867Y34574997D01*
X-1544867Y34574997D01*
X-1544867Y34575002D01*
X-1563301Y34703223D01*
X-1617118Y34821063D01*
X-1701950Y34918966D01*
X-1701951Y34918967D01*
X-1810931Y34989004D01*
X-1880093Y35009311D01*
X-1935223Y35025499D01*
X-1935228Y35025500D01*
X-2064772Y35025500D01*
X-2064776Y35025499D01*
X-2085324Y35019465D01*
X-2189069Y34989004D01*
X-2298049Y34918967D01*
X-2382882Y34821063D01*
X-2436697Y34703226D01*
X-2436698Y34703223D01*
X-2455133Y34575002D01*
X-2455133Y34574997D01*
X-5544867Y34574997D01*
X-5544867Y34575002D01*
X-5563301Y34703223D01*
X-5617118Y34821063D01*
X-5701950Y34918966D01*
X-5701951Y34918967D01*
X-5810931Y34989004D01*
X-5880093Y35009311D01*
X-5935223Y35025499D01*
X-5935228Y35025500D01*
X-6064772Y35025500D01*
X-6064776Y35025499D01*
X-6085324Y35019465D01*
X-6189069Y34989004D01*
X-6298049Y34918967D01*
X-6382882Y34821063D01*
X-6436697Y34703226D01*
X-6436698Y34703223D01*
X-6455133Y34575002D01*
X-6455133Y34574997D01*
X-9544867Y34574997D01*
X-9544867Y34575002D01*
X-9563301Y34703223D01*
X-9617118Y34821063D01*
X-9701950Y34918966D01*
X-9701951Y34918967D01*
X-9810931Y34989004D01*
X-9880093Y35009311D01*
X-9935223Y35025499D01*
X-9935228Y35025500D01*
X-10064772Y35025500D01*
X-10064776Y35025499D01*
X-10085324Y35019465D01*
X-10189069Y34989004D01*
X-10298049Y34918967D01*
X-10382882Y34821063D01*
X-10436697Y34703226D01*
X-10436698Y34703223D01*
X-10455133Y34575002D01*
X-10455133Y34574997D01*
X-13544867Y34574997D01*
X-13544867Y34575002D01*
X-13563301Y34703223D01*
X-13617118Y34821063D01*
X-13701950Y34918966D01*
X-13701951Y34918967D01*
X-13810931Y34989004D01*
X-13880093Y35009311D01*
X-13935223Y35025499D01*
X-13935228Y35025500D01*
X-14064772Y35025500D01*
X-14064776Y35025499D01*
X-14085324Y35019465D01*
X-14189069Y34989004D01*
X-14298049Y34918967D01*
X-14382882Y34821063D01*
X-14436697Y34703226D01*
X-14436698Y34703223D01*
X-14455133Y34575002D01*
X-14455133Y34574997D01*
X-40999513Y34574997D01*
X-40999513Y35050000D01*
X-34704869Y35050000D01*
X-34687500Y34940339D01*
X-34687499Y34940338D01*
X-34637096Y34841415D01*
X-34637094Y34841412D01*
X-34558587Y34762905D01*
X-34558584Y34762903D01*
X-34459661Y34712500D01*
X-34350000Y34695131D01*
X-34240338Y34712500D01*
X-34141415Y34762903D01*
X-34141412Y34762905D01*
X-34062905Y34841412D01*
X-34062903Y34841415D01*
X-34012500Y34940338D01*
X-33995131Y35050000D01*
X-34012500Y35159661D01*
X-34062903Y35258584D01*
X-34062905Y35258587D01*
X-34141412Y35337094D01*
X-34141413Y35337095D01*
X-34240339Y35387500D01*
X-34350000Y35404869D01*
X-34459661Y35387500D01*
X-34558587Y35337095D01*
X-34637095Y35258587D01*
X-34687500Y35159661D01*
X-34704869Y35050000D01*
X-40999513Y35050000D01*
X-40999512Y36050000D01*
X-34704869Y36050000D01*
X-34687500Y35940339D01*
X-34637096Y35841415D01*
X-34637094Y35841412D01*
X-34558587Y35762905D01*
X-34558584Y35762903D01*
X-34459661Y35712500D01*
X-34350000Y35695131D01*
X-34240338Y35712500D01*
X-34141415Y35762903D01*
X-34141412Y35762905D01*
X-34062905Y35841412D01*
X-34062903Y35841415D01*
X-34012500Y35940338D01*
X-33995131Y36050000D01*
X-34012500Y36159661D01*
X-34062903Y36258584D01*
X-34062905Y36258587D01*
X-34141412Y36337094D01*
X-34141413Y36337095D01*
X-34240339Y36387500D01*
X-34350000Y36404869D01*
X-34459661Y36387500D01*
X-34558587Y36337095D01*
X-34637095Y36258587D01*
X-34687500Y36159661D01*
X-34704869Y36050000D01*
X-40999512Y36050000D01*
X-40999511Y37050000D01*
X-34704869Y37050000D01*
X-34687500Y36940339D01*
X-34637096Y36841415D01*
X-34637094Y36841412D01*
X-34558587Y36762905D01*
X-34558584Y36762903D01*
X-34459661Y36712500D01*
X-34350000Y36695131D01*
X-34240338Y36712500D01*
X-34141415Y36762903D01*
X-34141412Y36762905D01*
X-34062905Y36841412D01*
X-34062903Y36841415D01*
X-34012500Y36940338D01*
X-33995131Y37050000D01*
X-34012500Y37159661D01*
X-34062903Y37258584D01*
X-34062905Y37258587D01*
X-34141412Y37337094D01*
X-34141413Y37337095D01*
X-34240339Y37387500D01*
X-34350000Y37404869D01*
X-34459661Y37387500D01*
X-34558587Y37337095D01*
X-34637095Y37258587D01*
X-34687500Y37159661D01*
X-34704869Y37050000D01*
X-40999511Y37050000D01*
X-40999510Y38050000D01*
X-34704869Y38050000D01*
X-34687500Y37940339D01*
X-34687499Y37940338D01*
X-34637096Y37841415D01*
X-34637094Y37841412D01*
X-34558587Y37762905D01*
X-34558584Y37762903D01*
X-34459661Y37712500D01*
X-34350000Y37695131D01*
X-34240338Y37712500D01*
X-34141415Y37762903D01*
X-34141412Y37762905D01*
X-34062905Y37841412D01*
X-34062903Y37841415D01*
X-34012500Y37940338D01*
X-34010795Y37951101D01*
X-16364214Y37951101D01*
X-16334633Y37758007D01*
X-16266788Y37574820D01*
X-16163457Y37409040D01*
X-16163455Y37409038D01*
X-16028876Y37267460D01*
X-16028863Y37267449D01*
X-15868540Y37155861D01*
X-15868535Y37155858D01*
X-15689020Y37078822D01*
X-15548767Y37050000D01*
X-15497673Y37039500D01*
X-15497672Y37039500D01*
X-15351300Y37039500D01*
X-15351294Y37039500D01*
X-15263911Y37048386D01*
X-15205652Y37054310D01*
X-15019268Y37112789D01*
X-14848468Y37207589D01*
X-14848466Y37207591D01*
X-14700248Y37334834D01*
X-14700242Y37334840D01*
X-14580676Y37489306D01*
X-14580670Y37489316D01*
X-14494644Y37664690D01*
X-14445680Y37853801D01*
X-14445680Y37853805D01*
X-14441291Y37940339D01*
X-14435786Y38048899D01*
X-14439499Y38073136D01*
X-10094328Y38073136D01*
X-10084125Y37780950D01*
X-10033357Y37493027D01*
X-9943011Y37214973D01*
X-9893172Y37112789D01*
X-9814846Y36952196D01*
X-9814845Y36952194D01*
X-9651357Y36709814D01*
X-9455734Y36492552D01*
X-9455730Y36492548D01*
X-9330537Y36387499D01*
X-9231762Y36304617D01*
X-8983829Y36149692D01*
X-8983827Y36149691D01*
X-8716739Y36030775D01*
X-8435701Y35950189D01*
X-8435694Y35950188D01*
X-8435686Y35950186D01*
X-8185589Y35915038D01*
X-8146182Y35909500D01*
X-8146181Y35909500D01*
X-7926998Y35909500D01*
X-7926994Y35909500D01*
X-7817671Y35917144D01*
X-7708344Y35924789D01*
X-7708340Y35924790D01*
X-7422372Y35985575D01*
X-7147648Y36085567D01*
X-7147630Y36085575D01*
X-6889503Y36222823D01*
X-6889494Y36222828D01*
X-6652977Y36394668D01*
X-6652973Y36394671D01*
X-6442662Y36597766D01*
X-6442660Y36597768D01*
X-6262664Y36828154D01*
X-6262660Y36828159D01*
X-6116484Y37081343D01*
X-6006961Y37352422D01*
X-5971907Y37493018D01*
X-5936232Y37636102D01*
X-5930027Y37695131D01*
X-5905671Y37926872D01*
X-5910779Y38073127D01*
X5905672Y38073127D01*
X5915875Y37780950D01*
X5915875Y37780946D01*
X5966645Y37493018D01*
X6056989Y37214971D01*
X6185153Y36952196D01*
X6185154Y36952194D01*
X6348642Y36709814D01*
X6544265Y36492552D01*
X6768237Y36304617D01*
X7016170Y36149692D01*
X7283258Y36030776D01*
X7283260Y36030775D01*
X7283261Y36030775D01*
X7564299Y35950189D01*
X7564303Y35950188D01*
X7564313Y35950186D01*
X7819131Y35914374D01*
X7853818Y35909500D01*
X7853819Y35909500D01*
X8073002Y35909500D01*
X8073006Y35909500D01*
X8197946Y35918236D01*
X8291655Y35924789D01*
X8291659Y35924790D01*
X8577627Y35985575D01*
X8852351Y36085567D01*
X8852352Y36085567D01*
X8852359Y36085570D01*
X8852365Y36085573D01*
X8852369Y36085575D01*
X9110496Y36222823D01*
X9110505Y36222828D01*
X9347022Y36394668D01*
X9347026Y36394671D01*
X9347029Y36394673D01*
X9557338Y36597767D01*
X9737335Y36828153D01*
X9737337Y36828156D01*
X9737339Y36828159D01*
X9883515Y37081343D01*
X9896220Y37112789D01*
X9993039Y37352422D01*
X10063768Y37636102D01*
X10094328Y37926864D01*
X10093857Y37940338D01*
X10091774Y38000000D01*
X14104570Y38000000D01*
X14124250Y37775048D01*
X14124251Y37775042D01*
X14182691Y37556944D01*
X14182693Y37556939D01*
X14278123Y37352286D01*
X14278130Y37352274D01*
X14407638Y37167319D01*
X14407644Y37167312D01*
X14567312Y37007644D01*
X14567319Y37007638D01*
X14752274Y36878130D01*
X14752286Y36878123D01*
X14956939Y36782693D01*
X14956944Y36782691D01*
X15175042Y36724251D01*
X15175048Y36724250D01*
X15343646Y36709500D01*
X15343648Y36709500D01*
X15456354Y36709500D01*
X15624951Y36724250D01*
X15624957Y36724251D01*
X15843055Y36782691D01*
X15843060Y36782693D01*
X15843063Y36782694D01*
X15898738Y36808655D01*
X16047713Y36878123D01*
X16047725Y36878130D01*
X16232680Y37007638D01*
X16232687Y37007644D01*
X16392355Y37167312D01*
X16392361Y37167319D01*
X16521869Y37352274D01*
X16521876Y37352286D01*
X16585769Y37489306D01*
X16617306Y37556937D01*
X16622098Y37574821D01*
X16675748Y37775042D01*
X16675749Y37775048D01*
X16675750Y37775051D01*
X16695430Y38000000D01*
X16675750Y38224949D01*
X16671182Y38241995D01*
X16617308Y38443055D01*
X16617306Y38443063D01*
X16521875Y38647715D01*
X16521874Y38647716D01*
X16521869Y38647725D01*
X16392361Y38832680D01*
X16392357Y38832686D01*
X16232686Y38992357D01*
X16201748Y39014019D01*
X16047725Y39121869D01*
X16047713Y39121876D01*
X16038308Y39126261D01*
X15843063Y39217306D01*
X15734006Y39246528D01*
X15624957Y39275748D01*
X15624955Y39275748D01*
X15624949Y39275750D01*
X15485854Y39287918D01*
X15456354Y39290500D01*
X15456352Y39290500D01*
X15343648Y39290500D01*
X15343646Y39290500D01*
X15311317Y39287671D01*
X15175051Y39275750D01*
X15175046Y39275748D01*
X15175042Y39275748D01*
X14956944Y39217308D01*
X14956937Y39217306D01*
X14826773Y39156609D01*
X14752286Y39121876D01*
X14752274Y39121869D01*
X14567319Y38992361D01*
X14567312Y38992355D01*
X14407644Y38832687D01*
X14407638Y38832680D01*
X14278130Y38647725D01*
X14278123Y38647713D01*
X14182693Y38443060D01*
X14182691Y38443055D01*
X14124251Y38224957D01*
X14124250Y38224951D01*
X14104570Y38000000D01*
X10091774Y38000000D01*
X10084125Y38219050D01*
X10033357Y38506973D01*
X9943011Y38785027D01*
X9814847Y39047802D01*
X9651359Y39290183D01*
X9455730Y39507452D01*
X9231766Y39695380D01*
X8983827Y39850309D01*
X8716739Y39969225D01*
X8435701Y40049811D01*
X8146182Y40090500D01*
X7926994Y40090500D01*
X7708348Y40075211D01*
X7422373Y40014425D01*
X7147641Y39914430D01*
X7027043Y39850307D01*
X6889503Y39777176D01*
X6889494Y39777171D01*
X6776919Y39695380D01*
X6652971Y39605327D01*
X6442662Y39402233D01*
X6262665Y39171847D01*
X6262664Y39171845D01*
X6262660Y39171840D01*
X6116484Y38918656D01*
X6103779Y38887210D01*
X6006961Y38647578D01*
X5936232Y38363898D01*
X5905672Y38073136D01*
X5905672Y38073129D01*
X5905672Y38073127D01*
X-5910779Y38073127D01*
X-5915875Y38219049D01*
X-5915875Y38219053D01*
X-5945577Y38387500D01*
X-5966643Y38506973D01*
X-5966644Y38506976D01*
X-5966645Y38506981D01*
X-6056989Y38785028D01*
X-6185153Y39047803D01*
X-6185154Y39047805D01*
X-6348642Y39290185D01*
X-6544265Y39507447D01*
X-6544267Y39507448D01*
X-6544270Y39507452D01*
X-6768234Y39695380D01*
X-7016173Y39850309D01*
X-7283261Y39969225D01*
X-7564299Y40049811D01*
X-7853818Y40090500D01*
X-8073006Y40090500D01*
X-8291652Y40075211D01*
X-8577627Y40014425D01*
X-8852359Y39914430D01*
X-9110501Y39777174D01*
X-9347029Y39605327D01*
X-9557338Y39402233D01*
X-9737335Y39171847D01*
X-9883517Y38918653D01*
X-9993039Y38647578D01*
X-10063768Y38363898D01*
X-10094328Y38073136D01*
X-14439499Y38073136D01*
X-14465367Y38241993D01*
X-14525689Y38404868D01*
X-14533211Y38425178D01*
X-14584199Y38506981D01*
X-14636543Y38590960D01*
X-14641485Y38596159D01*
X-14771123Y38732539D01*
X-14771136Y38732550D01*
X-14931459Y38844138D01*
X-14931464Y38844141D01*
X-15110979Y38921177D01*
X-15230261Y38945690D01*
X-15302327Y38960500D01*
X-15448706Y38960500D01*
X-15594344Y38945690D01*
X-15780732Y38887211D01*
X-15951533Y38792409D01*
X-16099753Y38665165D01*
X-16219326Y38510690D01*
X-16305356Y38335307D01*
X-16354320Y38146196D01*
X-16364214Y37951101D01*
X-34010795Y37951101D01*
X-33995131Y38050000D01*
X-34012500Y38159661D01*
X-34062903Y38258584D01*
X-34062905Y38258587D01*
X-34141412Y38337094D01*
X-34141413Y38337095D01*
X-34240339Y38387500D01*
X-34350000Y38404869D01*
X-34459661Y38387500D01*
X-34558587Y38337095D01*
X-34637095Y38258587D01*
X-34687500Y38159661D01*
X-34704869Y38050000D01*
X-40999510Y38050000D01*
X-40999507Y41750337D01*
X-39529272Y41750337D01*
X-39499230Y41554227D01*
X-39430325Y41368180D01*
X-39325380Y41199811D01*
X-39212473Y41081033D01*
X-39188690Y41056013D01*
X-39188685Y41056009D01*
X-39025858Y40942678D01*
X-39025853Y40942675D01*
X-38843534Y40864436D01*
X-38689135Y40832707D01*
X-38649199Y40824500D01*
X-38649198Y40824500D01*
X-38500533Y40824500D01*
X-38500527Y40824500D01*
X-38401923Y40834527D01*
X-38352618Y40839541D01*
X-38163322Y40898933D01*
X-37989855Y40995214D01*
X-37989848Y40995220D01*
X-37839323Y41124442D01*
X-37839313Y41124452D01*
X-37717880Y41281330D01*
X-37717874Y41281340D01*
X-37647407Y41424997D01*
X-14455133Y41424997D01*
X-14436698Y41296776D01*
X-14436697Y41296774D01*
X-14382882Y41178937D01*
X-14298049Y41081033D01*
X-14189069Y41010996D01*
X-14189066Y41010995D01*
X-14064776Y40974500D01*
X-14064772Y40974500D01*
X-13935223Y40974500D01*
X-13810933Y41010995D01*
X-13701950Y41081033D01*
X-13617119Y41178936D01*
X-13617118Y41178936D01*
X-13563301Y41296776D01*
X-13544867Y41424997D01*
X-10455133Y41424997D01*
X-10436698Y41296776D01*
X-10436697Y41296774D01*
X-10382882Y41178937D01*
X-10298049Y41081033D01*
X-10189069Y41010996D01*
X-10189066Y41010995D01*
X-10064776Y40974500D01*
X-10064772Y40974500D01*
X-9935223Y40974500D01*
X-9810933Y41010995D01*
X-9701950Y41081033D01*
X-9617119Y41178936D01*
X-9617118Y41178936D01*
X-9563301Y41296776D01*
X-9544867Y41424997D01*
X-6455133Y41424997D01*
X-6436698Y41296776D01*
X-6436697Y41296774D01*
X-6382882Y41178937D01*
X-6298049Y41081033D01*
X-6189069Y41010996D01*
X-6189066Y41010995D01*
X-6064776Y40974500D01*
X-6064772Y40974500D01*
X-5935223Y40974500D01*
X-5810933Y41010995D01*
X-5701950Y41081033D01*
X-5617119Y41178936D01*
X-5617118Y41178936D01*
X-5563301Y41296776D01*
X-5544867Y41424997D01*
X-2455133Y41424997D01*
X-2436698Y41296776D01*
X-2436697Y41296774D01*
X-2382882Y41178937D01*
X-2298049Y41081033D01*
X-2189069Y41010996D01*
X-2189066Y41010995D01*
X-2064776Y40974500D01*
X-2064772Y40974500D01*
X-1935223Y40974500D01*
X-1810933Y41010995D01*
X-1701950Y41081033D01*
X-1617119Y41178936D01*
X-1617118Y41178936D01*
X-1563301Y41296776D01*
X-1544867Y41424997D01*
X1544867Y41424997D01*
X1563301Y41296776D01*
X1617118Y41178936D01*
X1701950Y41081033D01*
X1810933Y41010995D01*
X1935223Y40974500D01*
X1935228Y40974500D01*
X2064776Y40974500D01*
X2189066Y41010995D01*
X2189069Y41010996D01*
X2298049Y41081033D01*
X2382882Y41178937D01*
X2436697Y41296774D01*
X2436698Y41296776D01*
X2455133Y41424997D01*
X5544867Y41424997D01*
X5563301Y41296776D01*
X5617118Y41178936D01*
X5701950Y41081033D01*
X5810933Y41010995D01*
X5935223Y40974500D01*
X5935228Y40974500D01*
X6064776Y40974500D01*
X6189066Y41010995D01*
X6189069Y41010996D01*
X6298049Y41081033D01*
X6382882Y41178937D01*
X6436697Y41296774D01*
X6436698Y41296776D01*
X6455133Y41424997D01*
X9544867Y41424997D01*
X9563301Y41296776D01*
X9617118Y41178936D01*
X9701950Y41081033D01*
X9810933Y41010995D01*
X9935223Y40974500D01*
X9935228Y40974500D01*
X10064776Y40974500D01*
X10189066Y41010995D01*
X10189069Y41010996D01*
X10298049Y41081033D01*
X10382882Y41178937D01*
X10436697Y41296774D01*
X10436698Y41296776D01*
X10455133Y41424997D01*
X13544867Y41424997D01*
X13563301Y41296776D01*
X13617118Y41178936D01*
X13701950Y41081033D01*
X13810933Y41010995D01*
X13935223Y40974500D01*
X13935228Y40974500D01*
X14064776Y40974500D01*
X14189066Y41010995D01*
X14189069Y41010996D01*
X14298049Y41081033D01*
X14382882Y41178937D01*
X14436697Y41296774D01*
X14436698Y41296776D01*
X14455133Y41424997D01*
X14455133Y41425002D01*
X14436698Y41553223D01*
X14436241Y41554224D01*
X14382882Y41671063D01*
X14298049Y41768967D01*
X14189069Y41839004D01*
X14085324Y41869465D01*
X14064776Y41875499D01*
X14064772Y41875500D01*
X13935228Y41875500D01*
X13935223Y41875499D01*
X13880093Y41859311D01*
X13810931Y41839004D01*
X13701951Y41768967D01*
X13617118Y41671063D01*
X13563301Y41553223D01*
X13544867Y41425002D01*
X13544867Y41424997D01*
X10455133Y41424997D01*
X10455133Y41425002D01*
X10436698Y41553223D01*
X10436241Y41554224D01*
X10382882Y41671063D01*
X10298049Y41768967D01*
X10189069Y41839004D01*
X10085324Y41869465D01*
X10064776Y41875499D01*
X10064772Y41875500D01*
X9935228Y41875500D01*
X9935223Y41875499D01*
X9880093Y41859311D01*
X9810931Y41839004D01*
X9701951Y41768967D01*
X9617118Y41671063D01*
X9563301Y41553223D01*
X9544867Y41425002D01*
X9544867Y41424997D01*
X6455133Y41424997D01*
X6455133Y41425002D01*
X6436698Y41553223D01*
X6436241Y41554224D01*
X6382882Y41671063D01*
X6298049Y41768967D01*
X6189069Y41839004D01*
X6085324Y41869465D01*
X6064776Y41875499D01*
X6064772Y41875500D01*
X5935228Y41875500D01*
X5935223Y41875499D01*
X5880093Y41859311D01*
X5810931Y41839004D01*
X5701951Y41768967D01*
X5617118Y41671063D01*
X5563301Y41553223D01*
X5544867Y41425002D01*
X5544867Y41424997D01*
X2455133Y41424997D01*
X2455133Y41425002D01*
X2436698Y41553223D01*
X2436241Y41554224D01*
X2382882Y41671063D01*
X2298049Y41768967D01*
X2189069Y41839004D01*
X2085324Y41869465D01*
X2064776Y41875499D01*
X2064772Y41875500D01*
X1935228Y41875500D01*
X1935223Y41875499D01*
X1880093Y41859311D01*
X1810931Y41839004D01*
X1701951Y41768967D01*
X1617118Y41671063D01*
X1563301Y41553223D01*
X1544867Y41425002D01*
X1544867Y41424997D01*
X-1544867Y41424997D01*
X-1544867Y41425002D01*
X-1563301Y41553223D01*
X-1617118Y41671063D01*
X-1701950Y41768966D01*
X-1701951Y41768967D01*
X-1810931Y41839004D01*
X-1880093Y41859311D01*
X-1935223Y41875499D01*
X-1935228Y41875500D01*
X-2064772Y41875500D01*
X-2064776Y41875499D01*
X-2085324Y41869465D01*
X-2189069Y41839004D01*
X-2298049Y41768967D01*
X-2382882Y41671063D01*
X-2436241Y41554224D01*
X-2436698Y41553223D01*
X-2455133Y41425002D01*
X-2455133Y41424997D01*
X-5544867Y41424997D01*
X-5544867Y41425002D01*
X-5563301Y41553223D01*
X-5617118Y41671063D01*
X-5701950Y41768966D01*
X-5701951Y41768967D01*
X-5810931Y41839004D01*
X-5880093Y41859311D01*
X-5935223Y41875499D01*
X-5935228Y41875500D01*
X-6064772Y41875500D01*
X-6064776Y41875499D01*
X-6085324Y41869465D01*
X-6189069Y41839004D01*
X-6298049Y41768967D01*
X-6382882Y41671063D01*
X-6436241Y41554224D01*
X-6436698Y41553223D01*
X-6455133Y41425002D01*
X-6455133Y41424997D01*
X-9544867Y41424997D01*
X-9544867Y41425002D01*
X-9563301Y41553223D01*
X-9617118Y41671063D01*
X-9701950Y41768966D01*
X-9701951Y41768967D01*
X-9810931Y41839004D01*
X-9880093Y41859311D01*
X-9935223Y41875499D01*
X-9935228Y41875500D01*
X-10064772Y41875500D01*
X-10064776Y41875499D01*
X-10085324Y41869465D01*
X-10189069Y41839004D01*
X-10298049Y41768967D01*
X-10382882Y41671063D01*
X-10436241Y41554224D01*
X-10436698Y41553223D01*
X-10455133Y41425002D01*
X-10455133Y41424997D01*
X-13544867Y41424997D01*
X-13544867Y41425002D01*
X-13563301Y41553223D01*
X-13617118Y41671063D01*
X-13701950Y41768966D01*
X-13701951Y41768967D01*
X-13810931Y41839004D01*
X-13880093Y41859311D01*
X-13935223Y41875499D01*
X-13935228Y41875500D01*
X-14064772Y41875500D01*
X-14064776Y41875499D01*
X-14085324Y41869465D01*
X-14189069Y41839004D01*
X-14298049Y41768967D01*
X-14382882Y41671063D01*
X-14436241Y41554224D01*
X-14436698Y41553223D01*
X-14455133Y41425002D01*
X-14455133Y41424997D01*
X-37647407Y41424997D01*
X-37630505Y41459453D01*
X-37580776Y41651517D01*
X-37580776Y41651520D01*
X-37570728Y41849663D01*
X-37600769Y42045768D01*
X-37600770Y42045775D01*
X-37669674Y42231818D01*
X-37723802Y42318659D01*
X-37774620Y42400189D01*
X-37911309Y42543986D01*
X-37911314Y42543990D01*
X-38074141Y42657321D01*
X-38074146Y42657324D01*
X-38256465Y42735563D01*
X-38377611Y42760459D01*
X-38450801Y42775500D01*
X-38599473Y42775500D01*
X-38747379Y42760459D01*
X-38936678Y42701067D01*
X-39110146Y42604784D01*
X-39260682Y42475553D01*
X-39382122Y42318666D01*
X-39469495Y42140544D01*
X-39519224Y41948480D01*
X-39529272Y41750337D01*
X-40999507Y41750337D01*
X-40999500Y49950500D01*
X-40985148Y49985148D01*
X-40950500Y49999500D01*
X-30000099Y49999500D01*
X29999901Y49999500D01*
X40950500Y49999500D01*
X40985148Y49985148D01*
G37*
%TD.AperFunction*%
%TD*%
M02*
